<svg width="873" height="606" viewBox="0 0 873 606" fill="none" xmlns="http://www.w3.org/2000/svg">
<path d="M183.652 313.897L183.636 313.609L183.38 313.479L183.379 313.479L183.375 313.477L183.359 313.468C183.344 313.461 183.321 313.449 183.291 313.433C183.231 313.401 183.14 313.352 183.021 313.287C182.784 313.156 182.435 312.958 181.992 312.692C181.106 312.161 179.846 311.358 178.358 310.277C175.38 308.113 171.494 304.84 167.859 300.4C160.597 291.53 154.332 278.006 158.321 259.329L158.393 258.991L158.103 258.804L158.102 258.804L158.102 258.804L158.1 258.802L158.087 258.794C158.083 258.791 158.077 258.788 158.07 258.783C158.061 258.777 158.049 258.769 158.036 258.76C157.99 258.729 157.92 258.682 157.829 258.619C157.647 258.492 157.38 258.3 157.042 258.044C156.365 257.53 155.408 256.758 154.29 255.726C152.053 253.663 149.18 250.567 146.637 246.44C141.559 238.199 137.78 225.827 143.053 209.286C145.699 200.987 148.77 196.411 151.943 193.815C155.107 191.226 158.433 190.557 161.726 190.201C162.318 190.137 162.913 190.084 163.507 190.03C166.182 189.789 168.855 189.547 171.238 188.372C174.211 186.907 176.69 184.033 178.444 178.19C185.299 155.345 208.725 126.996 255.086 125.57C278.322 124.855 295.095 130.097 305.221 138.201C315.328 146.289 318.837 157.236 315.591 168.102L315.471 168.501L315.842 168.69L315.842 168.69L315.843 168.691L315.846 168.692L315.86 168.699C315.866 168.703 315.873 168.707 315.882 168.711C315.893 168.717 315.904 168.723 315.918 168.73C315.971 168.758 316.049 168.801 316.152 168.858C316.357 168.972 316.658 169.145 317.037 169.377C317.794 169.841 318.861 170.542 320.091 171.481C322.552 173.362 325.657 176.195 328.244 180.007C330.829 183.817 332.895 188.601 333.293 194.396C333.691 200.189 332.422 207.026 328.287 214.946L328.101 215.303L328.409 215.561L328.41 215.562L328.413 215.564L328.425 215.575L328.478 215.619C328.524 215.659 328.594 215.72 328.684 215.8C328.866 215.96 329.132 216.198 329.468 216.512C330.139 217.138 331.087 218.062 332.191 219.246C334.4 221.615 337.227 225.021 339.703 229.17C344.66 237.473 348.176 248.679 342.66 260.524C339.886 266.484 334.962 272.903 329.012 279.409C323.065 285.909 316.12 292.466 309.324 298.704C307.481 300.396 305.648 302.065 303.85 303.703C299.024 308.098 294.443 312.269 290.566 316.059C287.905 318.662 285.566 321.094 283.7 323.304C281.839 325.509 280.428 327.518 279.645 329.275L279.644 329.275C278.981 330.765 277.24 331.973 274.494 332.886C271.771 333.791 268.176 334.368 263.994 334.684C255.633 335.314 245.028 334.894 234.588 334.05C224.153 333.206 213.904 331.94 206.261 330.884C202.441 330.357 199.273 329.882 197.06 329.539C195.954 329.367 195.086 329.229 194.496 329.133C194.201 329.086 193.974 329.049 193.822 329.023L193.755 329.012C193.682 328.936 193.576 328.824 193.441 328.681C193.167 328.389 192.775 327.967 192.304 327.443C191.36 326.396 190.101 324.947 188.833 323.339C187.564 321.728 186.294 319.967 185.326 318.294C184.349 316.605 183.718 315.07 183.652 313.897Z" fill="#10112E" stroke="white"/>
<path d="M282.831 296.743L283.257 317.915V317.934L283.876 347.705L222.644 350.378L222.954 249.791C221.464 249.791 201.35 250.973 198.969 234.741C196.588 218.49 216.527 216.262 216.527 216.262C290.458 223.391 307.048 166.269 307.048 166.269C314.23 167.122 314.327 189.145 314.327 189.145C314.327 189.145 312.798 185.193 321.141 237.22C329.485 289.267 282.831 296.743 282.831 296.743Z" fill="#C8785B"/>
<path d="M283.257 317.915V317.934C283.257 317.934 227.078 308.733 227.02 251.806C227.02 251.806 232.75 299.029 282.831 296.744L283.257 317.915Z" fill="#A75236"/>
<path d="M393.698 555.774C393.698 555.774 363.305 556.472 321.839 557.169C241.848 558.506 120.644 559.765 97.0259 555.774C61.193 549.692 72.7695 513.297 75.2474 488.736C77.7253 464.175 99.5038 393.282 117.43 355.162C135.356 317.043 220.825 323.222 220.825 323.222L244.539 345.555L280.101 322.834C280.101 322.834 302.441 323.764 315.953 324.326C329.466 324.868 338.835 336.723 338.835 336.723L383.496 391.364L372.19 533.983L375.675 537.509L393.698 555.774Z" fill="white"/>
<path d="M232.595 445.851C232.285 445.851 231.956 445.697 231.782 445.406L185.844 373.641L202.995 362.949L181.178 349.313L204.157 327.755C204.544 327.387 205.164 327.406 205.531 327.793C205.899 328.181 205.88 328.801 205.493 329.169L184.353 349.003L206.654 362.949L188.515 374.242L233.389 444.36C233.679 444.806 233.543 445.406 233.098 445.697C232.963 445.793 232.769 445.851 232.595 445.851Z" fill="#C6E8FA"/>
<path d="M249.127 447.227C248.914 447.227 248.701 447.169 248.527 447.014C248.101 446.684 248.024 446.084 248.353 445.658L303.196 375.191L285.657 364.596L309.604 350.243L289.374 332.5C288.967 332.151 288.929 331.532 289.277 331.125C289.626 330.718 290.245 330.679 290.652 331.028L312.875 350.514L289.413 364.576L306.061 374.629L249.882 446.82C249.708 447.091 249.418 447.227 249.127 447.227Z" fill="#C6E8FA"/>
<path d="M148.075 505.297C148.075 505.297 162.865 488.445 157.057 474.015C151.25 459.604 134.969 432.351 169.408 406.221C169.408 406.221 150.127 428.225 156.302 442.268C162.478 456.311 169.021 476.92 158.741 493.21L328.111 520.56L148.075 505.297Z" fill="#E7EFF5"/>
<path d="M324.607 399.848C324.607 399.848 341.759 419.47 337.596 443.023C333.434 466.577 319.322 488.407 336.551 511.708C336.551 511.708 329.35 486.683 338.255 470.005C347.16 453.328 352.793 417.765 324.607 399.848Z" fill="#E7EFF5"/>
<path d="M388.316 389.021L383.496 391.364L336.551 526.991L390.504 537.974L388.316 389.021Z" fill="#E7EFF5"/>
<path d="M215.714 306.854C215.714 306.854 244.52 307.997 249.611 335.405C249.611 335.405 253.967 307.61 283.257 307.61L284.108 332.306L240.977 441.048H236.447L214.785 335.502L215.714 306.854Z" fill="#CFCFE2"/>
<path d="M248.471 335.367L247.855 374.897L249.791 374.927L250.407 335.398L248.471 335.367Z" fill="white"/>
<path d="M264.788 216.108C264.788 216.108 271.641 204.35 289.529 211.498" stroke="#10112E" stroke-miterlimit="10" stroke-linecap="round"/>
<path d="M275.687 246.131C266.201 246.131 258.497 238.421 258.497 228.93C258.497 219.439 266.201 211.73 275.687 211.73C285.173 211.73 292.878 219.439 292.878 228.93C292.878 238.421 285.173 246.131 275.687 246.131ZM275.687 213.667C267.286 213.667 260.433 220.504 260.433 228.93C260.433 237.356 267.266 244.194 275.687 244.194C284.108 244.194 290.942 237.356 290.942 228.93C290.942 220.504 284.108 213.667 275.687 213.667Z" fill="white"/>
<path d="M315.431 241.753C305.945 241.753 298.24 234.044 298.24 224.553C298.24 215.062 305.945 207.353 315.431 207.353C324.917 207.353 332.621 215.062 332.621 224.553C332.621 234.044 324.917 241.753 315.431 241.753ZM315.431 209.29C307.029 209.29 300.176 216.127 300.176 224.553C300.176 232.979 307.01 239.816 315.431 239.816C323.852 239.816 330.685 232.979 330.685 224.553C330.685 216.127 323.832 209.29 315.431 209.29Z" fill="white"/>
<path d="M259.484 224.32C259.426 224.32 259.348 224.32 259.29 224.301L216.082 215.527C215.559 215.43 215.211 214.907 215.327 214.384C215.443 213.861 215.927 213.512 216.469 213.628L259.678 222.403C260.2 222.5 260.549 223.023 260.433 223.546C260.336 224.011 259.929 224.32 259.484 224.32Z" fill="white"/>
<path d="M298.763 211.285C298.763 211.285 302.402 200.225 316.244 204.563" stroke="#10112E" stroke-miterlimit="10" stroke-linecap="round"/>
<path d="M293.594 214.577C293.594 214.577 291.639 227.265 296.808 228.388C301.976 229.511 305.616 227.962 305.751 232.727C305.887 237.492 304.88 242.102 293.226 242.935" fill="#C8785B"/>
<path d="M293.226 243.903C292.723 243.903 292.297 243.516 292.258 243.012C292.22 242.47 292.626 242.024 293.149 241.966C304.125 241.172 304.9 237.162 304.783 232.746C304.706 230.286 303.874 230.112 300.641 229.86C299.44 229.763 298.105 229.647 296.595 229.337C290.71 228.059 292.413 215.817 292.626 214.442C292.704 213.919 293.207 213.551 293.73 213.628C294.252 213.706 294.62 214.209 294.543 214.732C294.078 217.793 293.517 226.683 297.001 227.439C298.376 227.729 299.653 227.846 300.795 227.923C303.777 228.155 306.584 228.388 306.719 232.688C306.874 237.995 305.364 243.031 293.304 243.903C293.284 243.903 293.246 243.903 293.226 243.903Z" fill="#8A402C"/>
<path d="M282.134 229.376C284.144 229.376 285.773 227.745 285.773 225.734C285.773 223.723 284.144 222.093 282.134 222.093C280.124 222.093 278.494 223.723 278.494 225.734C278.494 227.745 280.124 229.376 282.134 229.376Z" fill="#10112E"/>
<path d="M311.791 226.993C313.801 226.993 315.431 225.363 315.431 223.352C315.431 221.341 313.801 219.71 311.791 219.71C309.781 219.71 308.152 221.341 308.152 223.352C308.152 225.363 309.781 226.993 311.791 226.993Z" fill="#10112E"/>
<path d="M209.713 239.7C209.422 239.7 209.132 239.564 208.938 239.313C208.609 238.886 208.706 238.286 209.132 237.957L215.462 233.211L207.816 226.451C207.409 226.102 207.37 225.483 207.738 225.076C208.087 224.669 208.706 224.63 209.113 224.998L218.521 233.347L210.294 239.506C210.119 239.642 209.906 239.7 209.713 239.7Z" fill="#8A402C"/>
<path d="M285.754 282.933C285.521 282.933 285.289 282.855 285.115 282.681C280.604 278.652 275.242 282.565 275.01 282.739C274.584 283.069 273.964 282.972 273.655 282.546C273.345 282.119 273.422 281.519 273.848 281.19C276.191 279.427 281.843 277.18 286.393 281.248C286.799 281.596 286.818 282.216 286.47 282.623C286.296 282.817 286.025 282.933 285.754 282.933Z" fill="#8A402C"/>
<path d="M273.171 251.806C271.893 247.777 268.699 272.163 281.146 272.725C293.594 273.287 296.111 263.079 296.111 263.079C296.111 263.079 297.369 258.605 294.156 257.346C290.942 256.087 274.294 255.37 273.171 251.806Z" fill="white"/>
<path d="M299.208 225.521H291.31C290.768 225.521 290.342 225.095 290.342 224.553C290.342 224.01 290.768 223.584 291.31 223.584H299.208C299.75 223.584 300.176 224.01 300.176 224.553C300.176 225.095 299.75 225.521 299.208 225.521Z" fill="white"/>
<path d="M357.071 555.774C357.071 555.774 337.809 543.049 352.057 496.038C366.305 449.028 404.055 322.602 404.055 322.602C404.055 322.602 413.366 271.137 470.01 279.02C482.128 284.173 537.01 326.031 537.01 326.031L595.164 281.112L662.687 267.786L708.722 420.051L699.352 555.794H357.071V555.774Z" fill="white"/>
<path d="M393.698 555.774C393.698 555.774 363.305 556.472 321.838 557.169L320.948 555.774C320.948 555.774 307.494 531.93 328.111 520.56C336.551 521.103 342.61 520.405 352.135 526.255C357.594 529.606 367.893 534.197 375.675 537.509L393.698 555.774Z" fill="#C8785B"/>
<path d="M518.116 457.202C517.768 457.202 517.419 457.008 517.245 456.679L452.568 330.273L468.035 321.692L446.276 309.276L467.668 289.519C468.055 289.151 468.674 289.17 469.042 289.577C469.41 289.964 469.371 290.584 468.984 290.952L449.528 308.927L471.985 321.731L455.142 331.086L518.968 455.827C519.22 456.311 519.026 456.892 518.542 457.125C518.426 457.163 518.271 457.202 518.116 457.202Z" fill="#C6E8FA"/>
<path d="M558.963 464.853C558.847 464.853 558.711 464.834 558.595 464.776C558.111 464.563 557.86 464.001 558.073 463.517L613.4 331.125L596.616 322.776L615.955 305.073L600.797 285.664C600.468 285.238 600.546 284.637 600.971 284.308C601.397 283.979 601.998 284.056 602.327 284.483L618.569 305.305L599.984 322.312L615.858 330.195L559.834 464.253C559.699 464.64 559.331 464.853 558.963 464.853Z" fill="#C6E8FA"/>
<path d="M467.493 397.079L446.218 482.615L532.597 492.842L458.975 472.407L467.493 397.079Z" fill="#E7EFF5"/>
<path d="M617.252 290.216L641.509 460.495L629.39 466.015L617.252 290.216Z" fill="#E7EFF5"/>
<path d="M482.728 157.599L483.094 157.427L483.003 157.034L482.516 157.146C483.003 157.034 483.003 157.034 483.003 157.034L483.002 157.032L483.001 157.025L482.994 156.995C482.988 156.968 482.979 156.927 482.967 156.873C482.944 156.764 482.909 156.603 482.867 156.391C482.781 155.968 482.661 155.346 482.525 154.553C482.254 152.967 481.921 150.7 481.672 147.98C481.173 142.535 481.014 135.294 482.361 128.072C483.709 120.849 486.556 113.684 492.036 108.344C497.506 103.015 505.652 99.4507 517.707 99.5178C517.707 99.5178 517.707 99.5178 517.707 99.5178L560.274 99.772L565.595 99.8038L566.26 99.8078L566.261 99.8078L566.6 99.943L566.805 99.5322L566.805 99.5321L566.805 99.5319L566.806 99.5318L566.807 99.5288L566.814 99.5145C566.821 99.5012 566.832 99.4806 566.847 99.4531C566.876 99.3981 566.921 99.3157 566.981 99.2095C567.102 98.9972 567.285 98.6901 567.531 98.3177C568.024 97.5722 568.765 96.5686 569.76 95.5397C571.75 93.4792 574.726 91.3445 578.721 90.9344C582.657 90.5306 586.308 92.7725 589.03 95.2158C590.381 96.4283 591.479 97.6691 592.239 98.6075C592.619 99.0763 592.914 99.4684 593.113 99.7423C593.213 99.8793 593.288 99.9865 593.338 100.059C593.364 100.095 593.382 100.123 593.395 100.141L593.408 100.161L593.411 100.165L593.412 100.166L593.412 100.166L593.586 100.428L593.896 100.385L593.896 100.385L593.897 100.385L593.899 100.384L593.91 100.383L593.957 100.377C593.998 100.372 594.061 100.364 594.143 100.355C594.309 100.336 594.553 100.31 594.868 100.283C595.499 100.229 596.409 100.169 597.524 100.147C599.755 100.102 602.796 100.207 606.045 100.807C612.554 102.009 619.792 105.172 623.123 112.967L623.123 112.967C626.483 120.809 624.815 129.102 622.259 135.489C620.984 138.676 619.495 141.369 618.325 143.266C617.74 144.213 617.236 144.961 616.878 145.47C616.699 145.725 616.558 145.92 616.461 146.051C616.413 146.116 616.376 146.165 616.351 146.198L616.323 146.234L616.317 146.243L616.315 146.245L616.315 146.245L616.214 146.375L616.21 146.54L616.21 146.541L616.21 146.544L616.21 146.558L616.208 146.615C616.207 146.665 616.204 146.741 616.2 146.84C616.192 147.038 616.178 147.331 616.154 147.704C616.107 148.452 616.022 149.524 615.868 150.818C615.561 153.408 614.984 156.875 613.904 160.399C611.732 167.488 607.605 174.575 599.788 175.552L478.512 180.691C478.45 180.571 478.37 180.413 478.277 180.221C478.042 179.74 477.722 179.043 477.38 178.186C476.696 176.468 475.932 174.12 475.599 171.58C475.266 169.037 475.369 166.331 476.385 163.875C477.396 161.432 479.326 159.195 482.728 157.599Z" fill="#10112E" stroke="white"/>
<path d="M566.068 271.679L567.055 294.865L567.5 305.189L487.394 304.046L493.957 277.974L496.822 204.679C496.822 204.679 472.507 208.127 472.507 186.356C472.507 164.604 502.842 168.904 502.842 168.904C502.842 168.904 520.865 177.484 522.007 140.546C522.007 140.546 532.016 156.875 600.41 150.58C600.41 150.58 611.29 262.227 566.068 271.679Z" fill="#FABCA6"/>
<path d="M567.055 294.865C565.681 294.671 508.243 286.342 501.526 227.826C502.745 235.865 511.283 273.209 566.068 271.679L567.055 294.865Z" fill="#F8A891"/>
<path d="M470.029 279.001L493.957 277.974L527.912 299.049H552.788L566.378 278.982L595.183 281.112L545.49 497.917H540.282L470.029 279.001Z" fill="#72C6EF"/>
<path d="M528.125 296.24L519.278 330.931L526.382 340.655L514.922 418.889L540.282 497.917H545.489L563.435 419.664L551.181 338.737L558.286 328.684L551.355 296.24H528.125Z" fill="#676DB3"/>
<path d="M506.656 331.958L479.825 288.008L481.47 287.001L507.353 329.362L520.904 321.847L521.852 323.532L506.656 331.958Z" fill="white"/>
<path d="M570.365 329.866L555.188 317.74L556.388 316.229L569.436 326.65L583.355 287.194L585.194 287.834L570.365 329.866Z" fill="white"/>
<path d="M506.753 543.145C506.753 543.145 498.061 524.066 508.456 510.701C518.833 497.336 556.989 491.196 556.989 491.196C556.989 491.196 566.532 491.467 572.03 497.917C577.547 504.348 588.988 515.582 588.988 515.582C588.988 515.582 597.042 526.178 584.11 531.911L588.117 541.46L553.369 540.821L547.387 532.976C547.387 532.976 544.057 540.821 539.179 541.247C534.3 541.673 506.753 543.145 506.753 543.145Z" fill="#FABCA6"/>
<path d="M575.176 513.235L573.469 514.149L583.22 532.39L584.927 531.477L575.176 513.235Z" fill="#F8A58F"/>
<path d="M561.85 522.29L560.216 523.328L571.864 541.696L573.499 540.658L561.85 522.29Z" fill="#F8A58F"/>
<path d="M825.32 419.47L782.576 555.775H496.222L490.472 546.613C488.982 544.23 490.685 541.15 493.473 541.15H596.132L629.874 413.969C631.81 406.744 638.353 401.708 645.826 401.708H812.291C821.525 401.708 828.088 410.657 825.32 419.47Z" fill="#494A6B"/>
<path d="M655.641 401.708C655.641 401.708 646.348 404.342 643.483 416.739C640.812 428.225 610.07 539.427 605.54 555.775H496.222L490.472 546.613C488.982 544.23 490.685 541.15 493.473 541.15H596.132L629.874 413.969C631.81 406.744 638.353 401.708 645.826 401.708H655.641Z" fill="#10112E"/>
<path d="M570.385 216.049C568.178 216.049 565.584 215.604 562.622 214.693C562.119 214.539 561.828 213.996 561.983 213.493C562.138 212.989 562.68 212.698 563.183 212.853C569.61 214.81 573.966 214.519 576.115 211.982C581.748 205.319 571.895 185.503 571.798 185.31C571.566 184.825 571.759 184.244 572.224 184.012C572.688 183.76 573.289 183.954 573.521 184.438C573.947 185.29 584.033 205.59 577.586 213.221C575.999 215.1 573.598 216.049 570.385 216.049Z" fill="#F8A58F"/>
<path d="M554.743 212.64C545.199 212.64 537.436 204.873 537.436 195.324C537.436 185.775 545.199 178.007 554.743 178.007C564.287 178.007 572.05 185.775 572.05 195.324C572.05 204.873 564.268 212.64 554.743 212.64ZM554.743 179.944C546.264 179.944 539.372 186.84 539.372 195.324C539.372 203.808 546.264 210.703 554.743 210.703C563.222 210.703 570.114 203.808 570.114 195.324C570.114 186.84 563.203 179.944 554.743 179.944Z" fill="white"/>
<path d="M598.3 217.289C588.756 217.289 580.993 209.522 580.993 199.973C580.993 190.423 588.756 182.656 598.3 182.656C607.844 182.656 615.607 190.423 615.607 199.973C615.607 209.522 607.844 217.289 598.3 217.289ZM598.3 184.593C589.821 184.593 582.929 191.489 582.929 199.973C582.929 208.457 589.821 215.352 598.3 215.352C606.779 215.352 613.671 208.457 613.671 199.973C613.671 191.489 606.76 184.593 598.3 184.593Z" fill="white"/>
<path d="M556.292 229.821C554.666 229.821 553.117 229.569 551.626 229.066C544.057 226.509 540.998 218.432 540.882 218.083C540.689 217.58 540.96 217.018 541.463 216.844C541.966 216.65 542.528 216.921 542.702 217.425C542.721 217.502 545.567 224.979 552.265 227.245C556.737 228.756 561.944 227.632 567.771 223.933C568.217 223.642 568.817 223.778 569.107 224.223C569.398 224.669 569.262 225.269 568.817 225.56C564.326 228.388 560.144 229.821 556.292 229.821Z" fill="#F8A58F"/>
<path d="M504.211 165.493L503.293 167.199L540.606 187.296L541.523 185.591L504.211 165.493Z" fill="white"/>
<path d="M581.942 194.355H571.062V196.292H581.942V194.355Z" fill="white"/>
<path d="M539.198 182.172C539.062 182.172 538.946 182.152 538.811 182.094C538.327 181.881 538.094 181.32 538.307 180.816C538.424 180.564 541.037 174.54 547.677 172.041C552.691 170.163 558.557 170.821 565.119 173.998C565.603 174.23 565.797 174.811 565.564 175.296C565.332 175.78 564.751 175.974 564.267 175.741C558.189 172.797 552.846 172.158 548.335 173.862C542.47 176.07 540.088 181.513 540.069 181.571C539.934 181.959 539.566 182.172 539.198 182.172Z" fill="#10112E"/>
<path d="M584.613 182.172C584.188 182.172 583.8 181.881 583.684 181.455C583.549 180.932 583.858 180.409 584.362 180.274C585.833 179.867 598.881 176.516 602.307 180.583C602.656 180.99 602.598 181.61 602.191 181.959C601.785 182.307 601.184 182.249 600.817 181.843C598.842 179.479 589.976 180.777 584.865 182.152C584.788 182.172 584.691 182.172 584.613 182.172Z" fill="#10112E"/>
<path d="M555.459 204.621C557.394 204.621 558.963 202.54 558.963 199.973C558.963 197.405 557.394 195.324 555.459 195.324C553.524 195.324 551.955 197.405 551.955 199.973C551.955 202.54 553.524 204.621 555.459 204.621Z" fill="#10112E"/>
<path d="M591.679 207.12C593.614 207.12 595.183 205.039 595.183 202.471C595.183 199.904 593.614 197.823 591.679 197.823C589.744 197.823 588.175 199.904 588.175 202.471C588.175 205.039 589.744 207.12 591.679 207.12Z" fill="#10112E"/>
<path d="M487.026 192.748C486.697 192.748 486.387 192.573 486.194 192.283C485.923 191.818 486.058 191.237 486.523 190.946L491.595 187.867L486.194 178.395C485.923 177.93 486.097 177.349 486.562 177.078C487.026 176.826 487.607 176.981 487.878 177.446L494.228 188.564L487.549 192.632C487.375 192.709 487.2 192.748 487.026 192.748Z" fill="#F8A58F"/>
<path d="M662.706 267.766C662.706 267.766 657.654 283.843 641.18 281.596C624.705 279.35 614.639 277.083 614.639 277.083C614.639 277.083 613.264 280.996 620.543 281.81C627.822 282.642 623.505 287.679 623.505 287.679C623.505 287.679 595.687 297.402 589.685 278.827C589.337 275.185 591.679 272.221 591.679 272.221C591.679 272.221 585.872 268.89 587.266 260.735C587.266 260.735 579.29 256.028 583.103 245.995C583.103 245.995 578.845 244.813 577.451 239.874C577.451 239.874 573.366 231.739 578.786 227.826C583.374 224.533 601.901 217.89 621.201 222.751C624.821 223.662 628.442 224.959 632.023 226.78C654.731 238.266 662.706 267.766 662.706 267.766Z" fill="#FABCA6"/>
<path d="M621.201 222.751C621.201 222.751 597.526 221.725 584.265 228.833C584.265 228.833 574.198 233.114 583.103 245.995C583.103 245.995 578.845 244.813 577.451 239.874C577.451 239.874 573.366 231.739 578.786 227.826C583.374 224.533 601.901 217.89 621.201 222.751Z" fill="#F8A58F"/>
<path d="M583.103 246.983C582.968 246.983 582.852 246.963 582.716 246.905C582.232 246.692 582 246.131 582.213 245.627C587.962 232.301 603.275 232.901 603.43 232.94C603.972 232.959 604.379 233.424 604.34 233.947C604.321 234.489 603.856 234.916 603.333 234.857C602.772 234.838 589.201 234.315 583.994 246.382C583.82 246.75 583.471 246.983 583.103 246.983Z" fill="#F8A58F"/>
<path d="M587.266 261.704C587.13 261.704 586.995 261.665 586.859 261.607C586.375 261.375 586.162 260.794 586.394 260.309C591.389 249.733 605.676 245.937 606.276 245.782C606.798 245.646 607.321 245.956 607.457 246.479C607.592 247.002 607.282 247.525 606.76 247.661C606.624 247.7 592.744 251.38 588.156 261.142C587.962 261.491 587.614 261.704 587.266 261.704Z" fill="#F8A58F"/>
<path d="M591.679 273.209C591.466 273.209 591.273 273.151 591.099 273.016C590.673 272.686 590.595 272.086 590.924 271.66C602.423 256.668 614.91 261.762 615.026 261.82C615.51 262.033 615.742 262.595 615.529 263.079C615.316 263.563 614.736 263.796 614.271 263.602C613.826 263.408 603.004 259.089 592.454 272.841C592.241 273.074 591.97 273.209 591.679 273.209Z" fill="#F8A58F"/>
<path d="M411.198 556.569H393.214C380.573 556.569 370.313 546.303 370.313 533.654V504.367H434.099V533.654C434.099 546.303 423.839 556.569 411.198 556.569Z" fill="#72C6EF"/>
<path d="M372.248 543.862C360.44 543.862 350.838 535.785 350.838 525.848C350.838 515.912 360.44 507.834 372.248 507.834V512.677C363.111 512.677 355.677 518.585 355.677 525.848C355.677 533.112 363.111 539.02 372.248 539.02V543.862Z" fill="#72C6EF"/>
</svg>
