<svg width="573" height="517" viewBox="0 0 573 517" fill="none" xmlns="http://www.w3.org/2000/svg">
<path fill-rule="evenodd" clip-rule="evenodd" d="M443.848 116.85C450.609 119.017 449.626 116.622 451.948 123.737C453.075 127.187 454.651 132.948 454.441 138.079L453.601 138.465L454.441 138.079C456.324 135.839 460.11 133.433 462.852 131.615C466.611 129.122 468.869 128.876 474.028 127.655C472.746 122.373 469.894 119.105 468.797 114.01C465.848 112.228 466.554 110.303 466.586 106.409C467.85 103.602 466.566 105.552 469.453 103.14C476.543 97.2156 474.871 88.488 465.669 91.5113C461.958 92.0084 455.844 93.2821 453.803 84.8672L452.482 82.8025C443.064 78.4579 449.445 85.9586 449.756 87.8886C450.43 92.0539 448.908 98.0695 444.281 98.9167C434.159 100.77 448.538 59.6841 433.311 93.0208C432.315 93.9062 431.173 96.5506 430.306 97.0279C426.348 99.2064 427.244 100.497 429.765 102.377C433.556 105.205 433.267 107.557 437.616 111.722C437.745 111.845 437.938 112.021 438.071 112.138L442.084 115.249C442.251 115.39 442.513 115.636 442.651 115.757C442.796 115.884 443.103 116.176 443.209 116.003C443.319 115.826 443.65 116.66 443.848 116.85V116.85Z" fill="#FDBDB4"/>
<path fill-rule="evenodd" clip-rule="evenodd" d="M404.634 472.603C396.006 474.225 389.7 478.171 374.988 475.921C373.404 485.146 361.146 492.936 358.617 497.824C356.126 502.637 357.899 517.492 365.475 516.187C383.351 513.108 403.778 501.006 407.511 495.39C411.244 489.775 412.842 482.303 409.502 478.355L404.634 472.603V472.603Z" fill="#808080"/>
<path fill-rule="evenodd" clip-rule="evenodd" d="M386.492 365.044L337.818 334.07L305.958 461.064C312.374 465.637 323.768 471.094 336.933 470.357L386.492 365.044V365.044Z" fill="#336699"/>
<path d="M418.673 512.373C426.615 512.373 433.054 506.43 433.054 499.098C433.054 491.767 426.615 485.824 418.673 485.824C410.731 485.824 404.292 491.767 404.292 499.098C404.292 506.43 410.731 512.373 418.673 512.373Z" fill="#4A4A4A"/>
<path fill-rule="evenodd" clip-rule="evenodd" d="M126.108 248.256L125.818 247.441C125.678 247.754 125.497 248.426 125.28 249.232C124.957 250.437 124.552 251.943 124.08 253.003L0.936074 253.016C-0.694597 263.073 0.217101 372.308 0.618425 420.393C0.690023 428.971 0.745377 435.604 0.767152 439.379C0.807469 446.332 0.702349 453.569 0.596224 460.875C0.402119 474.239 0.204654 487.834 0.887568 500.342L11.316 500.278L11.8555 265.638C19.421 266.14 41.6378 265.945 65.2154 265.739C97.3389 265.458 131.988 265.155 135.55 266.56C136.809 269.708 136.64 337.429 136.484 399.673C136.37 445.57 136.263 488.489 136.741 500.344L147.203 500.177L147.686 265.521C246.956 265.482 347.093 264.457 368.894 260.73C369.624 260.34 370.704 258.659 371.711 257.092C372.541 255.801 373.321 254.587 373.815 254.235C374.288 253.898 374.546 253.74 374.678 253.675C374.654 253.768 374.728 253.731 374.772 253.69C374.816 253.648 374.828 253.601 374.678 253.675C374.7 253.593 374.798 253.412 375.059 253.048C363.79 253.633 310.58 254.526 301.161 253.536C300.611 252.244 300.213 249.962 299.954 248.48C299.849 247.878 299.767 247.408 299.707 247.19L299.5 248L299.083 248.429L299.078 254.268L126.094 254.086L126.108 248.256Z" fill="#534F61"/>
<path d="M126.108 248.256L299.083 248.429L299.5 248L299.707 247.19L251.526 247.394L251.734 220.336L371.847 220.325C391.884 194.79 349.301 207.393 370.963 200.699C372.49 195.796 373.058 192.794 373.236 190.601L373.241 187.659C354.489 185.75 349.351 189.877 341.665 189.306C336.563 188.927 344.985 194.806 341.314 193.393L331.152 186.824L45.4451 187.371L45.4668 5.63667L373.542 5.80525L373.241 187.659L373.276 187.663C373.315 188.525 373.329 189.452 373.236 190.601L373.235 190.832C376.605 191.929 375.629 192.501 379.421 193.131L379.265 0L40.1667 0.621125L40.2596 219.805C62.2611 220.541 85.2978 219.966 107.423 220.027L166.181 220.115C172.765 220.037 169.752 220.188 173.764 221.006L173.655 247.15L125.818 247.441L126.108 248.256Z" fill="#534F61"/>
<path fill-rule="evenodd" clip-rule="evenodd" d="M416.579 474.449C416.158 476.266 415.404 477.549 415.36 479.368C415.337 480.327 415.337 481.227 415.578 482.149C416.116 484.199 416.035 483.512 416.878 484.698C419.879 483.357 418.363 484.237 419.537 481.115C420.796 477.765 421.753 473.518 428.314 472.045L477.426 471.929C489.283 472.546 486.597 481.365 488.809 484.811C492.687 483.437 492.335 483.568 492.623 481.31C492.655 478.37 491.579 476.539 491.429 476.269L489.099 472.101C492.716 471.554 509.814 471.351 513.262 471.935C519.828 473.047 521.614 476.359 522.678 479.713C524.295 484.811 519.825 483.961 525.582 484.49C526.115 482.689 526.377 482.782 526.711 480.891C528.594 470.265 519.601 467.51 510.712 467.376C459.005 466.595 466.038 471.904 466.053 455.159C466.06 447.562 466.033 439.963 466.025 432.365C466.009 417.165 465.967 401.963 466.024 386.762C466.073 373.923 461.791 378.456 461.865 368.425C461.918 361.215 461.787 353.956 461.942 346.76C468.701 345.745 474.319 347.573 480.635 345.124L481.528 344.471L482.572 343.766L483.483 342.927L484.246 341.948L485.211 340.26L485.95 336.761C483.121 335.623 428.099 335.843 421.37 336.337C422.111 340.066 423.491 342.422 425.396 343.911C429.811 347.358 437.053 346.153 445.73 346.585C446.345 353.019 447.141 371.773 444.074 376.298C439.937 382.401 441.692 395.467 441.692 404.313C441.692 425.189 441.743 446.08 441.649 467.026L432.816 467.111C418.453 467.263 416.584 474.434 416.579 474.449V474.449Z" fill="#9C9C9C"/>
<path fill-rule="evenodd" clip-rule="evenodd" d="M454.657 137.971L453.817 138.357C444.434 150.246 433.967 161.279 429.622 177.238L424.706 201.276C415.732 221.884 417.294 205.899 391.286 195.789C381.084 191.823 367.487 188.544 358.842 190.248L359.293 191.793C359.059 192.988 358.548 193.354 358.315 194.549L353.702 198.497C365.707 213.648 366.542 222.977 415.905 259.513L435.448 266.847L454.538 167.763C455.97 159.276 460.837 153.204 467.791 150.789C477.384 147.459 544.049 148.244 554.28 149.093L487.009 148.309C485.077 143.721 477.618 129.658 474.245 127.547C469.085 128.768 466.827 129.014 463.068 131.506C460.327 133.325 456.54 135.731 454.657 137.971V137.971Z" fill="#9CC3FC"/>
<path fill-rule="evenodd" clip-rule="evenodd" d="M443.994 116.742C444.116 116.796 444.522 116.03 443.434 115.082C443.296 114.962 442.467 115.282 442.3 115.141L438.287 112.03C438.154 111.913 437.961 111.737 437.832 111.614C433.482 107.449 434.658 104.654 430.866 101.827C436.563 98.3913 434.385 100.66 444.497 98.8087C449.124 97.9615 450.645 91.9458 449.972 87.7805C448.827 80.6889 454.683 82.8653 448.992 81.4799C448.992 81.4833 444.501 77.5993 437.433 75.9851C434.551 75.3265 436.953 93.1168 431.504 103.884C433.847 106.527 433.241 109.725 438.849 114.014L439.839 114.76C440.006 114.872 440.184 115.029 440.375 115.115L443.994 116.742V116.742Z" fill="#FDBDB4" stroke="#FDBDB4" stroke-width="0.1" stroke-miterlimit="22.9256"/>
<path d="M495.667 510.604C503.609 510.604 510.047 504.66 510.047 497.329C510.047 489.997 503.609 484.054 495.667 484.054C487.724 484.054 481.286 489.997 481.286 497.329C481.286 504.66 487.724 510.604 495.667 510.604Z" fill="#4A4A4A"/>
<path d="M529.296 510.604C537.238 510.604 543.676 504.66 543.676 497.329C543.676 489.997 537.238 484.054 529.296 484.054C521.353 484.054 514.915 489.997 514.915 497.329C514.915 504.66 521.353 510.604 529.296 510.604Z" fill="#4A4A4A"/>
<path fill-rule="evenodd" clip-rule="evenodd" d="M448.915 83.1938L452.366 82.8884C452.456 83.8992 451.994 84.3856 452.83 86.0041C453.743 86.9815 456.305 91.6957 461.571 91.8863C472.688 85.7513 481.2 95.8051 466.636 104.697C466.604 108.591 466.064 112.12 469.013 113.902C470.167 113.682 469.869 111.279 471.119 110.82C477.349 108.53 485.787 105.712 488.322 102.29C492.522 96.6212 495.951 85.9326 493.499 76.9287C489.039 60.5548 460.155 53.4073 448.704 64.8726C448.355 64.889 439.702 56.8387 437.048 54.4903C434.589 52.3152 431.784 50.8087 425.307 52.2861C407.417 59.4417 421.15 86.4721 448.915 83.1938Z" fill="#418DFA"/>
<path d="M139.142 22.7363H84.0783C82.6582 22.7363 81.5071 24.1725 81.5071 25.944V76.3904C81.5071 78.1619 82.6582 79.5981 84.0783 79.5981H139.142C140.562 79.5981 141.714 78.1619 141.714 76.3904V25.944C141.714 24.1725 140.562 22.7363 139.142 22.7363Z" fill="#BABABA"/>
<path d="M318.822 26.0808H171.984C168.197 26.0808 165.127 26.3343 165.127 26.6469V35.5491C165.127 35.8618 168.197 36.1152 171.984 36.1152H318.822C322.608 36.1152 325.678 35.8618 325.678 35.5491V26.6469C325.678 26.3343 322.608 26.0808 318.822 26.0808Z" fill="#BABABA"/>
<path d="M318.822 46.1499H171.984C168.197 46.1499 165.127 46.4034 165.127 46.716V55.6182C165.127 55.9309 168.197 56.1843 171.984 56.1843H318.822C322.608 56.1843 325.678 55.9309 325.678 55.6182V46.716C325.678 46.4034 322.608 46.1499 318.822 46.1499Z" fill="#BABABA"/>
<path d="M315.62 66.2185H171.841C168.133 66.2185 165.127 66.472 165.127 66.7846V75.6868C165.127 75.9995 168.133 76.2529 171.841 76.2529H315.62C319.328 76.2529 322.333 75.9995 322.333 75.6868V66.7846C322.333 66.472 319.328 66.2185 315.62 66.2185Z" fill="#BABABA"/>
<path d="M215.312 136.481C223.621 136.481 230.357 129.745 230.357 121.436C230.357 113.128 223.621 106.392 215.312 106.392C207.004 106.392 200.268 113.128 200.268 121.436C200.268 129.745 207.004 136.481 215.312 136.481Z" fill="#BABABA"/>
<path fill-rule="evenodd" clip-rule="evenodd" d="M227.929 129.77L203.593 131.098L214.573 146.696H217.034L227.929 129.77Z" fill="#BABABA"/>
<path d="M218.448 139.805H212.883C212.74 139.805 212.624 140.992 212.624 142.457V184.169C212.624 185.634 212.74 186.821 212.883 186.821H218.448C218.591 186.821 218.708 185.634 218.708 184.169V142.457C218.708 140.992 218.591 139.805 218.448 139.805Z" fill="#BABABA"/>
<path d="M167.532 119.736H75.7579C73.3912 119.736 71.4727 119.989 71.4727 120.302V129.204C71.4727 129.517 73.3912 129.77 75.7579 129.77H167.532C169.898 129.77 171.817 129.517 171.817 129.204V120.302C171.817 119.989 169.898 119.736 167.532 119.736Z" fill="#BABABA"/>
<path d="M168.103 133.115H88.5659C86.5148 133.115 84.8521 133.706 84.8521 134.436V155.208C84.8521 155.937 86.5148 156.529 88.5659 156.529H168.103C170.154 156.529 171.817 155.937 171.817 155.208V134.436C171.817 133.706 170.154 133.115 168.103 133.115Z" fill="#BABABA"/>
<path d="M334.772 136.46H242.998C240.632 136.46 238.713 136.713 238.713 137.026V145.928C238.713 146.241 240.632 146.494 242.998 146.494H334.772C337.139 146.494 339.057 146.241 339.057 145.928V137.026C339.057 136.713 337.139 136.46 334.772 136.46Z" fill="#BABABA"/>
<path d="M321.964 149.839H242.427C240.376 149.839 238.713 150.346 238.713 150.971V168.776C238.713 169.401 240.376 169.908 242.427 169.908H321.964C324.015 169.908 325.678 169.401 325.678 168.776V150.971C325.678 150.346 324.015 149.839 321.964 149.839Z" fill="#BABABA"/>
<path d="M335.982 169.543C346.373 169.968 360.422 188.822 359.673 193.82C359.673 193.82 355.402 204.523 344.656 194.362C344.656 194.362 336.769 198.89 329.367 196.827C329.367 196.827 323.74 198.74 324.648 195.205C324.648 195.205 323.007 194.088 323.642 191.829C324.277 189.57 329.061 178.297 334.925 177.072C334.925 177.072 334.081 175.586 330.681 176.139C327.304 176.693 320.134 179.777 317.591 179.137C317.615 179.139 323.135 169.009 335.982 169.543V169.543Z" fill="#FDBDB4"/>
<path fill-rule="evenodd" clip-rule="evenodd" d="M473.948 86.8376L452.369 82.9038C452.212 83.7959 452.128 84.2227 452.377 84.9575C453.37 87.8906 454.875 88.7923 456.58 90.2122C458.784 91.9361 460.074 91.8348 461.946 91.9823C466.647 92.0923 470.351 90.9588 471.487 91.8435C472.303 92.4787 472.599 92.6626 472.953 93.448C473.782 95.293 473.569 98.8284 471.846 100.279L466.592 104.704C466.728 107.499 464.985 112.213 468.763 114.08C470.133 113.708 471.82 113.055 473.238 112.533C479.8 110.115 486.446 107.908 490.21 103.322C493.975 98.7358 494.427 96.1071 493.764 89.1747L473.948 86.8376V86.8376Z" fill="#FF6600"/>
<path d="M431.186 103.239C431.404 103.309 431.626 103.208 431.727 103C431.833 102.776 431.732 102.502 431.507 102.396C430.669 102.007 428.1 100.789 428.076 99.5766C428.057 98.831 429.044 98.1664 429.857 97.7219C434.455 95.2899 435.748 87.1065 435.766 86.8887C435.778 86.6345 435.585 86.4348 435.331 86.4225C435.076 86.4098 434.877 86.6038 434.864 86.858C434.865 86.9098 433.563 94.7464 429.439 96.9342C427.889 97.745 427.158 98.629 427.175 99.5977C427.208 101.157 429.3 102.36 431.108 103.214C431.144 103.209 431.155 103.229 431.186 103.239V103.239Z" fill="#F59DAB"/>
<path d="M415.241 210.734C420.92 215.454 425.949 217.132 429.194 224.728" stroke="#3F4FC4" stroke-width="0.0762" stroke-miterlimit="22.9256"/>
<path fill-rule="evenodd" clip-rule="evenodd" d="M437.379 264.411L430.741 306.447L401.979 313.527C399.62 318.837 397.26 324.147 394.9 329.457C408.322 338.454 400.947 427.099 407.732 471.054C400.533 475.93 384.492 478.324 374.102 475.921L332.508 333.881C321.799 274.254 354.956 259.324 411.687 256.307C420.795 262.245 416.877 259.469 437.379 264.411Z" fill="#6699FF"/>
<path fill-rule="evenodd" clip-rule="evenodd" d="M435.448 266.847C434.36 272.925 429.007 303.035 428.37 303.635C424.269 307.502 392.674 302.838 394.798 336.057L421.37 336.336C428.1 335.842 483.121 335.623 485.95 336.761L485.211 340.26L484.246 341.947L483.483 342.927L482.572 343.766L481.529 344.471L480.635 345.124L481.529 344.471L482.572 343.766L483.483 342.927L484.246 341.947L485.211 340.26L485.95 336.761C494.115 335.685 506.442 336.402 515.062 336.403C518.146 336.403 540.645 337.498 542.641 335.383C544.226 333.702 567.073 206.767 570.673 187.195C572.858 175.309 578.304 153.51 554.28 149.093C544.049 148.244 477.384 147.459 467.791 150.789C460.837 153.205 455.969 159.276 454.538 167.763L435.448 266.847V266.847Z" fill="#AD6951"/>
<path d="M439.545 85.7778C439.369 85.4774 439.52 85.3005 439.915 85.2322C440.042 85.2061 443.087 84.5843 445.948 85.7437C447.655 86.4517 448.9 87.6338 449.653 89.2614C449.781 89.5561 449.613 89.8541 449.198 89.9136C448.217 89.9615 448.948 84.8984 440.195 85.8845C439.953 85.948 439.617 85.8845 439.545 85.7778V85.7778Z" fill="#CC6633"/>
<path d="M439.634 92.8366C440.409 92.8366 441.037 92.1262 441.037 91.2499C441.037 90.3735 440.409 89.6631 439.634 89.6631C438.858 89.6631 438.23 90.3735 438.23 91.2499C438.23 92.1262 438.858 92.8366 439.634 92.8366Z" fill="black"/>
<path d="M442.589 106.283C435.99 106.162 436.009 104.949 436.009 104.949C436.009 104.949 436.537 112.003 442.772 111.423C449.008 110.819 447.77 105.858 447.77 105.858L442.589 106.283Z" fill="white"/>
<path d="M470.196 96.9951L470.587 97.1125C470.902 96.0729 471.067 93.9406 469.432 93.3398L469.291 93.7235C470.988 94.3383 470.211 96.9636 470.196 96.9951V96.9951Z" fill="#9C9C9C"/>
<path fill-rule="evenodd" clip-rule="evenodd" d="M330.278 470.208C321.642 468.994 324.464 469.034 309.713 463.463C307.226 472.486 285.078 486.219 282.079 490.833C279.125 495.377 279.423 510.335 287.09 509.784C305.183 508.484 326.705 498.456 330.974 493.237C335.243 488.019 337.587 480.728 334.637 476.482L330.278 470.208Z" fill="#808080"/>
<path fill-rule="evenodd" clip-rule="evenodd" d="M451.513 122.4C451.061 120.722 450.471 119.431 449.411 118.279C453.928 118.463 459.33 116.989 463.847 115.514C459.736 117.809 455.624 120.104 451.513 122.4Z" fill="#F59DAB"/>
</svg>
