<svg width="143" height="227" viewBox="0 0 143 227" fill="none" xmlns="http://www.w3.org/2000/svg">
<path fill-rule="evenodd" clip-rule="evenodd" d="M113.311 117.541C105.555 124.905 97.4301 131.043 88.4467 137.18C88.5612 150.151 89.1663 162.631 89.2808 175.602C104.233 157.879 112.069 143.224 121.254 126.114C118.606 123.256 115.959 120.399 113.311 117.541Z" fill="white"/>
<path fill-rule="evenodd" clip-rule="evenodd" d="M116.507 113.166L132.372 101.972C135.831 97.1203 139.291 92.2684 142.75 87.4164C141.403 87.3795 136.498 87.2456 135.043 87.2057C134.619 87.7318 130.011 93.4492 127.494 96.571L114.404 112.403L116.507 113.166Z" fill="#464AD3"/>
<path d="M48.0363 179.431L47.6438 179.883L69.1505 198.575L69.5429 198.123L48.0363 179.431Z" fill="black"/>
<path d="M81.3983 49.918C81.6085 70.7137 59.9879 72.7512 59.9879 72.7512C59.9879 72.7512 55.2013 74.8049 48.3772 77.457C36.0388 82.2436 17.0217 88.9546 7.62637 88.8899C4.84495 88.8737 2.90446 88.2754 2.22529 86.8362C-2.01148 77.926 15.1458 63.2429 22.2126 26.0658C29.2792 -11.0949 61.2007 4.05717 61.2007 4.05717C73.5231 -1.58635 81.2043 29.1061 81.3983 49.918V49.918Z" fill="black" stroke="white" stroke-width="0.2"/>
<path d="M65.6155 60.6556C59.7778 60.9144 52.9052 70.1964 48.3774 77.4573C36.039 82.2439 17.0219 88.9549 7.62656 88.8902C12.3807 83.2142 23.3446 69.2264 24.4282 59.7501C25.8188 47.6058 42.2971 2.26243 61.2817 13.9864C61.2817 13.9864 63.5133 11.7871 65.8257 12.0782C68.1543 12.3531 71.9545 13.6306 72.6983 22.088C73.4422 30.5454 75.1239 39.0028 75.981 41.1212C76.8221 43.2234 75.2372 60.2353 65.6155 60.6556Z" fill="#121134"/>
<path d="M91.8771 194.632C89.2089 184.525 88.9178 163.729 89.2089 149.547C89.4999 135.365 88.659 114.44 86.3952 102.36C84.1475 90.2803 70.6608 78.8961 67.3135 77.4568C63.9661 76.0015 55.8645 67.156 55.8645 67.156L56.8186 84.6043C57.4494 84.4264 58.0638 84.184 58.6298 83.8443L58.9695 105.966L57.4818 105.675L45.4668 83.5046C45.5316 83.5207 46.1137 83.7473 47.0353 84.022L37.4621 66.7352C37.4621 66.7352 28.3094 71.8452 27.1451 72.8479C25.9969 73.8504 28.4732 79.0218 28.4732 79.0218C-32.9087 96.2333 28.3183 178.18 1.08439 226.617C33.99 224.278 65.6855 224.547 98.7335 224.548C98.7499 224.548 94.5454 204.738 91.8771 194.632Z" fill="white"/>
<path d="M113.561 117.54C113.561 117.54 115.926 109.83 121.174 107.248C126.418 104.651 124.907 97.0936 123.588 95.2511C123.588 95.2511 124.085 94.7552 125.557 95.8978C125.557 95.8978 125.304 93.5481 127.589 95.5338C127.589 95.5338 127.997 94.4918 129.396 96.3785C130.795 98.2652 131.6 101.601 131.6 101.601C131.6 101.601 132.81 100.833 132.717 99.2786C132.629 97.7392 132.157 96.0917 132.82 95.178C133.488 94.28 135.025 101.107 135.025 101.107L121.503 126.113C121.519 126.109 113.474 126.925 113.561 117.54Z" fill="#FABCA6"/>
<path d="M58.565 106.71L40.8902 95.035V88.3078L36.8636 93.4664L26.3525 75.3712C26.1908 75.0801 26.2878 74.7243 26.5627 74.5627C26.8538 74.401 27.2096 74.498 27.3712 74.7729L37.009 91.3642L42.0867 84.8797V94.4205L58.0475 104.964L63.4162 92.286L59.3574 86.2703L64.7909 86.2702L62.2197 74.2229C62.1549 73.8995 62.349 73.5921 62.6725 73.5276C62.9959 73.4628 63.3033 73.6569 63.3678 73.9804L66.2301 87.4508L61.5566 87.4506L64.7262 92.1563L58.565 106.71Z" fill="#79A1BC"/>
<path d="M65.5799 199.812C65.2727 199.812 64.9525 179.997 64.9202 179.673C64.8555 178.638 63.4972 154.091 64.9364 148.043C66.4888 141.494 67.556 134.75 63.6428 124.369C59.5514 113.55 57.7405 106.031 57.708 105.95C57.6271 105.627 57.8212 105.319 58.1447 105.239C58.468 105.158 58.7755 105.352 58.8561 105.675C58.8723 105.756 60.6673 113.195 64.7423 123.949C68.7851 134.637 67.6855 141.575 66.0845 148.302C64.6939 154.188 66.0845 179.35 66.1007 179.593C66.1168 179.916 66.8561 216.529 66.5164 216.546C66.5325 216.562 65.5961 199.812 65.5799 199.812Z" fill="#79A1BC"/>
<path d="M82.3525 224.677C82.0291 224.677 81.7703 224.418 81.7542 224.095C81.7542 223.578 81.172 172.655 81.4631 161.643L81.4792 161.142C81.6894 153.153 81.6894 153.153 83.1125 148.69C83.5653 147.283 84.1798 145.359 84.9884 142.577C87.8183 132.859 84.471 127.943 81.2368 123.172C80.7355 122.428 80.2504 121.717 79.7975 120.989C76.3208 115.459 79.6035 106.629 79.749 106.258C79.8621 105.95 80.2018 105.805 80.509 105.918C80.8162 106.031 80.9618 106.371 80.8487 106.678C80.8164 106.759 77.6307 115.329 80.8001 120.342C81.2529 121.054 81.7219 121.749 82.2231 122.477C85.4574 127.231 89.1282 132.632 86.1366 142.885C85.3118 145.698 84.6974 147.623 84.2445 149.029C82.87 153.315 82.87 153.315 82.6598 161.142L82.6437 161.643C82.3526 172.623 82.9348 223.529 82.9348 224.046C82.9507 224.402 82.6921 224.677 82.3525 224.677C82.3525 224.677 82.3686 224.677 82.3525 224.677Z" fill="#79A1BC"/>
<path d="M49.3314 114.553L37.4943 114.634L36.9445 111.416L48.7654 111.319L49.3314 114.553Z" fill="#464AD3"/>
<path d="M72.1809 51.4381C69.8362 63.6472 55.9614 61.4479 55.3308 61.3347H55.3147L55.8645 67.14L56.3983 72.6704L57.8375 103.525L37.4621 66.7195C39.8554 46.0046 35.2467 39.536 35.2467 39.536C29.4736 39.2934 25.6088 31.0786 29.0533 28.0548C32.4977 25.047 36.6859 30.8523 36.6859 30.8523C36.6859 30.8523 44.2539 23.5917 49.9461 16.9616C55.6221 10.3315 61.8318 15.5871 61.8318 15.5871C70.2406 8.37486 71.5505 28.249 71.5505 28.249C71.5505 28.249 74.5903 38.938 72.1809 51.4381Z" fill="#FABCA6"/>
<path d="M55.8645 67.1401C55.8645 67.1401 41.9899 61.9815 41.4886 50.4679C41.4886 50.4679 44.5289 58.0844 55.3148 61.3509L55.8645 67.1401Z" fill="#FFA892"/>
<path d="M58.4519 104.592L57.1258 104.366L45.1108 83.489C45.1756 83.5052 46.1134 83.7317 47.0352 84.0064L57.8373 103.525L56.9479 84.5077C57.5787 84.3298 58.0475 84.1357 58.6135 83.8124L58.4519 104.592Z" fill="white"/>
<path d="M57.8534 103.541L47.0513 84.0227C49.2667 84.6696 53.5358 85.5103 56.9641 84.5401L57.8534 103.541Z" fill="#464AD3"/>
<path d="M55.4764 39.7302C56.298 39.7302 56.9641 38.9773 56.9641 38.0485C56.9641 37.1197 56.298 36.3668 55.4764 36.3668C54.6548 36.3668 53.9888 37.1197 53.9888 38.0485C53.9888 38.9773 54.6548 39.7302 55.4764 39.7302Z" fill="#070455"/>
<path d="M68.7203 38.5984C69.3901 38.5984 69.933 37.8454 69.933 36.9167C69.933 35.9879 69.3901 35.235 68.7203 35.235C68.0505 35.235 67.5076 35.9879 67.5076 36.9167C67.5076 37.8454 68.0505 38.5984 68.7203 38.5984Z" fill="#070455"/>
<path d="M51.8218 30.3026C51.6925 30.3026 51.563 30.254 51.4499 30.1733C51.1911 29.9631 51.1427 29.5912 51.3528 29.3485C51.4176 29.2676 52.9861 27.311 55.3308 27.1492C56.7378 27.0684 58.0961 27.6505 59.3735 28.8795C59.5999 29.1059 59.6162 29.4778 59.3897 29.7205C59.1634 29.9468 58.7914 29.9631 58.5487 29.7366C57.5299 28.7341 56.4788 28.2651 55.4115 28.3297C53.6003 28.4428 52.3068 30.06 52.2906 30.0761C52.1775 30.2381 51.9997 30.3026 51.8218 30.3026Z" fill="black"/>
<path d="M65.6155 30.3187C65.5185 30.3187 65.4376 30.3026 65.3406 30.254C65.0495 30.1084 64.9364 29.7527 65.0818 29.4617C65.1304 29.3485 66.4887 26.7289 68.6717 26.4215C69.8198 26.2597 70.9357 26.7448 71.9866 27.8768C72.213 28.1195 72.1968 28.4912 71.9544 28.7177C71.7117 28.9441 71.3399 28.9279 71.1134 28.6855C70.3372 27.8607 69.5772 27.4889 68.8333 27.5859C67.2647 27.8122 66.1489 29.9631 66.1327 29.9792C66.0359 30.1894 65.8257 30.3187 65.6155 30.3187Z" fill="black"/>
<path d="M62.8018 46.7647C62.5755 46.7647 62.3976 46.603 62.3651 46.3766C62.3328 46.134 62.5107 45.9077 62.7532 45.8754C63.6587 45.7622 66.4401 45.3903 66.8282 44.2583C67.0709 43.5629 66.3431 42.6411 65.7123 41.9781C62.1225 38.3073 63.5454 33.2619 63.594 33.0517C63.6587 32.8091 63.9012 32.6798 64.1438 32.7445C64.3865 32.8092 64.5158 33.0517 64.451 33.2944C64.4349 33.343 63.125 38.0649 66.3431 41.3637C67.556 42.5927 67.9764 43.6438 67.6692 44.5493C67.1679 46.0047 64.8393 46.5059 62.8825 46.7647C62.8503 46.7486 62.8341 46.7647 62.8018 46.7647Z" fill="#FFA892"/>
<path d="M62.252 49.5946C57.8373 49.5138 55.3955 48.9478 55.3955 48.9478C55.3955 48.9478 58.0799 53.9123 62.252 53.5242C66.424 53.12 67.3135 49.4329 67.3135 49.4329L62.252 49.5946Z" fill="white"/>
<path d="M53.6975 43.7893C53.6328 43.7893 53.5682 43.7893 53.5035 43.7893C45.887 43.6761 43.6391 36.4962 43.623 36.4153L43.5744 36.2535L43.6391 36.1079C43.6714 36.027 44.5124 34.1674 47.7141 33.9895C50.6896 33.8277 57.7562 33.9086 58.678 33.9895C59.7776 34.0865 61.8798 34.9113 61.799 36.3828C61.7667 36.8518 61.799 37.159 61.8151 37.4501C61.8474 37.8382 61.8798 38.2263 61.799 38.8893C61.6214 40.2317 59.3735 43.7893 53.6975 43.7893ZM53.5196 42.8998C59.1309 42.9807 60.8289 39.4553 60.9098 38.7923C60.9907 38.2263 60.9584 37.9029 60.9259 37.5471C60.8936 37.2399 60.8773 36.8841 60.9098 36.3506C60.9584 35.6391 59.4221 34.9761 58.5974 34.8952C57.6919 34.8143 50.7059 34.7334 47.7628 34.8952C45.5958 35.0084 44.7712 35.9786 44.5285 36.3344C44.9006 37.4017 47.1161 42.8027 53.5196 42.8998Z" fill="#070455"/>
<path d="M70.4022 42.6734C68.7689 42.6734 67.3136 41.8972 66.1815 40.4094C64.8716 38.6791 64.2572 36.2373 64.6453 35.3641C64.7262 35.0731 65.0981 33.8765 66.424 33.4559C67.362 33.1649 75.6576 31.9197 76.5147 32.3078C77.3718 32.6959 77.582 34.2483 77.3556 35.1053C77.3395 35.1862 77.3234 35.3155 77.2909 35.4934C77.0807 36.9649 76.4177 41.4282 71.6633 42.5278C71.2268 42.6248 70.8064 42.6734 70.4022 42.6734ZM75.9003 33.1001C74.4449 33.1001 67.8471 33.9411 66.6828 34.313C65.7126 34.6202 65.5024 35.5743 65.5024 35.6066L65.4538 35.7359C65.2759 36.0756 65.5831 38.1776 66.893 39.8918C67.7339 40.9913 69.2054 42.1881 71.437 41.6705C75.609 40.7003 76.175 36.8193 76.3852 35.3638C76.4175 35.1374 76.45 34.9757 76.4661 34.8786C76.644 34.2479 76.4013 33.2454 76.1264 33.1161C76.0943 33.1164 76.0134 33.1001 75.9003 33.1001Z" fill="#070455"/>
<path d="M65.0495 36.0756H61.3463V36.6738H65.0495V36.0756Z" fill="black"/>
<path d="M36.3344 29.0687L35.7542 29.7428L43.7585 36.6309L44.3386 35.9567L36.3344 29.0687Z" fill="#070455"/>
<mask id="path-26-outside-1" maskUnits="userSpaceOnUse" x="12.8677" y="109.589" width="112" height="91" fill="black">
<rect fill="white" x="12.8677" y="109.589" width="112" height="91"/>
<path fill-rule="evenodd" clip-rule="evenodd" d="M24.7098 110.589C25 111 56.3949 153.54 64.2613 163.849C74.2924 142.769 92.9134 136.414 113.498 117.543C113.2 125.554 119.364 126.145 121.44 126.116C108.047 150.855 96.1256 170.441 69.4792 198.126C48.1668 180.017 35.6893 179.088 14.8677 154.107"/>
</mask>
<path d="M64.2613 163.849L63.0688 164.759L64.5597 166.713L65.6157 164.493L64.2613 163.849ZM113.498 117.543L114.997 117.599L115.13 114.012L112.484 116.437L113.498 117.543ZM121.44 126.116L122.76 126.83L123.978 124.58L121.419 124.616L121.44 126.116ZM69.4792 198.126L68.508 199.269L69.5823 200.181L70.56 199.166L69.4792 198.126ZM23.4844 111.454C23.7896 111.886 55.1968 154.442 63.0688 164.759L65.4538 162.939C61.5287 157.795 51.7211 144.593 42.8499 132.614C38.4162 126.628 34.2192 120.95 31.1126 116.743C29.5592 114.64 28.2785 112.905 27.3772 111.682C26.9265 111.071 26.5709 110.589 26.3234 110.252C26.1997 110.084 26.1033 109.953 26.0357 109.861C25.9616 109.76 25.9339 109.722 25.9352 109.724L23.4844 111.454ZM65.6157 164.493C70.4866 154.257 77.442 147.571 85.8417 141.053C94.192 134.572 104.165 128.134 114.511 118.649L112.484 116.437C102.246 125.823 92.6164 131.998 84.0024 138.683C75.4377 145.329 68.0671 152.36 62.9068 163.204L65.6157 164.493ZM111.999 117.487C111.833 121.949 113.499 124.633 115.762 126.103C117.896 127.489 120.315 127.632 121.462 127.616L121.419 124.616C120.49 124.629 118.789 124.492 117.396 123.587C116.132 122.766 114.865 121.149 114.997 117.599L111.999 117.487ZM120.121 125.402C106.769 150.065 94.9225 169.528 68.3985 197.085L70.56 199.166C97.3287 171.354 109.325 151.646 122.76 126.83L120.121 125.402ZM70.4505 196.982C59.7074 187.854 51.1229 183.007 42.8243 177.447C34.5333 171.892 26.3225 165.507 16.02 153.147L13.7155 155.068C24.2346 167.688 32.6733 174.257 41.1545 179.939C49.6282 185.617 57.9387 190.288 68.508 199.269L70.4505 196.982Z" fill="#79A1BC" mask="url(#path-26-outside-1)"/>
<path fill-rule="evenodd" clip-rule="evenodd" d="M83.3412 182.729L86.94 140.012L87.0669 138.507L85.042 140.06L78.805 146.947L65.486 161.895L64.364 164.135L64.3427 164.177L64.3301 164.159L64.2694 164.323L65.2671 194.343L66.4145 195.275L76.9638 186.675L81.3933 184.98L83.3412 182.729Z" fill="white"/>
</svg>
