<svg width="153" height="241" viewBox="0 0 153 241" fill="none" xmlns="http://www.w3.org/2000/svg">
<path fill-rule="evenodd" clip-rule="evenodd" d="M120.844 124.289C112.572 132.143 103.908 138.688 94.327 145.234C94.4491 159.067 95.0945 172.377 95.2166 186.211C111.163 167.309 119.52 151.679 129.315 133.432C126.492 130.385 123.668 127.337 120.844 124.289V124.289Z" fill="white"/>
<path fill-rule="evenodd" clip-rule="evenodd" d="M124.253 119.623L141.173 107.686C144.862 102.511 148.551 97.3363 152.24 92.1618C150.804 92.1224 145.573 91.9795 144.021 91.937C143.569 92.4981 138.654 98.5956 135.97 101.925L122.01 118.81L124.253 119.623V119.623Z" fill="#464AD3"/>
<path d="M51.23 190.294L50.8114 190.776L73.7479 210.71L74.1664 210.229L51.23 190.294Z" fill="black"/>
<path d="M86.81 52.1702C87.0342 74.3486 63.9762 76.5216 63.9762 76.5216C63.9762 76.5216 58.8713 78.7117 51.5935 81.5402C38.4348 86.6451 18.1534 93.8022 8.1334 93.7332C5.16707 93.716 3.09756 93.0779 2.37324 91.543C-2.14521 82.0403 16.1528 66.3811 23.6894 26.7323C31.2258 -12.899 65.2695 3.26043 65.2695 3.26043C78.4112 -2.75831 86.6031 29.9747 86.81 52.1702V52.1702Z" fill="#1A117D"/>
<path d="M69.9779 63.6218C63.7521 63.8978 56.4226 73.7969 51.5937 81.5405C38.435 86.6454 18.1536 93.8025 8.13361 93.7335C13.2039 87.6801 24.8967 72.7624 26.0523 62.6561C27.5354 49.7044 45.1092 1.34634 65.356 13.8497C65.356 13.8497 67.7359 11.5043 70.2021 11.8147C72.6855 12.1079 76.7384 13.4703 77.5316 22.49C78.3249 31.5097 80.1184 40.5294 81.0325 42.7886C81.9295 45.0306 80.2393 63.1735 69.9779 63.6218V63.6218Z" fill="#070455"/>
<path d="M97.9855 206.505C95.1399 195.726 94.8294 173.548 95.1398 158.423C95.4503 143.298 94.5534 120.982 92.1391 108.099C89.742 95.2161 75.3586 83.0749 71.7888 81.54C68.2189 79.9879 59.5786 70.5543 59.5786 70.5543L60.5962 89.1627C61.2689 88.973 61.9241 88.7144 62.5278 88.3521L62.89 111.945L61.3035 111.634L48.4897 87.9899C48.5587 88.0071 49.1795 88.2487 50.1625 88.5417L39.9527 70.1056C39.9527 70.1056 30.1915 75.5553 28.9498 76.6247C27.7253 77.6939 30.3662 83.2091 30.3662 83.2091C-35.0966 101.565 30.201 188.96 1.15649 240.617C36.2498 238.122 70.0525 238.41 105.298 238.41C105.315 238.41 100.831 217.284 97.9855 206.505V206.505Z" fill="white"/>
<path d="M121.111 124.288C121.111 124.288 123.633 116.065 129.23 113.312C134.823 110.542 133.212 102.482 131.805 100.517C131.805 100.517 132.335 99.9885 133.905 101.207C133.905 101.207 133.635 98.7011 136.072 100.819C136.072 100.819 136.507 99.7076 137.999 101.72C139.491 103.732 140.349 107.289 140.349 107.289C140.349 107.289 141.639 106.471 141.541 104.813C141.447 103.171 140.943 101.414 141.65 100.439C142.363 99.4816 144.002 106.762 144.002 106.762L129.581 133.431C129.598 133.426 121.018 134.297 121.111 124.288V124.288Z" fill="#FEB7C5"/>
<path d="M62.4587 112.738L43.6087 100.287V93.1125L39.3144 98.6141L28.1046 79.3158C27.9321 79.0053 28.0355 78.6259 28.3287 78.4535C28.6392 78.281 29.0186 78.3845 29.1909 78.6777L39.4696 96.372L44.8849 89.4565V99.6316L61.9067 110.876L67.6324 97.3551L63.3037 90.9395L69.0985 90.9393L66.3563 78.0911C66.2873 77.7462 66.4942 77.4184 66.8393 77.3495C67.1841 77.2805 67.5119 77.4874 67.5808 77.8325L70.6334 92.1984L65.6492 92.1982L69.0294 97.2168L62.4587 112.738V112.738Z" fill="#79A1BC"/>
<path d="M69.94 212.03C69.6123 212.03 69.2708 190.897 69.2364 190.552C69.1674 189.449 67.7187 163.269 69.2536 156.819C70.9092 149.834 72.0474 142.643 67.874 131.571C63.5107 120.033 61.5793 112.014 61.5447 111.928C61.4584 111.583 61.6654 111.255 62.0104 111.169C62.3553 111.083 62.6831 111.29 62.7692 111.635C62.7864 111.721 64.7008 119.654 69.0467 131.123C73.3582 142.522 72.1855 149.921 70.4781 157.095C68.995 163.373 70.4781 190.208 70.4953 190.466C70.5125 190.811 71.301 229.859 70.9387 229.876C70.9559 229.893 69.9572 212.03 69.94 212.03V212.03Z" fill="#79A1BC"/>
<path d="M87.8276 238.548C87.4828 238.548 87.2068 238.272 87.1895 237.927C87.1895 237.376 86.5687 183.068 86.8791 171.323L86.8963 170.789C87.1205 162.269 87.1205 162.269 88.6382 157.509C89.1211 156.009 89.7764 153.957 90.6388 150.99C93.6568 140.625 90.087 135.383 86.6377 130.295C86.1031 129.502 85.5858 128.743 85.1028 127.967C81.395 122.069 84.8959 112.652 85.051 112.256C85.1717 111.928 85.5339 111.773 85.8616 111.893C86.1892 112.014 86.3445 112.376 86.2238 112.704C86.1894 112.79 82.792 121.931 86.172 127.277C86.6549 128.035 87.1551 128.777 87.6897 129.553C91.139 134.623 95.0538 140.384 91.8633 151.318C90.9837 154.318 90.3284 156.371 89.8455 157.871C88.3796 162.441 88.3796 162.441 88.1554 170.788L88.1382 171.323C87.8278 183.033 88.4486 237.324 88.4486 237.876C88.4657 238.255 88.1899 238.548 87.8276 238.548C87.8448 238.548 87.8276 238.548 87.8276 238.548V238.548Z" fill="#79A1BC"/>
<path d="M52.6112 121.103L39.9871 121.189L39.4007 117.757L52.0076 117.654L52.6112 121.103Z" fill="#464AD3"/>
<path d="M76.9798 53.7914C74.4792 66.8122 59.6819 64.4667 59.0094 64.346H58.9922L59.5786 70.5373L60.1479 76.4353L61.6828 109.341L39.9527 70.0887C42.5052 47.9966 37.59 41.0981 37.59 41.0981C31.4332 40.8393 27.3114 32.0784 30.9849 28.8534C34.6583 25.6457 39.1249 31.837 39.1249 31.837C39.1249 31.837 47.1961 24.0936 53.2667 17.0227C59.3201 9.95182 65.9426 15.5569 65.9426 15.5569C74.9105 7.86513 76.3075 29.0606 76.3075 29.0606C76.3075 29.0606 79.5494 40.4602 76.9798 53.7914V53.7914Z" fill="#FEB7C5"/>
<path d="M59.5786 70.5373C59.5786 70.5373 44.7816 65.0358 44.247 52.7567C44.247 52.7567 47.4893 60.8796 58.9924 64.3633L59.5786 70.5373V70.5373Z" fill="#F59DAB"/>
<path d="M62.338 110.479L60.9238 110.238L48.11 87.9733C48.179 87.9905 49.1792 88.2321 50.1623 88.5251L61.6826 109.341L60.7341 89.0597C61.4068 88.8699 61.9067 88.663 62.5104 88.3181L62.338 110.479V110.479Z" fill="white"/>
<path d="M61.6998 109.358L50.1795 88.5424C52.5422 89.2323 57.0951 90.1289 60.7513 89.0942L61.6998 109.358Z" fill="#464AD3"/>
<path d="M59.1647 41.3051C60.041 41.3051 60.7513 40.5021 60.7513 39.5116C60.7513 38.5211 60.041 37.7181 59.1647 37.7181C58.2885 37.7181 57.5782 38.5211 57.5782 39.5116C57.5782 40.5021 58.2885 41.3051 59.1647 41.3051Z" fill="#070455"/>
<path d="M73.2891 40.0981C74.0034 40.0981 74.5825 39.2951 74.5825 38.3046C74.5825 37.3141 74.0034 36.5111 73.2891 36.5111C72.5748 36.5111 71.9958 37.3141 71.9958 38.3046C71.9958 39.2951 72.5748 40.0981 73.2891 40.0981Z" fill="#070455"/>
<path d="M55.2672 31.2508C55.1293 31.2508 54.9912 31.199 54.8705 31.1129C54.5945 30.8887 54.5428 30.492 54.767 30.2333C54.8361 30.147 56.5089 28.0603 59.0095 27.8878C60.5099 27.8015 61.9586 28.4224 63.321 29.7331C63.5623 29.9745 63.5797 30.3712 63.3382 30.63C63.0968 30.8713 62.7001 30.8887 62.4413 30.6472C61.3547 29.578 60.2337 29.0778 59.0955 29.1467C57.1639 29.2674 55.7843 30.992 55.7671 31.0092C55.6464 31.1819 55.4569 31.2508 55.2672 31.2508V31.2508Z" fill="black"/>
<path d="M69.9779 31.268C69.8745 31.268 69.7882 31.2508 69.6847 31.1989C69.3743 31.0436 69.2536 30.6643 69.4087 30.3539C69.4606 30.2332 70.9092 27.4394 73.2373 27.1116C74.4618 26.9391 75.6518 27.4564 76.7726 28.6637C77.014 28.9225 76.9968 29.319 76.7382 29.5605C76.4794 29.8019 76.0829 29.7847 75.8414 29.5261C75.0136 28.6465 74.203 28.25 73.4096 28.3535C71.7368 28.5948 70.5467 30.8887 70.5295 30.9059C70.4262 31.1301 70.2021 31.268 69.9779 31.268V31.268Z" fill="black"/>
<path d="M66.9772 48.8073C66.7358 48.8073 66.546 48.6348 66.5114 48.3934C66.477 48.1347 66.6667 47.8933 66.9253 47.8589C67.891 47.7382 70.8574 47.3415 71.2713 46.1342C71.53 45.3927 70.7539 44.4096 70.0812 43.7025C66.2526 39.7877 67.7701 34.4068 67.822 34.1826C67.891 33.9238 68.1496 33.7859 68.4084 33.855C68.6672 33.924 68.8051 34.1826 68.736 34.4414C68.7188 34.4932 67.3218 39.5291 70.7539 43.0472C72.0474 44.3579 72.4957 45.4789 72.1681 46.4446C71.6335 47.9968 69.1501 48.5313 67.0632 48.8073C67.0288 48.7901 67.0116 48.8073 66.9772 48.8073V48.8073Z" fill="#F59DAB"/>
<path d="M66.3907 51.8254C61.6826 51.7391 59.0785 51.1355 59.0785 51.1355C59.0785 51.1355 61.9413 56.4301 66.3907 56.0162C70.8402 55.5851 71.7888 51.6529 71.7888 51.6529L66.3907 51.8254Z" fill="white"/>
<path d="M57.2676 45.6342C57.1985 45.6342 57.1297 45.6342 57.0606 45.6342C48.9378 45.5135 46.5405 37.8562 46.5232 37.7699L46.4714 37.5974L46.5405 37.4421C46.5749 37.3558 47.4717 35.3726 50.8864 35.1829C54.0597 35.0103 61.5961 35.0966 62.5792 35.1829C63.7519 35.2863 65.9939 36.166 65.9076 37.7353C65.8732 38.2355 65.9076 38.5631 65.9248 38.8735C65.9593 39.2874 65.9939 39.7013 65.9076 40.4084C65.7183 41.8401 63.3209 45.6342 57.2676 45.6342V45.6342ZM57.0779 44.6855C63.0622 44.7718 64.8731 41.0121 64.9593 40.3049C65.0456 39.7013 65.0112 39.3565 64.9765 38.977C64.9421 38.6494 64.9247 38.2699 64.9593 37.7009C65.0112 36.9421 63.3728 36.235 62.4932 36.1488C61.5275 36.0625 54.0771 35.9762 50.9382 36.1488C48.6272 36.2694 47.7477 37.3042 47.489 37.6837C47.8858 38.8219 50.2485 44.582 57.0779 44.6855Z" fill="#070455"/>
<path d="M75.0828 44.444C73.341 44.444 71.7888 43.6162 70.5816 42.0295C69.1846 40.1842 68.5293 37.5801 68.9432 36.6488C69.0295 36.3384 69.4262 35.0623 70.8402 34.6137C71.8405 34.3033 80.6877 32.9754 81.6017 33.3893C82.5158 33.8032 82.7399 35.4588 82.4986 36.3728C82.4814 36.4591 82.4642 36.597 82.4295 36.7867C82.2054 38.356 81.4982 43.1161 76.4278 44.2887C75.9623 44.3922 75.5139 44.444 75.0828 44.444V44.444ZM80.9465 34.2343C79.3943 34.2343 72.3579 35.1311 71.1162 35.5278C70.0814 35.8554 69.8573 36.873 69.8573 36.9074L69.8054 37.0453C69.6157 37.4076 69.9433 39.6494 71.3403 41.4775C72.2372 42.6501 73.8065 43.9264 76.1864 43.3745C80.6358 42.3397 81.2395 38.2007 81.4636 36.6484C81.4981 36.407 81.5327 36.2345 81.5499 36.131C81.7396 35.4584 81.4808 34.3892 81.1876 34.2513C81.1534 34.2517 81.0671 34.2343 80.9465 34.2343V34.2343Z" fill="#070455"/>
<path d="M69.3743 37.4076H65.4249V38.0457H69.3743V37.4076Z" fill="black"/>
<path d="M38.75 29.9347L38.1313 30.6537L46.6677 37.9997L47.2864 37.2807L38.75 29.9347Z" fill="#070455"/>
<path d="M26.3526 116.875C38.821 128.051 60.1443 162.681 68.5336 173.676C79.2317 151.194 99.0907 144.417 121.043 124.291C120.726 132.835 127.299 133.466 129.514 133.434C115.23 159.819 102.516 180.706 74.0985 210.231C51.3691 190.919 38.0621 189.928 15.8562 163.287" stroke="#464AD3" stroke-width="0.2" stroke-miterlimit="22.9256"/>
<path fill-rule="evenodd" clip-rule="evenodd" d="M88.8821 193.811L92.7202 148.254L92.8555 146.649L90.696 148.305L84.0443 155.65L69.8398 171.592L68.6432 173.98L68.6205 174.026L68.607 174.007L68.5424 174.182L69.6064 206.197L70.8301 207.191L82.0807 198.019L86.8047 196.211L88.8821 193.811Z" fill="white"/>
</svg>
