<svg width="698" height="443" viewBox="0 0 698 443" fill="none" xmlns="http://www.w3.org/2000/svg">
<path d="M116.136 320.91L115.526 321.611L148.905 350.629L149.514 349.928L116.136 320.91Z" fill="black"/>
<path d="M167.915 119.849C168.242 152.133 134.686 155.296 134.686 155.296C134.686 155.296 127.258 158.485 116.666 162.602C97.517 170.033 68.0024 180.451 53.4207 180.351C49.104 180.325 46.0923 179.397 45.0382 177.162C38.4626 163.33 65.0911 140.535 76.0587 82.8201C87.0263 25.1303 136.569 48.6531 136.569 48.6531C155.693 39.8917 167.614 87.5398 167.915 119.849Z" fill="#1A117D"/>
<path d="M143.42 136.518C134.36 136.92 123.694 151.33 116.666 162.602C97.517 170.033 68.0023 180.451 53.4207 180.351C60.7993 171.539 77.8154 149.824 79.497 135.113C81.6553 116.259 107.23 45.8666 136.694 64.0672C136.694 64.0672 140.158 60.653 143.747 61.1049C147.361 61.5317 153.258 63.5149 154.413 76.6445C155.567 89.7741 158.178 102.904 159.508 106.192C160.813 109.456 158.353 135.866 143.42 136.518Z" fill="#070455"/>
<path d="M184.179 344.508C180.037 328.818 179.586 296.534 180.037 274.517C180.489 252.501 179.184 220.016 175.671 201.263C172.182 182.51 151.251 164.836 146.055 162.602C140.86 160.342 128.286 146.61 128.286 146.61L129.767 173.698C130.746 173.422 131.7 173.045 132.578 172.518L133.105 206.861L130.796 206.409L112.149 171.991C112.249 172.016 113.153 172.367 114.583 172.794L99.7255 145.958C99.7255 145.958 85.5203 153.891 83.7133 155.447C81.9314 157.004 83.2365 158.886 83.2365 158.886C64.3882 160.016 44.6616 180.2 29.4023 205.781C14.1431 231.363 1.36844 281.873 0.0131721 312.6C-1.34209 343.353 102.336 379.93 102.336 379.93C98.9726 366.7 111.295 363.11 111.295 363.11L120.933 390.951H194.82C194.845 390.951 188.32 360.198 184.179 344.508ZM60.4228 311.27C54.2489 301.705 39.8178 298.944 39.8178 298.944L54.801 263.948C67.3497 290.132 60.4228 311.27 60.4228 311.27Z" fill="white"/>
<path d="M171.78 354.725L94.7311 442.214L32.3387 388.817L34.1458 386.784L111.321 300.299L170.099 353.219L171.78 354.725Z" fill="#2BC1C5"/>
<path d="M171.78 354.725L94.7311 442.214L32.3387 388.817L34.1458 386.784L94.5303 437.57L170.099 353.219L171.78 354.725Z" fill="#11829A"/>
<path d="M102.838 380.633C102.838 380.633 53.9979 362.056 49.2544 357.286C44.511 352.541 76.7362 328.517 76.7362 328.517" fill="white"/>
<path d="M74.7535 326.307L110.819 362.633C110.819 362.633 99.8008 364.34 102.612 378.826C105.423 393.311 102.612 378.826 102.612 378.826C102.612 378.826 58.6158 364.34 49.2293 357.286C39.868 350.232 74.7535 326.307 74.7535 326.307Z" fill="white"/>
<path d="M102.612 378.851C102.612 378.851 109.438 389.344 118.373 390.951C127.308 392.583 128.287 404.507 127.107 407.821C127.107 407.821 128.061 408.348 129.767 406.014C129.767 406.014 130.395 409.629 132.955 405.687C132.955 405.687 134.009 407.068 135.289 403.654C136.569 400.24 136.343 394.917 136.343 394.917C136.343 394.917 138.476 395.545 139.003 397.905C139.53 400.24 139.53 402.901 140.911 403.98C142.291 405.034 141.663 394.189 141.663 394.189L110.794 362.658C110.819 362.658 99.1985 363.286 102.612 378.851Z" fill="#FEB7C5"/>
<path d="M132.478 208.016L105.046 189.89V179.447L98.7969 187.455L82.4835 159.363C82.2326 158.911 82.3831 158.359 82.8098 158.108C83.2616 157.857 83.8137 158.008 84.0647 158.434L99.0228 184.192L106.903 174.125V188.936L131.675 205.304L140.007 185.622L133.708 176.284H142.14L138.15 157.581C138.049 157.079 138.351 156.602 138.853 156.501C139.354 156.401 139.831 156.702 139.932 157.204L144.374 178.116H137.121L142.04 185.422L132.478 208.016Z" fill="#79A1BC"/>
<path d="M143.27 322.165C142.793 322.165 142.391 321.789 142.341 321.286C142.241 319.68 140.132 281.571 142.366 272.182C144.776 262.015 146.432 251.547 140.358 235.43C134.009 218.635 131.198 206.961 131.148 206.836C131.022 206.334 131.323 205.857 131.825 205.731C132.327 205.606 132.804 205.907 132.93 206.409C132.955 206.534 135.74 218.082 142.065 234.777C148.339 251.371 146.633 262.141 144.148 272.584C141.99 281.722 144.148 320.784 144.173 321.161C144.198 321.663 143.822 322.115 143.295 322.14C143.32 322.165 143.295 322.165 143.27 322.165Z" fill="#79A1BC"/>
<path d="M169.396 391.152C168.894 391.152 168.493 390.75 168.467 390.248C168.467 389.445 167.564 310.391 168.016 293.295L168.041 292.517C168.367 280.115 168.367 280.115 170.576 273.186C171.278 271.002 172.232 268.015 173.487 263.697C177.879 248.609 172.684 240.978 167.664 233.572C166.886 232.417 166.133 231.312 165.431 230.183C160.035 221.597 165.129 207.89 165.355 207.313C165.531 206.836 166.058 206.61 166.535 206.785C167.012 206.961 167.238 207.488 167.062 207.965C167.012 208.091 162.068 221.396 166.987 229.179C167.689 230.283 168.417 231.363 169.195 232.492C174.215 239.873 179.912 248.258 175.269 264.174C173.989 268.542 173.035 271.53 172.332 273.714C170.199 280.366 170.199 280.366 169.873 292.517L169.848 293.295C169.396 310.341 170.3 389.369 170.3 390.173C170.325 390.725 169.923 391.152 169.396 391.152C169.421 391.152 169.396 391.152 169.396 391.152Z" fill="#79A1BC"/>
<path d="M111.321 364.039C111.095 364.039 110.844 363.939 110.668 363.763L60.5735 313.655C60.2221 313.303 60.2221 312.701 60.5735 312.349C60.9248 311.998 61.5272 311.998 61.8785 312.349L111.973 362.458C112.324 362.809 112.324 363.412 111.973 363.763C111.772 363.939 111.546 364.039 111.321 364.039Z" fill="#79A1BC"/>
<path d="M54.801 264.877C54.6755 264.877 54.55 264.852 54.4496 264.802C53.9728 264.601 53.772 264.074 53.9728 263.597L73.8249 216.626C74.0257 216.149 74.5527 215.949 75.0296 216.149C75.5064 216.35 75.7072 216.877 75.5064 217.354L55.6543 264.325C55.5037 264.651 55.1523 264.877 54.801 264.877Z" fill="#79A1BC"/>
<path d="M118.147 220.191L99.7757 220.317L98.9224 215.321L117.269 215.17L118.147 220.191Z" fill="#4C90D1"/>
<path d="M153.61 122.209C149.971 141.163 128.437 137.749 127.458 137.573H127.433L128.286 146.585L129.115 155.171L131.348 203.07L99.7255 145.933C103.44 113.774 96.2871 103.732 96.2871 103.732C87.3273 103.356 81.329 90.6025 86.6748 85.908C92.0206 81.2386 98.5208 90.2511 98.5208 90.2511C98.5208 90.2511 110.266 78.9792 119.101 68.6864C127.91 58.3936 137.547 66.5526 137.547 66.5526C150.598 55.356 152.631 86.2093 152.631 86.2093C152.631 86.2093 157.349 102.803 153.61 122.209Z" fill="#FEB7C5"/>
<path d="M128.286 146.585C128.286 146.585 106.753 138.577 105.975 120.703C105.975 120.703 110.693 132.527 127.433 137.598L128.286 146.585Z" fill="#F59DAB"/>
<path d="M132.302 204.727L130.244 204.376L111.597 171.966C111.697 171.991 113.153 172.342 114.583 172.769L131.348 203.07L129.968 173.547C130.947 173.271 131.675 172.97 132.553 172.468L132.302 204.727Z" fill="white"/>
<path d="M131.373 203.095L114.608 172.794C118.047 173.798 124.672 175.104 129.993 173.598L131.373 203.095Z" fill="#1994B5"/>
<path d="M127.684 104.033C128.959 104.033 129.993 102.864 129.993 101.423C129.993 99.9806 128.959 98.8116 127.684 98.8116C126.409 98.8116 125.375 99.9806 125.375 101.423C125.375 102.864 126.409 104.033 127.684 104.033Z" fill="#070455"/>
<path d="M148.239 102.276C149.279 102.276 150.121 101.107 150.121 99.6652C150.121 98.2232 149.279 97.0543 148.239 97.0543C147.199 97.0543 146.357 98.2232 146.357 99.6652C146.357 101.107 147.199 102.276 148.239 102.276Z" fill="#070455"/>
<path d="M122.012 89.3974C121.811 89.3974 121.611 89.3221 121.435 89.1966C121.033 88.8702 120.958 88.2928 121.284 87.9163C121.385 87.7908 123.819 84.7531 127.458 84.5021C129.642 84.3766 131.75 85.2803 133.733 87.1883C134.084 87.5397 134.109 88.1171 133.758 88.4937C133.406 88.8451 132.829 88.8702 132.453 88.5188C130.871 86.9623 129.24 86.2343 127.584 86.3347C124.773 86.5104 122.765 89.0209 122.74 89.046C122.564 89.297 122.288 89.3974 122.012 89.3974Z" fill="black"/>
<path d="M143.42 89.4225C143.27 89.4225 143.144 89.3974 142.994 89.3221C142.542 89.0962 142.366 88.5439 142.592 88.092C142.667 87.9163 144.776 83.8494 148.164 83.3724C149.946 83.1213 151.677 83.8745 153.309 85.6318C153.66 86.0083 153.635 86.5857 153.259 86.9372C152.882 87.2887 152.305 87.2636 151.953 86.887C150.749 85.6067 149.569 85.0293 148.415 85.1799C145.98 85.5314 144.248 88.8702 144.223 88.8953C144.073 89.2217 143.747 89.4225 143.42 89.4225Z" fill="black"/>
<path d="M139.053 114.954C138.702 114.954 138.426 114.703 138.376 114.351C138.326 113.975 138.602 113.623 138.978 113.573C140.384 113.397 144.7 112.82 145.303 111.063C145.679 109.983 144.55 108.552 143.571 107.523C137.999 101.824 140.208 93.9917 140.283 93.6653C140.383 93.2887 140.76 93.0879 141.136 93.1883C141.513 93.2887 141.714 93.6653 141.613 94.0419C141.588 94.1172 139.555 101.448 144.55 106.569C146.432 108.477 147.085 110.109 146.608 111.514C145.83 113.774 142.216 114.552 139.179 114.954C139.129 114.929 139.104 114.954 139.053 114.954Z" fill="#F59DAB"/>
<path d="M138.2 119.347C131.348 119.221 127.559 118.343 127.559 118.343C127.559 118.343 131.725 126.05 138.2 125.447C144.675 124.82 146.056 119.096 146.056 119.096L138.2 119.347Z" fill="white"/>
<path d="M124.923 110.334C124.823 110.334 124.723 110.334 124.622 110.334C112.801 110.159 109.313 99.0124 109.288 98.8869L109.212 98.6359L109.313 98.4099C109.363 98.2844 110.668 95.3974 115.637 95.1213C120.255 94.8702 131.223 94.9957 132.653 95.1213C134.36 95.2719 137.623 96.5522 137.497 98.8367C137.447 99.5647 137.497 100.042 137.522 100.494C137.573 101.096 137.623 101.699 137.497 102.728C137.221 104.812 133.733 110.334 124.923 110.334ZM124.647 108.954C133.356 109.079 135.991 103.607 136.117 102.577C136.242 101.699 136.192 101.197 136.142 100.644C136.092 100.167 136.067 99.6149 136.117 98.7865C136.192 97.6819 133.808 96.6526 132.528 96.5271C131.122 96.4016 120.28 96.2761 115.713 96.5271C112.35 96.7028 111.07 98.2091 110.693 98.7614C111.27 100.418 114.709 108.803 124.647 108.954Z" fill="#070455"/>
<path d="M150.849 108.602C148.314 108.602 146.055 107.397 144.299 105.088C142.266 102.402 141.312 98.6108 141.914 97.2552C142.04 96.8033 142.617 94.9456 144.675 94.2928C146.131 93.841 159.006 91.9079 160.336 92.5104C161.666 93.1129 161.992 95.523 161.641 96.8535C161.616 96.979 161.591 97.1798 161.541 97.456C161.214 99.7405 160.185 106.669 152.807 108.376C152.129 108.527 151.477 108.602 150.849 108.602ZM159.382 93.7406C157.123 93.7406 146.884 95.046 145.077 95.6234C143.571 96.1004 143.245 97.5815 143.245 97.6317L143.169 97.8326C142.893 98.3597 143.37 101.623 145.403 104.284C146.708 105.991 148.992 107.849 152.455 107.046C158.931 105.54 159.809 99.5145 160.135 97.2552C160.185 96.9037 160.236 96.6527 160.261 96.502C160.537 95.523 160.16 93.9665 159.734 93.7657C159.683 93.7657 159.558 93.7406 159.382 93.7406Z" fill="#070455"/>
<path d="M142.542 98.3599H136.794V99.2887H142.542V98.3599Z" fill="black"/>
<path d="M97.9766 87.482L97.0762 88.5286L109.499 99.2218L110.399 98.1752L97.9766 87.482Z" fill="#070455"/>
<path d="M512.102 23.5236C505.903 25.5821 508.187 32.0339 508.187 32.0339C508.187 32.0339 499.478 30.3017 497.295 33.5653C495.111 36.8289 497.295 43.8079 497.295 43.8079C497.295 43.8079 492.426 43.0045 492.275 45.8413C492.15 48.6781 496.316 51.6404 495.237 54.7534C494.158 57.8663 490.77 57.314 492.275 62.1592C493.756 67.0043 495.789 74.7113 495.789 74.7113L556.625 84.1757C556.625 84.1757 563.477 72.4017 564.029 69.1633C564.456 66.5524 562.95 61.7575 562.548 59.8496C562.147 57.9416 561.595 56.335 564.029 53.7743C566.464 51.2137 563.904 47.5735 561.469 45.8162C559.035 44.0589 558.784 42.3016 560.265 39.6155C561.745 36.9293 559.06 32.4607 554.994 32.3352C550.953 32.2097 555.12 25.4566 552.158 24.101C549.197 22.7453 541.09 25.0549 541.09 25.0549C541.09 25.0549 536.497 17.9002 530.85 18.7286C525.178 19.532 521.539 26.1344 521.539 26.1344C521.539 26.1344 518.327 21.465 512.102 23.5236Z" fill="#0A0134"/>
<path d="M554.818 133.104L559.135 138.351L539.986 157.38L502.791 164.384L505.201 146.46L511.4 137.548C511.4 137.548 511.726 136.543 512.153 135.037C512.956 132.15 514.135 127.456 513.935 124.594C513.935 124.594 485.223 124.067 488.586 99.1128C491.974 74.1591 495.212 74.4353 496.542 63.5149C497.897 52.5945 498.826 45.1636 498.826 45.1636C498.826 45.1636 524.174 54.6028 539.81 46.3686C539.81 46.3686 551.029 53.6488 545.055 65.9249C543.976 70.6445 551.531 67.8077 551.531 67.8077C551.531 67.8077 550.326 78.452 548.419 80.4854C546.536 82.5189 550.577 81.5649 552.585 76.8453C554.593 72.1257 558.934 70.4939 562.975 72.4018C567.016 74.2846 560.817 90.2008 552.183 89.7991C552.258 89.7991 548.895 124.995 554.818 133.104Z" fill="#B76B78"/>
<path d="M549.573 96.979C549.422 97.9832 544.252 130.418 512.604 135.037C513.407 132.15 514.587 127.456 514.386 124.594C514.386 124.594 539.032 126.2 549.573 96.979Z" fill="#A4465F"/>
<path d="M510.27 140.761C510.27 140.761 503.594 158.987 510.27 159.389C516.946 159.79 548.544 148.845 556.249 137.096C556.249 137.096 554.718 131.322 553.287 130.92C551.882 130.519 619.043 147.64 665.624 211.455C665.624 211.455 665.624 216.124 662.989 218.334C660.353 220.568 609.305 257.245 609.305 257.245C609.305 257.245 607.473 315.789 607.674 323.697C607.874 331.604 607.674 391.78 607.674 391.78H459.222C459.222 391.78 461.255 328.768 460.853 313.78C460.452 298.793 460.452 239.798 460.452 239.798L415.276 218.158C415.276 218.158 413.444 217.555 419.518 210.852C425.591 204.175 449.685 175.204 454.755 169.932C459.824 164.66 486.453 141.916 512.579 135.037L510.27 140.761Z" fill="#2CC3C9"/>
<path d="M458.544 322.115C455.759 324.198 459.122 327.085 459.122 327.085C459.122 327.085 454.027 328.441 455.382 333.311C455.382 333.311 452.772 336.475 454.479 340.667C454.479 340.667 451.743 344.633 453.901 347.219C456.06 349.83 457.967 354.449 469.738 354.449C469.738 354.449 473.804 354.223 474.607 351.161C474.607 351.161 477.543 346.742 475.51 343.93C473.477 341.094 463.639 333.085 463.639 333.085L475.309 338.859C476.564 339.487 478.07 338.885 478.572 337.579C478.949 336.575 478.622 335.47 477.769 334.818L463.388 324.023C463.413 324.023 460.803 320.408 458.544 322.115Z" fill="#B56975"/>
<path d="M658.32 212.258C658.32 212.258 662.311 210.727 665.624 211.455C665.624 211.455 665.097 216.978 662.989 218.333L658.32 212.258Z" fill="#1A687F"/>
<path d="M458.318 349.052C458.318 349.052 409.78 333.211 402.928 313.278C397.733 298.19 408.952 250.091 414.699 227.597C416.531 220.392 417.836 215.798 417.836 215.798L462.987 232.618L462.886 238.291L462.736 246.952C462.736 246.952 457.791 270.325 453.098 281.521C453.098 281.521 450.011 317.245 459.122 327.086C468.232 336.952 458.318 349.052 458.318 349.052Z" fill="#B66A76"/>
<path d="M462.961 232.618L462.861 238.291C448.806 234.752 428.076 230.358 414.699 227.597C416.531 220.392 417.836 215.798 417.836 215.798L462.961 232.618Z" fill="#A44761"/>
<path d="M474.431 350.106C468.985 348.048 458.444 337.805 457.992 337.353L458.645 336.7C458.745 336.801 469.487 347.244 474.757 349.253L474.431 350.106Z" fill="#A4465F"/>
<path d="M472.298 354.173C464.819 352.767 457.289 345.035 456.988 344.709L457.641 344.081C457.716 344.157 465.27 351.939 472.473 353.295L472.298 354.173Z" fill="#A4465F"/>
<path d="M463.012 229.354C462.635 229.354 462.334 229.053 462.334 228.676C462.309 227.999 462.309 227.346 462.309 226.668C462.309 225.789 462.334 224.911 462.359 224.032C462.384 223.656 462.635 223.354 463.062 223.354C463.438 223.379 463.739 223.681 463.739 224.057C463.714 224.911 463.689 225.789 463.689 226.643C463.689 227.296 463.689 227.948 463.714 228.601C463.689 229.028 463.388 229.329 463.012 229.354ZM463.313 220.141C463.288 220.141 463.263 220.141 463.237 220.141C462.861 220.116 462.585 219.764 462.61 219.388C462.735 217.882 462.936 216.325 463.137 214.769C463.187 214.392 463.539 214.116 463.915 214.191C464.292 214.241 464.543 214.593 464.492 214.969C464.266 216.501 464.091 218.007 463.965 219.513C463.965 219.865 463.664 220.141 463.313 220.141ZM464.593 211.028C464.543 211.028 464.517 211.028 464.467 211.028C464.091 210.953 463.84 210.601 463.915 210.225C464.191 208.719 464.517 207.212 464.869 205.706C464.944 205.329 465.321 205.103 465.697 205.179C466.073 205.254 466.299 205.631 466.224 206.007C465.873 207.488 465.571 208.995 465.27 210.476C465.195 210.802 464.919 211.028 464.593 211.028ZM466.651 202.066C466.601 202.066 466.525 202.066 466.475 202.041C466.099 201.94 465.898 201.564 465.998 201.187C466.4 199.731 466.826 198.225 467.303 196.744C467.429 196.392 467.805 196.166 468.157 196.292C468.508 196.392 468.734 196.794 468.608 197.145C468.157 198.601 467.73 200.083 467.328 201.539C467.253 201.865 466.977 202.066 466.651 202.066ZM469.386 193.279C469.311 193.279 469.236 193.254 469.16 193.229C468.809 193.104 468.608 192.702 468.734 192.35C469.236 190.92 469.763 189.438 470.315 188.007C470.44 187.656 470.842 187.48 471.193 187.606C471.545 187.731 471.72 188.133 471.595 188.484C471.043 189.915 470.516 191.371 470.039 192.802C469.938 193.104 469.662 193.279 469.386 193.279ZM472.649 184.669C472.549 184.669 472.473 184.643 472.373 184.618C472.022 184.468 471.846 184.066 471.996 183.715C472.599 182.284 473.201 180.853 473.829 179.472C473.979 179.12 474.381 178.97 474.732 179.12C475.083 179.271 475.234 179.673 475.083 180.024C474.481 181.405 473.879 182.811 473.276 184.242C473.176 184.518 472.925 184.669 472.649 184.669ZM476.389 176.259C476.288 176.259 476.188 176.233 476.087 176.183C475.736 176.033 475.585 175.606 475.761 175.254C476.439 173.823 477.116 172.443 477.794 171.112C477.97 170.761 478.371 170.635 478.723 170.811C479.074 170.987 479.199 171.388 479.024 171.74C478.346 173.07 477.669 174.451 477.016 175.857C476.89 176.108 476.64 176.259 476.389 176.259ZM480.53 168.024C480.429 168.024 480.304 167.999 480.203 167.949C479.877 167.773 479.727 167.347 479.927 167.02C480.68 165.614 481.408 164.259 482.136 162.953C482.312 162.627 482.738 162.501 483.064 162.677C483.391 162.853 483.516 163.28 483.341 163.606C482.613 164.886 481.885 166.242 481.132 167.648C481.006 167.899 480.781 168.024 480.53 168.024ZM485.022 159.991C484.897 159.991 484.771 159.966 484.671 159.891C484.344 159.69 484.244 159.263 484.42 158.937C485.273 157.506 486.076 156.175 486.804 154.97C487.005 154.644 487.431 154.543 487.758 154.744C488.084 154.945 488.184 155.372 487.984 155.698C487.256 156.878 486.453 158.209 485.599 159.639C485.499 159.865 485.273 159.991 485.022 159.991ZM489.891 152.158C489.766 152.158 489.64 152.133 489.515 152.033C489.188 151.832 489.113 151.405 489.314 151.079C490.92 148.644 491.924 147.238 491.924 147.238C492.15 146.937 492.576 146.861 492.878 147.087C493.179 147.313 493.254 147.74 493.028 148.041C493.028 148.066 492.024 149.422 490.443 151.832C490.343 152.033 490.117 152.158 489.891 152.158Z" fill="#11829A"/>
<path d="M607.9 161.196C607.674 161.196 607.448 161.07 607.297 160.87C607.096 160.543 607.197 160.117 607.523 159.916C608.778 159.137 609.556 158.786 609.581 158.761C609.932 158.585 610.334 158.736 610.51 159.087C610.685 159.439 610.535 159.84 610.183 160.016C610.183 160.016 609.431 160.368 608.251 161.096C608.151 161.171 608.025 161.196 607.9 161.196Z" fill="#11829A"/>
<path d="M588.85 384.851C588.499 384.851 588.198 384.575 588.173 384.223C588.022 382.717 587.872 381.211 587.746 379.704C587.721 379.328 587.997 379.001 588.374 378.951C588.75 378.926 589.076 379.202 589.126 379.579C589.252 381.06 589.403 382.566 589.553 384.072C589.603 384.449 589.327 384.8 588.926 384.826C588.901 384.851 588.875 384.851 588.85 384.851ZM588.047 375.863C587.696 375.863 587.395 375.587 587.37 375.236C587.244 373.729 587.144 372.223 587.043 370.717C587.018 370.34 587.294 370.014 587.696 369.989C588.072 369.964 588.399 370.24 588.424 370.642C588.524 372.148 588.625 373.629 588.75 375.135C588.775 375.512 588.499 375.838 588.123 375.888C588.072 375.863 588.072 375.863 588.047 375.863ZM587.445 366.826C587.094 366.826 586.767 366.55 586.767 366.173C586.692 364.667 586.617 363.161 586.541 361.654C586.516 361.278 586.817 360.951 587.194 360.926C587.57 360.901 587.897 361.202 587.922 361.579C587.997 363.085 588.072 364.566 588.148 366.098C588.173 366.474 587.872 366.801 587.495 366.826C587.47 366.826 587.445 366.826 587.445 366.826ZM587.043 357.788C586.667 357.788 586.366 357.487 586.366 357.11C586.316 355.604 586.265 354.073 586.24 352.592C586.24 352.215 586.541 351.889 586.918 351.889C587.269 351.914 587.621 352.19 587.621 352.566C587.646 354.073 587.696 355.554 587.746 357.085C587.746 357.462 587.445 357.788 587.043 357.788ZM586.818 348.751C586.441 348.751 586.14 348.449 586.14 348.073C586.115 346.541 586.115 345.035 586.115 343.554C586.115 343.177 586.416 342.876 586.792 342.851C587.169 342.851 587.47 343.152 587.47 343.529C587.47 345.035 587.47 346.541 587.495 348.048C587.52 348.449 587.219 348.751 586.818 348.751C586.843 348.751 586.818 348.751 586.818 348.751ZM586.818 339.713C586.441 339.713 586.115 339.387 586.14 339.01C586.165 337.479 586.165 335.972 586.215 334.491C586.215 334.115 586.516 333.839 586.918 333.813C587.294 333.813 587.596 334.14 587.596 334.516C587.57 335.998 587.545 337.504 587.52 339.035C587.495 339.412 587.194 339.713 586.818 339.713ZM586.993 330.675C586.993 330.675 586.968 330.675 586.993 330.675C586.592 330.675 586.29 330.349 586.316 329.973C586.366 328.441 586.416 326.935 586.466 325.454C586.491 325.077 586.792 324.751 587.194 324.801C587.57 324.826 587.872 325.127 587.847 325.529C587.796 327.01 587.746 328.516 587.696 330.048C587.671 330.374 587.37 330.675 586.993 330.675ZM587.345 321.613H587.319C586.943 321.588 586.642 321.261 586.667 320.885C586.742 319.353 586.817 317.847 586.918 316.366C586.943 315.989 587.294 315.688 587.646 315.713C588.022 315.738 588.323 316.065 588.298 316.441C588.198 317.922 588.123 319.429 588.047 320.96C588.022 321.337 587.721 321.613 587.345 321.613ZM587.897 312.6C587.872 312.6 587.872 312.6 587.847 312.6C587.47 312.575 587.169 312.249 587.219 311.872C587.319 310.341 587.445 308.835 587.57 307.354C587.596 306.977 587.947 306.701 588.323 306.726C588.7 306.751 588.976 307.077 588.951 307.479C588.825 308.96 588.725 310.466 588.599 311.973C588.574 312.324 588.248 312.6 587.897 312.6ZM588.625 303.563C588.599 303.563 588.574 303.563 588.549 303.563C588.173 303.538 587.897 303.186 587.922 302.81C588.072 301.278 588.198 299.772 588.348 298.291C588.399 297.914 588.725 297.638 589.101 297.663C589.478 297.713 589.754 298.04 589.729 298.416C589.578 299.898 589.428 301.379 589.302 302.91C589.277 303.287 588.976 303.563 588.625 303.563ZM589.528 294.575C589.503 294.575 589.478 294.575 589.453 294.575C589.076 294.525 588.8 294.199 588.85 293.822C589.026 292.291 589.202 290.785 589.377 289.329C589.428 288.952 589.779 288.676 590.155 288.726C590.532 288.776 590.808 289.103 590.758 289.504C590.582 290.96 590.406 292.467 590.231 293.998C590.181 294.299 589.879 294.575 589.528 294.575ZM590.632 285.588C590.607 285.588 590.582 285.588 590.532 285.588C590.155 285.538 589.879 285.186 589.93 284.81C590.13 283.278 590.331 281.772 590.532 280.316C590.582 279.94 590.933 279.663 591.31 279.739C591.686 279.789 591.937 280.14 591.887 280.517C591.686 281.973 591.486 283.454 591.285 284.986C591.26 285.337 590.959 285.588 590.632 285.588ZM591.887 276.626C591.862 276.626 591.812 276.626 591.787 276.626C591.41 276.576 591.159 276.224 591.21 275.848C591.435 274.291 591.686 272.81 591.912 271.379C591.963 271.002 592.339 270.751 592.715 270.802C593.092 270.852 593.343 271.228 593.293 271.605C593.067 273.036 592.816 274.517 592.59 276.073C592.515 276.375 592.239 276.626 591.887 276.626ZM593.368 267.689C593.318 267.689 593.293 267.689 593.242 267.689C592.866 267.613 592.615 267.262 592.69 266.885C592.966 265.304 593.242 263.823 593.493 262.417C593.569 262.04 593.92 261.789 594.297 261.864C594.673 261.94 594.924 262.291 594.849 262.668C594.598 264.074 594.322 265.555 594.046 267.111C593.97 267.463 593.694 267.689 593.368 267.689ZM595.05 258.802C594.999 258.802 594.949 258.802 594.924 258.777C594.548 258.701 594.297 258.325 594.372 257.973C594.698 256.291 595.024 254.81 595.3 253.53C595.376 253.153 595.752 252.927 596.129 253.003C596.505 253.078 596.731 253.454 596.656 253.831C596.38 255.111 596.053 256.592 595.727 258.249C595.652 258.576 595.351 258.802 595.05 258.802ZM596.982 249.94C596.932 249.94 596.882 249.94 596.831 249.915C596.455 249.814 596.229 249.463 596.33 249.086C596.48 248.484 596.58 248.057 596.631 247.806C596.204 247.003 595.777 246.224 595.351 245.421C595.175 245.095 595.3 244.668 595.652 244.492C596.003 244.316 596.405 244.442 596.58 244.793C597.032 245.647 597.484 246.526 597.961 247.379L598.086 247.63L598.011 247.906C598.011 247.906 597.886 248.434 597.635 249.413C597.584 249.739 597.283 249.94 596.982 249.94ZM593.945 241.756C593.694 241.756 593.443 241.605 593.318 241.354C592.665 239.999 592.013 238.593 591.41 237.212C591.26 236.86 591.41 236.459 591.762 236.308C592.113 236.158 592.515 236.308 592.665 236.66C593.268 238.015 593.895 239.396 594.548 240.752C594.723 241.103 594.573 241.505 594.221 241.681C594.146 241.731 594.046 241.756 593.945 241.756ZM590.306 233.471C590.03 233.471 589.779 233.296 589.654 233.045C589.101 231.614 588.574 230.183 588.072 228.777C587.947 228.425 588.148 228.024 588.499 227.898C588.85 227.773 589.252 227.974 589.377 228.325C589.854 229.706 590.381 231.137 590.934 232.543C591.084 232.894 590.908 233.296 590.532 233.446C590.482 233.471 590.406 233.471 590.306 233.471ZM587.37 224.936C587.068 224.936 586.792 224.735 586.717 224.434C586.29 222.953 585.889 221.472 585.538 220.041C585.437 219.664 585.688 219.287 586.039 219.212C586.391 219.112 586.792 219.363 586.868 219.714C587.219 221.145 587.596 222.601 588.022 224.057C588.123 224.434 587.922 224.81 587.545 224.911C587.495 224.911 587.445 224.936 587.37 224.936ZM585.287 216.124C584.96 216.124 584.659 215.898 584.609 215.547C584.333 214.041 584.107 212.509 583.956 211.028C583.906 210.652 584.182 210.3 584.559 210.275C584.935 210.25 585.287 210.501 585.312 210.877C585.487 212.334 585.688 213.815 585.964 215.321C586.039 215.698 585.789 216.049 585.412 216.124C585.362 216.124 585.337 216.124 585.287 216.124ZM584.283 207.137C583.906 207.137 583.605 206.836 583.605 206.484C583.555 205.58 583.555 204.652 583.555 203.723C583.555 203.12 583.555 202.493 583.58 201.915C583.58 201.539 583.906 201.237 584.258 201.237H584.283C584.659 201.237 584.96 201.564 584.96 201.94C584.935 202.518 584.935 203.12 584.935 203.723C584.935 204.601 584.96 205.505 584.985 206.409C585.01 206.785 584.709 207.112 584.333 207.137C584.308 207.137 584.283 207.137 584.283 207.137ZM584.559 198.124C584.534 198.124 584.509 198.124 584.483 198.124C584.107 198.074 583.831 197.748 583.881 197.371C584.057 195.84 584.283 194.334 584.584 192.853C584.659 192.476 585.036 192.25 585.387 192.3C585.763 192.376 586.014 192.727 585.939 193.104C585.663 194.535 585.412 196.016 585.261 197.522C585.211 197.848 584.91 198.124 584.559 198.124ZM586.341 189.263C586.265 189.263 586.215 189.263 586.14 189.238C585.763 189.137 585.563 188.735 585.663 188.384C586.09 186.928 586.592 185.472 587.169 184.041C587.319 183.689 587.721 183.514 588.072 183.664C588.424 183.815 588.599 184.217 588.449 184.568C587.897 185.949 587.42 187.355 586.993 188.786C586.918 189.062 586.642 189.263 586.341 189.263ZM589.679 180.878C589.578 180.878 589.478 180.853 589.352 180.802C589.026 180.627 588.876 180.225 589.051 179.874C589.754 178.518 590.507 177.187 591.335 175.907C591.536 175.581 591.962 175.48 592.289 175.706C592.615 175.907 592.715 176.334 592.49 176.66C591.686 177.915 590.959 179.221 590.281 180.526C590.181 180.727 589.93 180.878 589.679 180.878ZM594.548 173.246C594.397 173.246 594.246 173.196 594.121 173.095C593.82 172.869 593.769 172.418 593.995 172.116C594.924 170.911 595.928 169.731 596.957 168.627C597.208 168.351 597.66 168.326 597.936 168.602C598.212 168.853 598.237 169.305 597.961 169.581C596.957 170.66 595.978 171.815 595.075 172.97C594.949 173.171 594.748 173.246 594.548 173.246ZM600.696 166.618C600.521 166.618 600.32 166.543 600.194 166.393C599.944 166.116 599.969 165.665 600.245 165.413C601.374 164.384 602.579 163.405 603.783 162.501C604.085 162.275 604.511 162.326 604.737 162.627C604.963 162.928 604.913 163.355 604.612 163.581C603.432 164.46 602.278 165.413 601.173 166.418C601.023 166.568 600.847 166.618 600.696 166.618Z" fill="#11829A"/>
<path d="M589.629 391.629C589.277 391.629 588.976 391.378 588.951 391.026C588.851 390.273 588.775 389.495 588.675 388.742C588.625 388.365 588.901 388.014 589.277 387.989C589.654 387.939 590.005 388.215 590.03 388.591C590.105 389.344 590.206 390.123 590.306 390.876C590.356 391.252 590.08 391.604 589.704 391.654C589.679 391.629 589.654 391.629 589.629 391.629Z" fill="#11829A"/>
<path d="M504.448 228.727C504.347 228.225 494.308 178.468 508.087 141.916C508.262 141.439 508.789 141.188 509.266 141.389C509.743 141.564 509.994 142.092 509.793 142.568C498.274 173.171 503.695 213.313 505.652 225.011C511.801 212.66 539.609 176.585 551.556 161.974C560.264 151.305 561.544 144.175 561.067 140.033C560.566 135.715 558.156 133.832 558.056 133.757C557.654 133.456 557.579 132.878 557.88 132.477C558.181 132.075 558.759 132 559.16 132.301C559.286 132.401 562.247 134.686 562.874 139.757C563.678 146.284 560.34 154.142 552.986 163.154C532.205 188.56 506.054 224.409 506.28 228.476L504.448 228.727Z" fill="black"/>
<path d="M506.295 228.468L504.471 228.635L507.17 258.161L508.995 257.994L506.295 228.468Z" fill="black"/>
<path d="M531.754 283.554L495.689 288.324L491.347 286.015L488.611 262.969L527.713 255.864L531.126 257.32L531.754 283.554Z" fill="#ABDAF7"/>
<path d="M531.754 283.554L495.689 288.324L491.347 286.015L528.441 280.793L527.713 255.864L531.126 257.32L531.754 283.554Z" fill="#11829A"/>
<path d="M526.257 211.656V224.584C526.257 224.584 555.797 223.656 568.722 229.379V216.827C568.722 216.827 555.998 208.869 526.257 211.656Z" fill="#11829A"/>
<path d="M644.918 351.688C609.631 361.378 595.401 358.29 595.401 358.29C595.401 358.29 589.202 364.19 580.744 358.767C572.286 353.345 566.715 348.198 566.715 348.198C566.715 348.198 560.716 347.721 557.253 349.504C557.253 349.504 554.818 351.085 554.166 349.705C554.166 349.705 548.72 351.939 548.544 349.127C548.544 349.127 544.704 348.098 545.557 345.462C546.411 342.851 556.525 332.232 556.525 332.232C556.525 332.232 556.324 329.897 550.803 332.508C545.281 335.144 540.412 336.952 543.223 332.483C543.223 332.483 558.081 319.278 566.966 323.596C575.85 327.939 584.96 347.947 597.108 340.918C609.255 333.914 636.084 300.877 636.285 292.216C636.46 285.036 615.78 261.814 608.703 254.082C607.247 252.501 606.369 251.547 606.369 251.547C606.369 251.547 630.914 220.593 658.145 212.534C658.145 212.534 661.934 217.179 667.18 224.308C676.34 236.735 689.918 256.743 695.691 272.986C704.751 298.642 680.205 341.973 644.918 351.688Z" fill="#B76B78"/>
<path d="M667.155 224.359C641.605 228.551 616.985 247.279 608.652 254.107C607.197 252.526 606.318 251.572 606.318 251.572C606.318 251.572 630.864 220.618 658.094 212.56C658.12 212.585 661.909 217.204 667.155 224.359Z" fill="#A04A64"/>
<path d="M554.141 350.131C553.865 350.131 553.664 349.905 553.689 349.654C553.89 345.211 565.384 339.813 565.861 339.588C566.087 339.487 566.363 339.588 566.464 339.813C566.564 340.039 566.464 340.316 566.238 340.416C563.05 341.897 554.743 346.441 554.592 349.679C554.592 349.93 554.392 350.131 554.141 350.131Z" fill="#A4465F"/>
<path d="M548.519 349.579C548.494 349.579 548.444 349.579 548.418 349.554C548.168 349.504 548.017 349.253 548.092 349.002C550.376 339.688 564.531 333.663 565.133 333.412C565.359 333.311 565.635 333.437 565.736 333.663C565.836 333.889 565.736 334.165 565.485 334.265C565.334 334.316 551.129 340.391 548.971 349.228C548.92 349.428 548.745 349.579 548.519 349.579Z" fill="#A4465F"/>
<path d="M556.5 332.684C556.424 332.684 556.349 332.659 556.274 332.608C556.048 332.483 555.973 332.207 556.123 331.981C558.181 328.516 562.774 327.261 566.087 327.261C566.338 327.261 566.539 327.462 566.539 327.713C566.539 327.964 566.338 328.165 566.087 328.165C563.025 328.19 558.784 329.32 556.926 332.433C556.801 332.609 556.65 332.684 556.5 332.684Z" fill="#A4465F"/>
<path d="M506.907 70.8706C506.205 70.8706 505.552 70.4689 505.226 69.7911C505.201 69.7158 503.293 65.674 499.78 65.8748C498.751 65.925 497.897 65.1468 497.847 64.1426C497.797 63.1384 498.575 62.2598 499.579 62.2096C505.602 61.8581 508.463 68.0087 508.589 68.2848C509.015 69.2137 508.589 70.2932 507.66 70.7199C507.434 70.8204 507.183 70.8706 506.907 70.8706Z" fill="black"/>
<path d="M514.512 70.8453C514.186 70.8453 513.859 70.77 513.558 70.5692C512.705 70.042 512.429 68.9374 512.931 68.0839C513.081 67.8077 514.562 65.4479 518.251 64.7199C521.539 64.0672 525.53 64.6697 525.705 64.6948C526.709 64.8454 527.387 65.7994 527.236 66.8035C527.086 67.8077 526.132 68.4855 525.128 68.3349C525.103 68.3349 521.589 67.7826 518.979 68.3098C516.896 68.7366 516.093 69.9165 516.068 69.9667C515.716 70.5441 515.114 70.8453 514.512 70.8453Z" fill="black"/>
<path d="M500.382 98.1841C498.6 98.1841 497.521 97.7573 497.044 96.9289C496.09 95.1967 498.173 92.0084 503.394 87.1633C508.513 82.4185 506.255 74.3601 506.23 74.2847C506.154 74.0337 506.305 73.7826 506.556 73.7073C506.807 73.632 507.058 73.7827 507.133 74.0086C507.233 74.3601 509.568 82.6947 504.046 87.816C497.521 93.8661 497.546 95.8745 497.872 96.4519C498.249 97.1548 500.056 98.0084 507.936 95.9247C508.187 95.8494 508.438 96 508.488 96.2511C508.564 96.5021 508.413 96.7531 508.162 96.8033C504.799 97.7322 502.214 98.1841 500.382 98.1841Z" fill="#A4465F"/>
<path d="M500.357 102.477C500.357 102.477 514.11 104.912 520.184 102.477C520.184 102.477 518.979 111.113 509.668 110.56C500.357 110.033 500.357 102.477 500.357 102.477Z" fill="white"/>
<path d="M518.352 81.4394C519.724 81.4394 520.836 80.0345 520.836 78.3014C520.836 76.5683 519.724 75.1633 518.352 75.1633C516.979 75.1633 515.867 76.5683 515.867 78.3014C515.867 80.0345 516.979 81.4394 518.352 81.4394Z" fill="#0A0134"/>
<path d="M501.059 80.4353C502.265 80.4353 503.243 79.0303 503.243 77.2972C503.243 75.5641 502.265 74.1592 501.059 74.1592C499.854 74.1592 498.876 75.5641 498.876 77.2972C498.876 79.0303 499.854 80.4353 501.059 80.4353Z" fill="#0A0134"/>
<path d="M298.171 2.98828C270.89 15.0886 290.291 33.3144 290.316 33.3395C289.688 32.7369 286.702 33.2892 285.974 33.4148C282.485 33.9922 280.779 36.2265 280.754 39.6909C280.754 41.5486 281.105 43.8833 282.36 45.3644C282.36 45.3644 277.993 48.5778 283.514 56.5108C289.036 64.4689 346.71 73.3056 346.71 73.3056L351.83 61.7576C351.83 61.7576 357.351 55.607 351.328 48.9293C351.328 48.9293 355.544 44.3101 354.139 40.0925C352.733 35.8499 348.768 35.5989 348.768 35.5989C348.768 35.5989 332.455 -12.225 298.171 2.98828Z" fill="#0F004F"/>
<path d="M343.372 81.7658C343.372 81.7658 337.6 114.979 343.497 125.749L299.928 156.652L301.158 127.882L301.585 117.816C301.585 117.816 280.829 112.82 278.771 99.7405C276.713 86.6611 284.418 64.0923 286.601 52.946C288.785 41.7745 289.663 34.9963 289.663 34.9963H291.194C291.194 34.9963 316.442 41.3979 331.2 37.6825C331.2 37.6825 332.103 42.0507 330.171 43.331C328.238 44.6113 336.947 43.331 336.947 43.331C336.947 43.331 341.565 51.5401 336.194 58.4689C334.789 60.1258 340.561 59.4982 340.561 59.4982C340.561 59.4982 341.314 69.2387 340.034 71.4228C338.754 73.6068 341.69 71.5483 342.845 68.36C343.999 65.1467 348.743 61.8078 352.984 63.8664C357.201 65.8747 354.666 80.3599 343.372 81.7658Z" fill="#FEB7C5"/>
<path d="M340.159 84.7783C339.959 86.2595 334.638 124.92 301.158 127.882L301.585 117.816C301.585 117.791 332.957 117.941 340.159 84.7783Z" fill="#FEA0AE"/>
<path d="M293.277 89.4979C291.771 89.4979 290.241 89.3473 288.785 88.7699C288.333 88.5942 287.806 88.3432 287.455 87.8662C287.003 87.2637 286.903 86.4352 287.154 85.657C287.58 84.3265 288.71 83.6988 289.688 83.1214C290.065 82.8955 290.441 82.6947 290.743 82.4687C291.671 81.7407 292.499 80.8369 293.227 79.8077C294.482 78.0504 295.436 75.8412 296.088 73.2554C296.791 70.4437 297.117 67.5065 296.992 64.7701C296.967 64.2681 297.368 63.8413 297.87 63.8162C298.372 63.7911 298.799 64.1927 298.824 64.6948C298.949 67.632 298.623 70.745 297.87 73.7073C297.167 76.519 296.113 78.929 294.733 80.862C293.905 82.042 292.926 83.0712 291.872 83.8997C291.47 84.226 291.019 84.4771 290.592 84.703C289.789 85.1549 289.111 85.5315 288.91 86.2093C288.835 86.4101 288.86 86.636 288.935 86.7616C289.036 86.8871 289.337 87.0126 289.463 87.0628C291.546 87.8662 293.955 87.6904 296.314 87.5147C296.841 87.4645 297.368 87.4394 297.895 87.4143C298.397 87.3892 298.824 87.7657 298.874 88.2929C298.899 88.795 298.523 89.2218 297.996 89.272C297.494 89.2971 296.967 89.3473 296.44 89.3724C295.386 89.4226 294.331 89.4979 293.277 89.4979Z" fill="#FEA0AE"/>
<path d="M298.397 100.343C295.561 100.343 293.528 99.4643 292.424 98.8618C291.922 98.5856 291.797 97.9329 292.148 97.4811C292.424 97.1296 292.926 97.0292 293.302 97.2551C295.31 98.3848 301.811 100.895 311.297 92.4853C311.674 92.1589 312.251 92.1589 312.577 92.5355C312.929 92.9121 312.904 93.5146 312.527 93.8409C306.805 98.9371 301.961 100.343 298.397 100.343Z" fill="#FEA0AE"/>
<path d="M320.659 58.3434C320.358 58.3434 320.081 58.1928 319.906 57.9417C316.342 52.6196 311.398 55.6321 311.197 55.7827C310.77 56.0589 310.193 55.9334 309.917 55.5066C309.641 55.0798 309.766 54.5024 310.193 54.2514C310.268 54.2012 316.844 50.1343 321.412 56.9626C321.688 57.3894 321.587 57.9668 321.161 58.243C321.01 58.2932 320.834 58.3434 320.659 58.3434Z" fill="black"/>
<path d="M295.185 57.6906C294.833 57.6906 294.507 57.4898 294.357 57.1383C292.474 52.9459 289.563 52.9459 289.463 52.9459C288.936 52.9459 288.534 52.5442 288.534 52.0422C288.534 51.5401 288.91 51.1133 289.412 51.0882C289.588 51.0882 293.654 51.0129 296.063 56.3852C296.264 56.8371 296.063 57.3894 295.611 57.5902C295.436 57.6655 295.31 57.6906 295.185 57.6906Z" fill="black"/>
<path d="M313.581 73.3307C315.189 73.3307 316.493 72.0269 316.493 70.4186C316.493 68.8103 315.189 67.5065 313.581 67.5065C311.973 67.5065 310.67 68.8103 310.67 70.4186C310.67 72.0269 311.973 73.3307 313.581 73.3307Z" fill="black"/>
<path d="M290.818 69.8663C292.107 69.8663 293.152 68.5625 293.152 66.9542C293.152 65.3459 292.107 64.0421 290.818 64.0421C289.529 64.0421 288.484 65.3459 288.484 66.9542C288.484 68.5625 289.529 69.8663 290.818 69.8663Z" fill="black"/>
<path d="M345.079 71.3475L344.25 70.9207C345.38 68.7115 348.492 64.9458 352.131 66.5525L351.754 67.4061C347.99 65.7241 345.104 71.2722 345.079 71.3475Z" fill="black"/>
<path d="M301.158 119.573L298.447 118.82L289.337 127.883L288.584 130.719C288.584 130.719 243.107 152.234 222.603 182.635C202.098 213.037 146.833 335.32 235.051 331.655L229.931 390.976H412.214C412.214 390.976 401.975 318.123 404.886 309.688C407.797 301.253 425.014 219.99 414.398 189.212C403.782 158.435 354.415 127.883 354.415 127.883C354.415 127.883 349.295 112.619 341.439 118.82L342.318 122.862L300.229 149.02L301.158 119.573Z" fill="white"/>
<path d="M257.965 245.898C257.965 245.898 257.965 241.906 254.602 239.773C251.239 237.639 239.268 235.229 237.586 240.927C235.904 246.626 236.833 263.597 238.515 266.81C240.196 270.023 248.428 270.375 249.909 268.341C251.415 266.283 257.965 245.898 257.965 245.898Z" fill="#FDB9C4"/>
<path d="M308.737 163.857L299.577 151.757L286.476 159.037L287.58 134.41C287.605 133.907 288.032 133.506 288.534 133.531C289.036 133.556 289.437 133.983 289.412 134.485L288.459 155.824L300.079 149.372L309.114 161.296L352.282 129.589C352.683 129.288 353.26 129.389 353.562 129.79C353.863 130.192 353.762 130.769 353.361 131.071L308.737 163.857Z" fill="#79A1BC"/>
<path d="M288.534 254.233C285.221 237.413 298.247 158.585 298.799 155.221L299.702 155.372C299.577 156.2 286.15 237.388 289.437 254.057L288.534 254.233Z" fill="#79A1BC"/>
<path d="M280.377 389.721C280.026 389.721 279.7 389.52 279.549 389.194C276.437 382.365 281.733 333.06 281.958 330.952C282.009 330.45 282.46 330.073 282.962 330.148C283.464 330.198 283.841 330.65 283.765 331.152C282.234 345.286 278.771 383.144 281.18 388.415C281.381 388.867 281.18 389.42 280.729 389.646C280.653 389.696 280.503 389.721 280.377 389.721Z" fill="#79A1BC"/>
<path d="M406.116 249.136C406.116 249.136 403.606 298.843 355.042 333.813C306.479 368.809 240.949 282.45 240.949 282.45C240.949 282.45 251.766 244.969 258.166 241.078C258.166 241.078 262.935 239.572 272.497 246.199C282.059 252.827 300.706 266.233 300.706 266.233" fill="white"/>
<path d="M329.493 343.002C314.435 343.002 297.444 335.973 279.223 321.989C256.936 304.893 240.397 283.228 240.221 283.002L239.945 282.626L240.071 282.174C241.2 278.308 251.189 244.241 257.689 240.275L257.89 240.174C258.091 240.099 263.186 238.618 273.024 245.421C282.511 251.973 301.058 265.329 301.258 265.454L300.179 266.936C300.004 266.81 281.431 253.455 271.97 246.902C263.713 241.204 259.22 241.756 258.517 241.881C253.573 245.22 245.04 271.63 241.953 282.199C244.212 285.111 259.822 304.768 280.352 320.483C309.766 343.027 334.713 347.244 354.49 333.01C402.125 298.718 405.162 249.513 405.187 249.036L407.019 249.137C406.994 249.639 403.932 299.672 355.569 334.516C347.764 340.215 339.005 343.002 329.493 343.002Z" fill="#79A1BC"/>
<path d="M335.893 240.701C335.767 240.701 335.617 240.676 335.491 240.601C335.04 240.375 334.839 239.823 335.065 239.371C335.19 239.12 347.237 214.568 351.955 200.032C356.724 185.321 368.545 168.401 384.206 163.731C384.682 163.581 385.209 163.857 385.36 164.359C385.511 164.836 385.235 165.363 384.733 165.514C369.724 169.982 358.355 186.376 353.712 200.61C348.944 215.271 336.847 239.948 336.721 240.199C336.545 240.526 336.219 240.701 335.893 240.701Z" fill="#79A1BC"/>
<path d="M235.076 332.081L234.976 331.178C235.202 331.153 258.668 328.491 271.618 316.215L272.246 316.893C259.069 329.37 235.327 332.056 235.076 332.081Z" fill="#79A1BC"/>
<path d="M349.094 368.934C330.648 368.934 319.755 360.776 319.58 360.65C319.178 360.349 319.103 359.771 319.404 359.37C319.705 358.968 320.282 358.893 320.684 359.194C320.91 359.37 344.526 376.968 381.269 359.094C381.721 358.868 382.273 359.068 382.499 359.52C382.725 359.972 382.524 360.524 382.072 360.75C369.473 366.901 358.355 368.934 349.094 368.934Z" fill="#79A1BC"/>
<path d="M309.917 214.367L308.085 214.116C308.888 208.066 319.755 194.71 332.329 179.221C343.397 165.614 354.841 151.531 359.334 142.292C362.396 135.991 362.948 131.071 360.99 127.657C358.531 123.389 352.783 122.887 352.733 122.887L352.859 121.054C353.135 121.079 359.61 121.606 362.571 126.728C364.855 130.694 364.328 136.217 360.965 143.096C356.372 152.51 344.878 166.694 333.734 180.376C322.416 194.359 310.67 208.819 309.917 214.367Z" fill="#074772"/>
<path d="M313.039 221.855C316.2 216.654 316.055 210.791 312.715 208.76C309.375 206.728 304.105 209.298 300.944 214.499C297.783 219.7 297.928 225.563 301.268 227.594C304.608 229.625 309.878 227.056 313.039 221.855Z" fill="#5C93E1"/>
<path d="M303.844 229.204C301.911 229.204 300.255 228.375 299.175 226.894C297.569 224.735 297.293 221.446 298.397 217.907C300.28 211.882 305.425 207.137 310.118 207.137C312.05 207.137 313.707 207.965 314.786 209.447C316.392 211.606 316.668 214.894 315.564 218.434C313.707 224.484 308.537 229.204 303.844 229.204ZM310.118 208.995C306.228 208.995 301.76 213.237 300.154 218.459C299.251 221.396 299.426 224.158 300.656 225.815C301.409 226.844 302.513 227.371 303.844 227.371C307.734 227.371 312.201 223.128 313.807 217.907C314.711 214.97 314.535 212.208 313.305 210.551C312.552 209.522 311.448 208.995 310.118 208.995Z" fill="#074772"/>
<path d="M253.071 225.388C250.637 210.877 250.034 190.894 260.952 178.016C266.498 171.464 272.773 169.405 274.806 168.878C276.06 160.016 286.2 140.535 286.652 139.707L288.283 140.56C288.183 140.761 277.34 161.572 276.562 169.731L276.487 170.434L275.809 170.56C275.734 170.585 268.456 171.991 262.282 179.321C254.05 189.087 251.515 204.928 254.903 225.086L253.071 225.388Z" fill="#074772"/>
<path d="M276.839 228.727L275.282 227.748C275.533 227.346 300.581 186.777 275.157 170.409L276.161 168.853C303.091 186.225 277.115 228.325 276.839 228.727Z" fill="#074772"/>
<path d="M286.652 195.087C283.314 188.409 279.022 184.518 273.877 183.489C265.093 181.756 256.61 189.012 256.51 189.087L255.305 187.706C255.681 187.38 264.541 179.798 274.228 181.706C279.951 182.836 284.694 187.079 288.308 194.283L286.652 195.087Z" fill="#074772"/>
<path d="M254.577 227.848C253.146 227.848 251.766 226.668 251.515 225.237L250.888 221.622C250.637 220.191 251.59 219.011 253.046 219.011C254.477 219.011 255.857 220.191 256.108 221.622L256.735 225.237C256.986 226.693 256.007 227.848 254.577 227.848Z" fill="#5C93E1"/>
<path d="M254.577 228.777C252.67 228.777 250.938 227.296 250.612 225.413L249.984 221.798C249.809 220.844 250.059 219.89 250.637 219.187C251.214 218.484 252.067 218.108 253.046 218.108C254.953 218.108 256.685 219.589 257.011 221.472L257.639 225.087C257.815 226.041 257.564 226.994 256.986 227.697C256.384 228.4 255.531 228.777 254.577 228.777ZM253.021 219.94C252.619 219.94 252.268 220.091 252.017 220.367C251.791 220.643 251.691 221.045 251.766 221.472L252.394 225.087C252.569 226.091 253.573 226.944 254.552 226.944C254.953 226.944 255.33 226.794 255.556 226.517C255.782 226.241 255.882 225.84 255.807 225.413L255.179 221.798C255.004 220.794 254.025 219.94 253.021 219.94Z" fill="#074772"/>
<path d="M274.329 230.333C273.275 229.354 273.049 227.572 273.852 226.342L275.835 223.254C276.613 222.024 278.118 221.823 279.173 222.802C280.227 223.781 280.453 225.564 279.649 226.794L277.667 229.881C276.889 231.112 275.408 231.312 274.329 230.333Z" fill="#5C93E1"/>
<path d="M275.835 231.89C275.057 231.89 274.329 231.589 273.726 231.036C272.346 229.756 272.045 227.471 273.099 225.865L275.082 222.777C275.609 221.948 276.437 221.421 277.34 221.296C278.244 221.17 279.122 221.471 279.85 222.124C281.231 223.405 281.532 225.689 280.478 227.296L278.495 230.384C277.968 231.212 277.14 231.739 276.236 231.865C276.086 231.865 275.96 231.89 275.835 231.89ZM274.956 229.681C275.257 229.957 275.634 230.082 275.96 230.032C276.337 229.982 276.663 229.756 276.889 229.379L278.871 226.292C279.424 225.438 279.273 224.133 278.545 223.455C278.244 223.179 277.893 223.053 277.541 223.103C277.165 223.153 276.838 223.379 276.613 223.756L274.63 226.844C274.078 227.697 274.228 229.003 274.956 229.681Z" fill="#074772"/>
<path d="M334.111 242.81C323.068 242.132 301.986 262.768 302.237 268.141C302.237 268.141 309.766 277.73 322.24 268.141C322.24 268.141 330.095 273.789 338.152 272.408C338.152 272.408 343.899 275.044 343.322 271.203C343.322 271.203 345.179 270.199 344.752 267.739C344.326 265.279 340.486 252.827 334.412 250.894C334.412 250.894 335.466 249.413 339.005 250.367C342.519 251.321 349.772 255.362 352.533 254.961C352.507 254.961 347.764 243.639 334.111 242.81Z" fill="#FEB7C5"/>
<path d="M342.87 271.329C340.335 261.739 329.97 253.806 329.87 253.731L330.422 253.003C330.848 253.329 341.138 261.187 343.748 271.103L342.87 271.329Z" fill="#FEA0AE"/>
<path d="M337.725 272.609C336.194 269.496 326.557 261.689 326.456 261.613L327.033 260.91C327.435 261.237 336.922 268.919 338.553 272.207L337.725 272.609Z" fill="#FEA0AE"/>
<path d="M240.974 236.032C240.924 236.032 240.899 236.032 240.849 236.032C240.347 235.957 239.995 235.505 240.046 235.003C240.196 233.748 243.986 204.099 248.052 193.129C248.227 192.652 248.754 192.401 249.231 192.576C249.708 192.752 249.959 193.279 249.783 193.756C245.768 204.526 241.903 234.927 241.878 235.229C241.828 235.706 241.426 236.032 240.974 236.032Z" fill="#79A1BC"/>
<path d="M309.779 219.872C311.234 217.479 311.165 214.78 309.625 213.844C308.085 212.907 305.658 214.088 304.204 216.481C302.749 218.875 302.818 221.574 304.358 222.51C305.898 223.446 308.325 222.265 309.779 219.872Z" fill="white"/>
<path d="M305.524 223.755C304.47 223.755 303.566 223.303 302.964 222.5C302.136 221.37 301.985 219.713 302.537 217.931C303.466 214.968 306.026 212.634 308.41 212.634C309.464 212.634 310.368 213.086 310.97 213.889C311.798 215.019 311.949 216.676 311.397 218.458C310.468 221.42 307.908 223.755 305.524 223.755ZM308.41 214.441C306.854 214.441 304.972 216.274 304.294 218.433C303.918 219.638 303.968 220.742 304.445 221.37C304.696 221.722 305.047 221.897 305.524 221.897C307.08 221.897 308.962 220.065 309.64 217.906C310.017 216.701 309.966 215.596 309.489 214.968C309.239 214.617 308.862 214.441 308.41 214.441Z" fill="#092A7C"/>
<path d="M284.594 79.883C278.244 79.883 273.099 74.0839 273.099 66.9793C273.099 59.8497 278.244 54.0757 284.594 54.0757C290.943 54.0757 296.088 59.8748 296.088 66.9793C296.088 74.0839 290.943 79.883 284.594 79.883ZM284.594 55.9083C279.273 55.9083 274.931 60.879 274.931 66.9793C274.931 73.0797 279.273 78.0504 284.594 78.0504C289.914 78.0504 294.256 73.0797 294.256 66.9793C294.256 60.879 289.914 55.9083 284.594 55.9083Z" fill="#0F004F"/>
<path d="M313.129 85.682C306.002 85.682 300.229 79.8829 300.229 72.7784C300.229 65.6488 306.027 59.8748 313.129 59.8748C320.232 59.8748 326.03 65.6739 326.03 72.7784C326.03 79.908 320.257 85.682 313.129 85.682ZM313.129 61.7074C307.031 61.7074 302.061 66.678 302.061 72.7784C302.061 78.8788 307.031 83.8494 313.129 83.8494C319.228 83.8494 324.198 78.8788 324.198 72.7784C324.198 66.678 319.228 61.7074 313.129 61.7074Z" fill="#0F004F"/>
<path d="M301.158 69.2136C298.723 66.176 295.938 67.6069 295.611 67.7575L294.708 66.1509C296.214 65.2973 299.803 64.5693 302.589 68.0337L301.158 69.2136Z" fill="#0F004F"/>
<path d="M344.389 64.726L324.838 70.7393L325.377 72.4909L344.927 66.4776L344.389 64.726Z" fill="#0F004F"/>
</svg>
