<svg width="573" height="517" viewBox="0 0 573 517" fill="none" xmlns="http://www.w3.org/2000/svg">
<path fill-rule="evenodd" clip-rule="evenodd" d="M443.848 116.85C450.609 119.017 449.626 116.622 451.948 123.737C453.075 127.187 454.651 132.948 454.441 138.079L453.601 138.465L454.441 138.079C456.324 135.839 460.11 133.433 462.852 131.615C466.611 129.122 468.869 128.876 474.028 127.655C472.746 122.373 469.894 119.105 468.797 114.01C465.848 112.228 466.554 110.303 466.586 106.409C467.85 103.602 466.566 105.552 469.453 103.14C476.543 97.2156 474.871 88.488 465.669 91.5113C461.958 92.0084 455.844 93.2821 453.803 84.8672L452.482 82.8025C443.064 78.4579 449.445 85.9586 449.756 87.8886C450.43 92.0539 448.908 98.0695 444.281 98.9167C434.159 100.77 448.538 59.6841 433.311 93.0208C432.315 93.9062 431.173 96.5506 430.306 97.0279C426.348 99.2064 427.244 100.497 429.765 102.377C433.556 105.205 433.267 107.557 437.616 111.722C437.745 111.845 437.938 112.021 438.071 112.138L442.084 115.249C442.251 115.39 442.513 115.636 442.651 115.757C442.796 115.884 443.103 116.176 443.209 116.003C443.319 115.826 443.65 116.66 443.848 116.85Z" fill="#FDBDB4"/>
<path fill-rule="evenodd" clip-rule="evenodd" d="M404.634 472.603C396.006 474.225 389.7 478.171 374.988 475.921C373.404 485.146 361.146 492.936 358.617 497.824C356.126 502.637 357.899 517.492 365.475 516.187C383.351 513.108 403.778 501.006 407.511 495.39C411.244 489.775 412.842 482.303 409.502 478.355L404.634 472.603Z" fill="#808080"/>
<path fill-rule="evenodd" clip-rule="evenodd" d="M386.492 365.044L337.818 334.07L305.958 461.064C312.374 465.637 323.768 471.094 336.933 470.357L386.492 365.044Z" fill="#336699"/>
<path d="M418.673 512.373C426.615 512.373 433.054 506.43 433.054 499.098C433.054 491.767 426.615 485.824 418.673 485.824C410.731 485.824 404.292 491.767 404.292 499.098C404.292 506.43 410.731 512.373 418.673 512.373Z" fill="#4A4A4A"/>
<path fill-rule="evenodd" clip-rule="evenodd" d="M126.108 248.256L125.818 247.441C125.678 247.754 125.497 248.426 125.28 249.232C124.957 250.437 124.552 251.943 124.08 253.003L0.936074 253.016C-0.694597 263.073 0.217101 372.308 0.618425 420.393C0.690023 428.971 0.745377 435.604 0.767152 439.379C0.807469 446.332 0.702349 453.569 0.596224 460.875C0.402119 474.239 0.204654 487.834 0.887568 500.342L11.316 500.278L11.8555 265.638C19.421 266.14 41.6378 265.945 65.2154 265.739C97.3389 265.458 131.988 265.155 135.55 266.56C136.809 269.708 136.64 337.429 136.484 399.673C136.37 445.57 136.263 488.489 136.741 500.344L147.203 500.177L147.686 265.521C246.956 265.482 347.093 264.457 368.894 260.73C369.624 260.34 370.704 258.659 371.711 257.092C372.541 255.801 373.321 254.587 373.815 254.235C374.288 253.898 374.546 253.74 374.678 253.675C374.654 253.768 374.728 253.731 374.772 253.69C374.816 253.648 374.828 253.601 374.678 253.675C374.7 253.593 374.798 253.412 375.059 253.048C363.79 253.633 310.58 254.526 301.161 253.536C300.611 252.244 300.213 249.962 299.954 248.48C299.849 247.878 299.767 247.408 299.707 247.19L299.5 248L299.083 248.429L299.078 254.268L126.094 254.086L126.108 248.256Z" fill="#130060"/>
<path d="M126.108 248.256L299.083 248.429L299.5 248L299.707 247.19L251.526 247.394L251.734 220.336L371.847 220.325C391.884 194.79 349.301 207.393 370.963 200.699C372.49 195.796 373.058 192.794 373.236 190.601L373.241 187.659C354.489 185.75 349.351 189.877 341.665 189.306C336.563 188.927 344.985 194.806 341.314 193.393L331.152 186.824L45.4451 187.371L45.4668 5.63667L373.542 5.80525L373.241 187.659L373.276 187.663C373.315 188.525 373.329 189.452 373.236 190.601L373.235 190.832C376.605 191.929 375.629 192.501 379.421 193.131L379.265 0L40.1667 0.621125L40.2596 219.805C62.2611 220.541 85.2978 219.966 107.423 220.027L166.181 220.115C172.765 220.037 169.752 220.188 173.764 221.006L173.655 247.15L125.818 247.441L126.108 248.256Z" fill="#130060"/>
<path fill-rule="evenodd" clip-rule="evenodd" d="M416.579 474.449C416.158 476.266 415.404 477.549 415.36 479.368C415.337 480.327 415.337 481.227 415.578 482.149C416.116 484.199 416.035 483.512 416.878 484.698C419.879 483.357 418.363 484.237 419.537 481.115C420.796 477.765 421.753 473.518 428.314 472.045L477.426 471.929C489.283 472.546 486.597 481.365 488.809 484.811C492.687 483.437 492.335 483.568 492.623 481.31C492.655 478.37 491.579 476.539 491.429 476.269L489.099 472.101C492.716 471.554 509.814 471.351 513.262 471.935C519.828 473.047 521.614 476.359 522.678 479.713C524.295 484.811 519.825 483.961 525.582 484.49C526.115 482.689 526.377 482.782 526.711 480.891C528.594 470.265 519.601 467.51 510.712 467.376C459.005 466.595 466.038 471.904 466.053 455.159C466.06 447.562 466.033 439.963 466.025 432.365C466.009 417.165 465.967 401.963 466.024 386.762C466.073 373.923 461.791 378.456 461.865 368.425C461.918 361.215 461.787 353.956 461.942 346.76C468.701 345.745 474.319 347.573 480.635 345.124L481.528 344.471L482.572 343.766L483.483 342.927L484.246 341.948L485.211 340.26L485.95 336.761C483.121 335.623 428.099 335.843 421.37 336.337C422.111 340.066 423.491 342.422 425.396 343.911C429.811 347.358 437.053 346.153 445.73 346.585C446.345 353.019 447.141 371.773 444.074 376.298C439.937 382.401 441.692 395.467 441.692 404.313C441.692 425.189 441.743 446.08 441.649 467.026L432.816 467.111C418.453 467.263 416.584 474.434 416.579 474.449Z" fill="#9C9C9C"/>
<path fill-rule="evenodd" clip-rule="evenodd" d="M454.657 137.971L453.817 138.357C444.434 150.246 433.967 161.279 429.622 177.238L424.706 201.276C415.732 221.884 417.294 205.899 391.286 195.789C381.084 191.823 367.487 188.544 358.842 190.248L359.293 191.793C359.059 192.988 358.548 193.354 358.315 194.549L353.702 198.497C365.707 213.648 366.542 222.977 415.905 259.513L435.448 266.847L454.538 167.763C455.97 159.276 460.837 153.204 467.791 150.789C477.384 147.459 544.049 148.244 554.28 149.093L487.009 148.309C485.077 143.721 477.618 129.658 474.245 127.547C469.085 128.768 466.827 129.014 463.068 131.506C460.327 133.325 456.54 135.731 454.657 137.971Z" fill="#9CC3FC"/>
<path fill-rule="evenodd" clip-rule="evenodd" d="M443.994 116.742C444.116 116.796 444.522 116.03 443.434 115.082C443.296 114.962 442.467 115.282 442.3 115.141L438.287 112.03C438.154 111.913 437.961 111.737 437.832 111.614C433.482 107.449 434.658 104.654 430.866 101.827C436.563 98.3913 434.385 100.66 444.497 98.8087C449.124 97.9615 450.645 91.9458 449.972 87.7805C448.827 80.6889 454.683 82.8653 448.992 81.4799C448.992 81.4833 444.501 77.5993 437.433 75.9851C434.551 75.3265 436.953 93.1168 431.504 103.884C433.847 106.527 433.241 109.725 438.849 114.014L439.839 114.76C440.006 114.872 440.184 115.029 440.375 115.115L443.994 116.742Z" fill="#FDBDB4" stroke="#FDBDB4" stroke-width="0.1" stroke-miterlimit="22.9256"/>
<path d="M495.667 510.604C503.609 510.604 510.047 504.66 510.047 497.329C510.047 489.997 503.609 484.054 495.667 484.054C487.724 484.054 481.286 489.997 481.286 497.329C481.286 504.66 487.724 510.604 495.667 510.604Z" fill="#4A4A4A"/>
<path d="M529.296 510.604C537.238 510.604 543.676 504.66 543.676 497.329C543.676 489.997 537.238 484.054 529.296 484.054C521.353 484.054 514.915 489.997 514.915 497.329C514.915 504.66 521.353 510.604 529.296 510.604Z" fill="#4A4A4A"/>
<path fill-rule="evenodd" clip-rule="evenodd" d="M448.915 83.1938L452.366 82.8884C452.456 83.8992 451.994 84.3856 452.83 86.0041C453.743 86.9815 456.305 91.6957 461.571 91.8863C472.688 85.7513 481.2 95.8051 466.636 104.697C466.604 108.591 466.064 112.12 469.013 113.902C470.167 113.682 469.869 111.279 471.118 110.82C477.349 108.53 485.787 105.712 488.322 102.29C492.522 96.6212 495.951 85.9326 493.499 76.9287C489.039 60.5548 460.155 53.4073 448.704 64.8726C448.355 64.889 439.702 56.8387 437.048 54.4903C434.589 52.3152 431.784 50.8087 425.307 52.2861C407.417 59.4417 421.15 86.4721 448.915 83.1938Z" fill="#418DFA"/>
<path d="M335.982 169.543C346.373 169.968 360.422 188.822 359.673 193.82C359.673 193.82 355.402 204.523 344.656 194.362C344.656 194.362 336.769 198.89 329.367 196.827C329.367 196.827 323.74 198.74 324.648 195.205C324.648 195.205 323.007 194.088 323.642 191.829C324.277 189.57 329.061 178.297 334.925 177.072C334.925 177.072 334.081 175.586 330.681 176.139C327.304 176.693 320.134 179.777 317.591 179.137C317.615 179.139 323.135 169.009 335.982 169.543Z" fill="#FDBDB4"/>
<path fill-rule="evenodd" clip-rule="evenodd" d="M473.948 86.8376L452.369 82.9038C452.212 83.7959 452.128 84.2227 452.377 84.9575C453.37 87.8906 454.875 88.7923 456.58 90.2122C458.784 91.9361 460.074 91.8348 461.946 91.9823C466.647 92.0923 470.351 90.9588 471.487 91.8435C472.303 92.4787 472.599 92.6626 472.953 93.448C473.782 95.293 473.569 98.8284 471.846 100.279L466.592 104.704C466.728 107.499 464.985 112.213 468.763 114.08C470.133 113.708 471.82 113.055 473.238 112.533C479.8 110.115 486.446 107.908 490.21 103.322C493.975 98.7358 494.427 96.1071 493.764 89.1747L473.948 86.8376Z" fill="#FF6600"/>
<path d="M431.186 103.239C431.404 103.309 431.626 103.208 431.727 103C431.833 102.776 431.732 102.502 431.507 102.396C430.669 102.007 428.1 100.789 428.076 99.5766C428.057 98.831 429.044 98.1664 429.857 97.7219C434.455 95.2899 435.748 87.1065 435.766 86.8887C435.778 86.6345 435.585 86.4348 435.331 86.4225C435.076 86.4098 434.877 86.6038 434.864 86.858C434.865 86.9098 433.563 94.7464 429.439 96.9342C427.889 97.745 427.158 98.629 427.175 99.5977C427.208 101.157 429.3 102.36 431.108 103.214C431.144 103.209 431.155 103.229 431.186 103.239Z" fill="#F59DAB"/>
<path d="M415.241 210.734C420.92 215.454 425.949 217.132 429.194 224.728" stroke="#3F4FC4" stroke-width="0.0762" stroke-miterlimit="22.9256"/>
<path fill-rule="evenodd" clip-rule="evenodd" d="M437.379 264.411L430.741 306.447L401.979 313.527C399.62 318.837 397.26 324.147 394.9 329.457C408.322 338.454 400.947 427.099 407.732 471.054C400.533 475.93 384.492 478.324 374.102 475.921L332.508 333.881C321.799 274.254 354.956 259.324 411.687 256.307C420.795 262.245 416.877 259.469 437.379 264.411Z" fill="#6699FF"/>
<path fill-rule="evenodd" clip-rule="evenodd" d="M435.448 266.847C434.36 272.925 429.007 303.035 428.37 303.635C424.269 307.502 392.674 302.838 394.798 336.057L421.37 336.336C428.1 335.842 483.121 335.623 485.95 336.761L485.211 340.26L484.246 341.947L483.483 342.927L482.572 343.766L481.529 344.471L480.635 345.124L481.529 344.471L482.572 343.766L483.483 342.927L484.246 341.947L485.211 340.26L485.95 336.761C494.115 335.685 506.442 336.402 515.062 336.403C518.146 336.403 540.645 337.498 542.641 335.383C544.226 333.702 567.073 206.767 570.673 187.195C572.858 175.309 578.304 153.51 554.28 149.093C544.049 148.244 477.384 147.459 467.791 150.789C460.837 153.205 455.969 159.276 454.538 167.763L435.448 266.847Z" fill="#AD6951"/>
<path d="M439.545 85.7778C439.369 85.4774 439.52 85.3005 439.915 85.2322C440.042 85.2061 443.087 84.5843 445.948 85.7437C447.655 86.4517 448.9 87.6338 449.653 89.2614C449.781 89.5561 449.613 89.8541 449.198 89.9136C448.217 89.9615 448.948 84.8984 440.195 85.8845C439.953 85.948 439.617 85.8845 439.545 85.7778Z" fill="#CC6633"/>
<path d="M439.634 92.8366C440.409 92.8366 441.037 92.1262 441.037 91.2499C441.037 90.3735 440.409 89.6631 439.634 89.6631C438.858 89.6631 438.23 90.3735 438.23 91.2499C438.23 92.1262 438.858 92.8366 439.634 92.8366Z" fill="black"/>
<path d="M442.589 106.283C435.99 106.162 436.009 104.949 436.009 104.949C436.009 104.949 436.537 112.003 442.772 111.423C449.008 110.819 447.77 105.858 447.77 105.858L442.589 106.283Z" fill="white"/>
<path d="M470.196 96.9951L470.587 97.1125C470.902 96.0729 471.067 93.9406 469.432 93.3398L469.291 93.7235C470.988 94.3383 470.211 96.9636 470.196 96.9951Z" fill="#9C9C9C"/>
<path fill-rule="evenodd" clip-rule="evenodd" d="M330.278 470.208C321.642 468.994 324.464 469.034 309.713 463.463C307.226 472.486 285.078 486.219 282.079 490.833C279.125 495.377 279.423 510.335 287.09 509.784C305.183 508.484 326.705 498.456 330.974 493.237C335.243 488.019 337.587 480.728 334.637 476.482L330.278 470.208Z" fill="#808080"/>
<path fill-rule="evenodd" clip-rule="evenodd" d="M451.513 122.4C451.061 120.722 450.471 119.431 449.411 118.279C453.928 118.463 459.33 116.989 463.847 115.514C459.736 117.809 455.624 120.104 451.513 122.4Z" fill="#F59DAB"/>
<path d="M127.092 55.7881V61H126.011V48.2031H130.37C131.7 48.2031 132.749 48.543 133.517 49.2227C134.29 49.9023 134.677 50.8369 134.677 52.0264C134.677 53.2275 134.305 54.1562 133.561 54.8125C132.822 55.4629 131.75 55.7881 130.344 55.7881H127.092ZM127.092 54.874H130.37C131.419 54.874 132.219 54.625 132.77 54.127C133.32 53.6289 133.596 52.9346 133.596 52.0439C133.596 51.1592 133.32 50.4561 132.77 49.9346C132.225 49.4072 131.448 49.1377 130.44 49.126H127.092V54.874ZM142.754 61C142.648 60.7012 142.581 60.2588 142.552 59.6729C142.183 60.1533 141.711 60.5254 141.137 60.7891C140.568 61.0469 139.965 61.1758 139.326 61.1758C138.412 61.1758 137.671 60.9209 137.103 60.4111C136.54 59.9014 136.259 59.2568 136.259 58.4775C136.259 57.5518 136.643 56.8193 137.41 56.2803C138.184 55.7412 139.259 55.4717 140.636 55.4717H142.543V54.3906C142.543 53.7109 142.332 53.1777 141.91 52.791C141.494 52.3984 140.885 52.2021 140.082 52.2021C139.35 52.2021 138.743 52.3896 138.263 52.7646C137.782 53.1396 137.542 53.5908 137.542 54.1182L136.487 54.1094C136.487 53.3535 136.839 52.7002 137.542 52.1494C138.245 51.5928 139.109 51.3145 140.135 51.3145C141.195 51.3145 142.03 51.5811 142.64 52.1143C143.255 52.6416 143.571 53.3799 143.589 54.3291V58.8291C143.589 59.749 143.686 60.4375 143.879 60.8945V61H142.754ZM139.449 60.2441C140.152 60.2441 140.779 60.0742 141.33 59.7344C141.887 59.3945 142.291 58.9404 142.543 58.3721V56.2803H140.662C139.613 56.292 138.793 56.4854 138.201 56.8604C137.609 57.2295 137.313 57.7393 137.313 58.3896C137.313 58.9229 137.51 59.3652 137.902 59.7168C138.301 60.0684 138.816 60.2441 139.449 60.2441ZM141.523 47.5H142.798L140.768 49.9609H139.845L141.523 47.5ZM145.979 56.1572C145.979 54.6689 146.308 53.4912 146.964 52.624C147.626 51.751 148.522 51.3145 149.653 51.3145C150.948 51.3145 151.933 51.8301 152.606 52.8613L152.659 51.4902H153.644V60.8066C153.644 62.0312 153.301 63.001 152.615 63.7158C151.93 64.4307 151.001 64.7881 149.829 64.7881C149.167 64.7881 148.534 64.6387 147.931 64.3398C147.333 64.0469 146.861 63.6543 146.516 63.1621L147.104 62.5293C147.849 63.4434 148.733 63.9004 149.759 63.9004C150.638 63.9004 151.323 63.6396 151.815 63.1182C152.308 62.6025 152.562 61.8848 152.58 60.9648V59.7695C151.906 60.707 150.925 61.1758 149.636 61.1758C148.534 61.1758 147.649 60.7363 146.981 59.8574C146.313 58.9785 145.979 57.792 145.979 56.2979V56.1572ZM147.043 56.3418C147.043 57.5547 147.286 58.5127 147.772 59.2158C148.259 59.9131 148.944 60.2617 149.829 60.2617C151.124 60.2617 152.041 59.6816 152.58 58.5215V54.1006C152.334 53.4912 151.979 53.0283 151.517 52.7119C151.054 52.3896 150.497 52.2285 149.847 52.2285C148.962 52.2285 148.273 52.5771 147.781 53.2744C147.289 53.9658 147.043 54.9883 147.043 56.3418ZM157.563 61H156.509V51.4902H157.563V61ZM156.324 48.7393C156.324 48.54 156.389 48.373 156.518 48.2383C156.646 48.0977 156.822 48.0273 157.045 48.0273C157.268 48.0273 157.443 48.0977 157.572 48.2383C157.707 48.373 157.774 48.54 157.774 48.7393C157.774 48.9385 157.707 49.1055 157.572 49.2402C157.443 49.375 157.268 49.4424 157.045 49.4424C156.822 49.4424 156.646 49.375 156.518 49.2402C156.389 49.1055 156.324 48.9385 156.324 48.7393ZM161.431 51.4902L161.466 53.1162C161.823 52.5303 162.269 52.085 162.802 51.7803C163.335 51.4697 163.924 51.3145 164.568 51.3145C165.588 51.3145 166.347 51.6016 166.845 52.1758C167.343 52.75 167.595 53.6113 167.601 54.7598V61H166.555V54.751C166.549 53.9014 166.367 53.2686 166.01 52.8525C165.658 52.4365 165.093 52.2285 164.313 52.2285C163.663 52.2285 163.086 52.4336 162.582 52.8438C162.084 53.248 161.715 53.7959 161.475 54.4873V61H160.429V51.4902H161.431ZM176.328 61C176.223 60.7012 176.155 60.2588 176.126 59.6729C175.757 60.1533 175.285 60.5254 174.711 60.7891C174.143 61.0469 173.539 61.1758 172.9 61.1758C171.986 61.1758 171.245 60.9209 170.677 60.4111C170.114 59.9014 169.833 59.2568 169.833 58.4775C169.833 57.5518 170.217 56.8193 170.984 56.2803C171.758 55.7412 172.833 55.4717 174.21 55.4717H176.117V54.3906C176.117 53.7109 175.906 53.1777 175.484 52.791C175.068 52.3984 174.459 52.2021 173.656 52.2021C172.924 52.2021 172.317 52.3896 171.837 52.7646C171.356 53.1396 171.116 53.5908 171.116 54.1182L170.062 54.1094C170.062 53.3535 170.413 52.7002 171.116 52.1494C171.819 51.5928 172.684 51.3145 173.709 51.3145C174.77 51.3145 175.604 51.5811 176.214 52.1143C176.829 52.6416 177.146 53.3799 177.163 54.3291V58.8291C177.163 59.749 177.26 60.4375 177.453 60.8945V61H176.328ZM173.023 60.2441C173.727 60.2441 174.354 60.0742 174.904 59.7344C175.461 59.3945 175.865 58.9404 176.117 58.3721V56.2803H174.236C173.188 56.292 172.367 56.4854 171.775 56.8604C171.184 57.2295 170.888 57.7393 170.888 58.3896C170.888 58.9229 171.084 59.3652 171.477 59.7168C171.875 60.0684 172.391 60.2441 173.023 60.2441ZM185.354 51.4902L185.39 53.1162C185.747 52.5303 186.192 52.085 186.726 51.7803C187.259 51.4697 187.848 51.3145 188.492 51.3145C189.512 51.3145 190.271 51.6016 190.769 52.1758C191.267 52.75 191.519 53.6113 191.524 54.7598V61H190.479V54.751C190.473 53.9014 190.291 53.2686 189.934 52.8525C189.582 52.4365 189.017 52.2285 188.237 52.2285C187.587 52.2285 187.01 52.4336 186.506 52.8438C186.008 53.248 185.639 53.7959 185.398 54.4873V61H184.353V51.4902H185.354ZM193.669 56.1045C193.669 55.1904 193.845 54.3672 194.196 53.6348C194.554 52.9023 195.055 52.334 195.699 51.9297C196.35 51.5195 197.085 51.3145 197.905 51.3145C199.171 51.3145 200.196 51.7598 200.981 52.6504C201.767 53.5352 202.159 54.71 202.159 56.1748V56.3945C202.159 57.3145 201.98 58.1436 201.623 58.8818C201.271 59.6143 200.773 60.1797 200.129 60.5781C199.484 60.9766 198.749 61.1758 197.923 61.1758C196.663 61.1758 195.638 60.7334 194.847 59.8486C194.062 58.958 193.669 57.7803 193.669 56.3154V56.1045ZM194.724 56.3945C194.724 57.5312 195.017 58.4658 195.603 59.1982C196.194 59.9248 196.968 60.2881 197.923 60.2881C198.872 60.2881 199.64 59.9248 200.226 59.1982C200.817 58.4658 201.113 57.502 201.113 56.3066V56.1045C201.113 55.3779 200.979 54.7129 200.709 54.1094C200.439 53.5059 200.062 53.04 199.575 52.7119C199.089 52.3779 198.532 52.2109 197.905 52.2109C196.968 52.2109 196.203 52.5801 195.611 53.3184C195.02 54.0508 194.724 55.0117 194.724 56.2012V56.3945ZM212.398 61.1758C211.59 61.1758 210.857 60.9766 210.201 60.5781C209.551 60.1797 209.044 59.626 208.681 58.917C208.317 58.2021 208.136 57.4023 208.136 56.5176V56.1396C208.136 55.2256 208.312 54.4023 208.663 53.6699C209.021 52.9375 209.516 52.3633 210.148 51.9473C210.781 51.5254 211.467 51.3145 212.205 51.3145C213.359 51.3145 214.273 51.71 214.947 52.501C215.627 53.2861 215.967 54.3613 215.967 55.7266V56.3154H209.182V56.5176C209.182 57.5957 209.489 58.4951 210.104 59.2158C210.726 59.9307 211.505 60.2881 212.442 60.2881C213.005 60.2881 213.5 60.1855 213.928 59.9805C214.361 59.7754 214.754 59.4473 215.105 58.9961L215.765 59.4971C214.991 60.6162 213.869 61.1758 212.398 61.1758ZM212.205 52.2109C211.414 52.2109 210.746 52.501 210.201 53.0811C209.662 53.6611 209.334 54.4404 209.217 55.4189H214.921V55.3047C214.892 54.3906 214.631 53.6465 214.139 53.0723C213.646 52.498 213.002 52.2109 212.205 52.2109ZM219.017 51.4902L219.052 53.1162C219.409 52.5303 219.854 52.085 220.388 51.7803C220.921 51.4697 221.51 51.3145 222.154 51.3145C223.174 51.3145 223.933 51.6016 224.431 52.1758C224.929 52.75 225.181 53.6113 225.187 54.7598V61H224.141V54.751C224.135 53.9014 223.953 53.2686 223.596 52.8525C223.244 52.4365 222.679 52.2285 221.899 52.2285C221.249 52.2285 220.672 52.4336 220.168 52.8438C219.67 53.248 219.301 53.7959 219.061 54.4873V61H218.015V51.4902H219.017ZM231.427 60.2881C232.159 60.2881 232.771 60.083 233.264 59.6729C233.762 59.2568 234.031 58.7207 234.072 58.0645H235.083C235.054 58.6445 234.872 59.1748 234.538 59.6553C234.204 60.1299 233.759 60.502 233.202 60.7715C232.651 61.041 232.06 61.1758 231.427 61.1758C230.179 61.1758 229.188 60.7422 228.456 59.875C227.729 59.0078 227.366 57.8418 227.366 56.377V56.0605C227.366 55.123 227.53 54.2939 227.858 53.5732C228.187 52.8525 228.655 52.2959 229.265 51.9033C229.88 51.5107 230.598 51.3145 231.418 51.3145C232.461 51.3145 233.319 51.625 233.993 52.2461C234.673 52.8672 235.036 53.6846 235.083 54.6982H234.072C234.025 53.9541 233.756 53.3535 233.264 52.8965C232.777 52.4395 232.162 52.2109 231.418 52.2109C230.469 52.2109 229.73 52.5537 229.203 53.2393C228.682 53.9248 228.421 54.8857 228.421 56.1221V56.4297C228.421 57.6426 228.682 58.5889 229.203 59.2686C229.73 59.9482 230.472 60.2881 231.427 60.2881ZM236.612 56.1045C236.612 55.1904 236.788 54.3672 237.14 53.6348C237.497 52.9023 237.998 52.334 238.643 51.9297C239.293 51.5195 240.028 51.3145 240.849 51.3145C242.114 51.3145 243.14 51.7598 243.925 52.6504C244.71 53.5352 245.103 54.71 245.103 56.1748V56.3945C245.103 57.3145 244.924 58.1436 244.566 58.8818C244.215 59.6143 243.717 60.1797 243.072 60.5781C242.428 60.9766 241.692 61.1758 240.866 61.1758C239.606 61.1758 238.581 60.7334 237.79 59.8486C237.005 58.958 236.612 57.7803 236.612 56.3154V56.1045ZM237.667 56.3945C237.667 57.5312 237.96 58.4658 238.546 59.1982C239.138 59.9248 239.911 60.2881 240.866 60.2881C241.815 60.2881 242.583 59.9248 243.169 59.1982C243.761 58.4658 244.057 57.502 244.057 56.3066V56.1045C244.057 55.3779 243.922 54.7129 243.652 54.1094C243.383 53.5059 243.005 53.04 242.519 52.7119C242.032 52.3779 241.476 52.2109 240.849 52.2109C239.911 52.2109 239.146 52.5801 238.555 53.3184C237.963 54.0508 237.667 55.0117 237.667 56.2012V56.3945ZM248.284 51.4902L248.319 53.1162C248.677 52.5303 249.122 52.085 249.655 51.7803C250.188 51.4697 250.777 51.3145 251.422 51.3145C252.441 51.3145 253.2 51.6016 253.698 52.1758C254.196 52.75 254.448 53.6113 254.454 54.7598V61H253.408V54.751C253.402 53.9014 253.221 53.2686 252.863 52.8525C252.512 52.4365 251.946 52.2285 251.167 52.2285C250.517 52.2285 249.939 52.4336 249.436 52.8438C248.938 53.248 248.568 53.7959 248.328 54.4873V61H247.282V51.4902H248.284ZM258.813 49.0557V51.4902H260.782V52.3516H258.813V58.6885C258.813 59.2158 258.907 59.6084 259.095 59.8662C259.288 60.124 259.607 60.2529 260.053 60.2529C260.229 60.2529 260.513 60.2236 260.905 60.165L260.949 61.0264C260.674 61.126 260.299 61.1758 259.824 61.1758C259.104 61.1758 258.579 60.9678 258.251 60.5518C257.923 60.1299 257.759 59.5117 257.759 58.6973V52.3516H256.01V51.4902H257.759V49.0557H258.813ZM267.356 52.3867C267.134 52.3457 266.896 52.3252 266.645 52.3252C265.988 52.3252 265.432 52.5098 264.975 52.8789C264.523 53.2422 264.201 53.7725 264.008 54.4697V61H262.962V51.4902H263.99L264.008 53.002C264.564 51.877 265.458 51.3145 266.688 51.3145C266.981 51.3145 267.213 51.3525 267.383 51.4287L267.356 52.3867ZM274.678 61C274.572 60.7012 274.505 60.2588 274.476 59.6729C274.106 60.1533 273.635 60.5254 273.061 60.7891C272.492 61.0469 271.889 61.1758 271.25 61.1758C270.336 61.1758 269.595 60.9209 269.026 60.4111C268.464 59.9014 268.183 59.2568 268.183 58.4775C268.183 57.5518 268.566 56.8193 269.334 56.2803C270.107 55.7412 271.183 55.4717 272.56 55.4717H274.467V54.3906C274.467 53.7109 274.256 53.1777 273.834 52.791C273.418 52.3984 272.809 52.2021 272.006 52.2021C271.273 52.2021 270.667 52.3896 270.187 52.7646C269.706 53.1396 269.466 53.5908 269.466 54.1182L268.411 54.1094C268.411 53.3535 268.763 52.7002 269.466 52.1494C270.169 51.5928 271.033 51.3145 272.059 51.3145C273.119 51.3145 273.954 51.5811 274.563 52.1143C275.179 52.6416 275.495 53.3799 275.513 54.3291V58.8291C275.513 59.749 275.609 60.4375 275.803 60.8945V61H274.678ZM271.373 60.2441C272.076 60.2441 272.703 60.0742 273.254 59.7344C273.811 59.3945 274.215 58.9404 274.467 58.3721V56.2803H272.586C271.537 56.292 270.717 56.4854 270.125 56.8604C269.533 57.2295 269.237 57.7393 269.237 58.3896C269.237 58.9229 269.434 59.3652 269.826 59.7168C270.225 60.0684 270.74 60.2441 271.373 60.2441ZM277.903 56.1572C277.903 54.6807 278.231 53.5059 278.888 52.6328C279.55 51.7539 280.446 51.3145 281.577 51.3145C282.86 51.3145 283.839 51.8213 284.513 52.835V47.5H285.559V61H284.574L284.53 59.7344C283.856 60.6953 282.866 61.1758 281.56 61.1758C280.464 61.1758 279.579 60.7363 278.905 59.8574C278.237 58.9727 277.903 57.7803 277.903 56.2803V56.1572ZM278.967 56.3418C278.967 57.5547 279.21 58.5127 279.696 59.2158C280.183 59.9131 280.868 60.2617 281.753 60.2617C283.048 60.2617 283.968 59.6904 284.513 58.5479V54.083C283.968 52.8467 283.054 52.2285 281.771 52.2285C280.886 52.2285 280.197 52.5771 279.705 53.2744C279.213 53.9658 278.967 54.9883 278.967 56.3418ZM294.33 61C294.225 60.7012 294.157 60.2588 294.128 59.6729C293.759 60.1533 293.287 60.5254 292.713 60.7891C292.145 61.0469 291.541 61.1758 290.902 61.1758C289.988 61.1758 289.247 60.9209 288.679 60.4111C288.116 59.9014 287.835 59.2568 287.835 58.4775C287.835 57.5518 288.219 56.8193 288.986 56.2803C289.76 55.7412 290.835 55.4717 292.212 55.4717H294.119V54.3906C294.119 53.7109 293.908 53.1777 293.486 52.791C293.07 52.3984 292.461 52.2021 291.658 52.2021C290.926 52.2021 290.319 52.3896 289.839 52.7646C289.358 53.1396 289.118 53.5908 289.118 54.1182L288.063 54.1094C288.063 53.3535 288.415 52.7002 289.118 52.1494C289.821 51.5928 290.686 51.3145 291.711 51.3145C292.771 51.3145 293.606 51.5811 294.216 52.1143C294.831 52.6416 295.147 53.3799 295.165 54.3291V58.8291C295.165 59.749 295.262 60.4375 295.455 60.8945V61H294.33ZM291.025 60.2441C291.729 60.2441 292.355 60.0742 292.906 59.7344C293.463 59.3945 293.867 58.9404 294.119 58.3721V56.2803H292.238C291.189 56.292 290.369 56.4854 289.777 56.8604C289.186 57.2295 288.89 57.7393 288.89 58.3896C288.89 58.9229 289.086 59.3652 289.479 59.7168C289.877 60.0684 290.393 60.2441 291.025 60.2441ZM186.125 117.26H192.775V120.219H186.125V131H182.609V120.219H162.541V118.227L182.287 88.3438H186.125V117.26ZM166.848 117.26H182.609V92.8848L181.057 95.5801L166.848 117.26ZM223.596 113.217C223.596 119.232 222.492 123.803 220.285 126.928C218.078 130.033 214.826 131.586 210.529 131.586C206.311 131.586 203.078 130.062 200.832 127.016C198.586 123.949 197.434 119.496 197.375 113.656V106.01C197.375 100.014 198.488 95.4727 200.715 92.3867C202.941 89.3008 206.193 87.7578 210.471 87.7578C214.689 87.7578 217.912 89.252 220.139 92.2402C222.365 95.209 223.518 99.5938 223.596 105.395V113.217ZM220.08 105.57C220.08 100.688 219.279 96.9961 217.678 94.4961C216.096 91.9961 213.693 90.7461 210.471 90.7461C207.307 90.7461 204.924 91.9668 203.322 94.4082C201.721 96.8496 200.9 100.453 200.861 105.219V113.598C200.861 118.461 201.682 122.182 203.322 124.76C204.982 127.338 207.385 128.627 210.529 128.627C213.654 128.627 216.018 127.367 217.619 124.848C219.24 122.328 220.061 118.637 220.08 113.773V105.57ZM252.688 117.26H259.338V120.219H252.688V131H249.172V120.219H229.104V118.227L248.85 88.3438H252.688V117.26ZM233.41 117.26H249.172V92.8848L247.619 95.5801L233.41 117.26Z" fill="#1185FF"/>
</svg>
