<svg width="213" height="192" viewBox="0 0 213 192" fill="none" xmlns="http://www.w3.org/2000/svg">
<path fill-rule="evenodd" clip-rule="evenodd" d="M164.507 43.3092C167.013 44.1124 166.649 43.2248 167.51 45.8619C167.927 47.1406 168.511 49.2758 168.433 51.1774L168.122 51.3205L168.433 51.1774C169.131 50.3473 170.535 49.4554 171.551 48.7815C172.944 47.8578 173.781 47.7665 175.693 47.3141C175.218 45.3561 174.161 44.145 173.754 42.2564C172.661 41.596 172.923 40.8826 172.935 39.4393C173.403 38.3989 172.928 39.1219 173.997 38.2277C176.626 36.0319 176.006 32.7971 172.595 33.9177C171.22 34.1019 168.954 34.574 168.197 31.4551L167.707 30.6899C164.217 29.0796 166.582 31.8597 166.697 32.575C166.947 34.1188 166.383 36.3484 164.668 36.6624C160.916 37.3494 166.246 22.1213 160.602 34.4772C160.233 34.8053 159.809 35.7855 159.488 35.9624C158.021 36.7698 158.353 37.2483 159.288 37.9449C160.693 38.993 160.585 39.8649 162.198 41.4087C162.245 41.4541 162.317 41.5193 162.366 41.5627L163.854 42.7159C163.915 42.768 164.012 42.8594 164.064 42.9039C164.118 42.951 164.231 43.0593 164.271 42.9952C164.311 42.9296 164.434 43.2389 164.507 43.3092V43.3092Z" fill="#FDBDB4"/>
<path fill-rule="evenodd" clip-rule="evenodd" d="M149.973 175.165C146.775 175.766 144.438 177.229 138.985 176.395C138.398 179.814 133.855 182.701 132.917 184.513C131.994 186.297 132.651 191.803 135.459 191.319C142.085 190.178 149.656 185.692 151.04 183.611C152.423 181.53 153.015 178.76 151.777 177.297L149.973 175.165V175.165Z" fill="#808080"/>
<path fill-rule="evenodd" clip-rule="evenodd" d="M143.249 135.3L125.208 123.819L113.4 170.888C115.778 172.583 120.001 174.606 124.88 174.333L143.249 135.3V135.3Z" fill="#336699"/>
<path d="M155.177 189.906C158.12 189.906 160.507 187.703 160.507 184.985C160.507 182.268 158.12 180.065 155.177 180.065C152.233 180.065 149.847 182.268 149.847 184.985C149.847 187.703 152.233 189.906 155.177 189.906Z" fill="#F0F1F2"/>
<path fill-rule="evenodd" clip-rule="evenodd" d="M46.7406 92.0132L110.852 92.0773L110.85 94.2418L46.7353 94.1742L46.7406 92.0132ZM122.738 69.2442L16.8437 69.4469L16.8518 2.08917L138.449 2.15165L138.336 70.7298C139.584 71.1363 139.223 71.3484 140.628 71.5818L140.57 0L14.8873 0.230213L14.9218 81.4682C23.0764 81.7411 31.6147 81.5281 39.8153 81.5504L61.5933 81.583C64.0333 81.5542 62.9165 81.6103 64.4036 81.9134L64.3633 91.6034L46.6331 91.7112C46.5034 92.0006 46.2809 93.117 45.9888 93.7728L0.346946 93.7777C-0.365271 98.1699 0.231029 153.608 0.284336 162.851C0.326611 170.141 -0.062535 178.275 0.328967 185.446L4.19416 185.423L4.39412 98.4558C11.0185 98.8953 47.9511 97.8943 50.2402 98.7977C51.0506 100.824 50.2639 175.094 50.6814 185.447L54.559 185.385L54.7383 98.4124C91.5317 98.3979 128.646 98.0179 136.727 96.6368C137.22 96.3727 138.145 94.5185 138.551 94.2295C139.298 93.6968 138.595 94.3692 139.011 93.7896C139.027 93.7881 140.162 93.8227 139.011 93.7896C134.835 94.0065 115.113 94.3373 111.622 93.9704C111.335 93.2973 111.16 91.8984 111.083 91.6184L93.2253 91.6939L93.3024 81.6651L137.821 81.6609C145.248 72.1966 129.465 76.8677 137.493 74.3867C138.356 71.6171 138.393 70.4842 138.351 69.5552C131.39 68.8444 129.485 70.376 126.634 70.1642C124.743 70.0238 127.865 72.2027 126.504 71.6789L122.738 69.2442Z" fill="black"/>
<path fill-rule="evenodd" clip-rule="evenodd" d="M154.4 175.849C154.244 176.523 153.965 176.998 153.949 177.673C153.94 178.028 153.94 178.361 154.029 178.703C154.229 179.463 154.199 179.208 154.511 179.648C155.624 179.151 155.062 179.477 155.497 178.32C155.963 177.078 156.318 175.504 158.75 174.958L176.953 174.915C181.348 175.144 180.352 178.413 181.172 179.69C182.609 179.18 182.479 179.229 182.585 178.392C182.597 177.303 182.198 176.624 182.143 176.524L181.279 174.979C182.62 174.776 188.957 174.701 190.235 174.918C192.668 175.33 193.33 176.557 193.725 177.8C194.324 179.69 192.667 179.375 194.801 179.571C194.999 178.903 195.096 178.938 195.22 178.237C195.917 174.299 192.584 173.277 189.29 173.228C170.125 172.938 172.732 174.906 172.738 168.699C172.74 165.884 172.73 163.067 172.727 160.251C172.721 154.617 172.706 148.983 172.727 143.349C172.745 138.59 171.158 140.27 171.185 136.553C171.205 133.88 171.156 131.19 171.214 128.523C173.719 128.147 175.801 128.824 178.142 127.916L178.473 127.674L178.86 127.413L179.198 127.102L179.481 126.739L179.838 126.114L180.112 124.817C179.063 124.395 158.67 124.476 156.176 124.659C156.451 126.042 156.962 126.915 157.668 127.467C159.305 128.745 161.989 128.298 165.205 128.458C165.433 130.843 165.728 137.794 164.591 139.471C163.058 141.733 163.708 146.576 163.708 149.854C163.708 157.592 163.727 165.335 163.692 173.098L160.418 173.13C155.095 173.186 154.402 175.844 154.4 175.849V175.849Z" fill="#171B46"/>
<path fill-rule="evenodd" clip-rule="evenodd" d="M168.513 51.1373L168.202 51.2803C164.725 55.6871 160.845 59.7761 159.234 65.6914L157.412 74.6007C154.086 82.2388 154.665 76.3143 145.026 72.5669C141.245 71.0971 136.205 69.8816 133.001 70.5133L133.168 71.0859C133.081 71.5287 132.892 71.6646 132.806 72.1074L131.096 73.5708C135.545 79.1863 135.855 82.644 154.151 96.1854L161.394 98.904L168.469 62.1795C169 59.0339 170.804 56.7835 173.381 55.8882C176.937 54.654 201.646 54.9449 205.438 55.2596L180.505 54.9691C179.788 53.2687 177.024 48.0564 175.773 47.2739C173.861 47.7263 173.024 47.8177 171.631 48.7414C170.615 49.4153 169.212 50.3071 168.513 51.1373V51.1373Z" fill="#9CC3FC"/>
<path fill-rule="evenodd" clip-rule="evenodd" d="M164.562 43.269C164.607 43.289 164.757 43.0053 164.354 42.6538C164.303 42.6093 163.995 42.7279 163.934 42.6757L162.446 41.5225C162.397 41.4791 162.325 41.4139 162.278 41.3685C160.666 39.8247 161.101 38.7889 159.696 37.7409C161.807 36.4676 161 37.3083 164.748 36.6223C166.463 36.3083 167.027 34.0786 166.777 32.5348C166.353 29.9064 168.523 30.7131 166.414 30.1996C166.414 30.2008 164.75 28.7612 162.13 28.163C161.062 27.9189 161.952 34.5127 159.932 38.5034C160.801 39.4828 160.576 40.6682 162.655 42.2578L163.021 42.5345C163.083 42.5759 163.15 42.6343 163.22 42.666L164.562 43.269V43.269Z" fill="#FDBDB4" stroke="#FDBDB4" stroke-width="0.1" stroke-miterlimit="22.9256"/>
<path d="M183.713 189.25C186.657 189.25 189.043 187.047 189.043 184.329C189.043 181.612 186.657 179.409 183.713 179.409C180.77 179.409 178.383 181.612 178.383 184.329C178.383 187.047 180.77 189.25 183.713 189.25Z" fill="#F0F1F2"/>
<path d="M196.178 189.25C199.121 189.25 201.508 187.047 201.508 184.329C201.508 181.612 199.121 179.409 196.178 179.409C193.234 179.409 190.848 181.612 190.848 184.329C190.848 187.047 193.234 189.25 196.178 189.25Z" fill="#F0F1F2"/>
<path fill-rule="evenodd" clip-rule="evenodd" d="M166.386 30.8348L167.665 30.7216C167.698 31.0963 167.526 31.2765 167.836 31.8764C168.175 32.2387 169.124 33.9859 171.076 34.0566C175.197 31.7827 178.351 35.5091 172.954 38.8048C172.942 40.2481 172.741 41.556 173.834 42.2164C174.262 42.1351 174.152 41.2444 174.615 41.074C176.924 40.2256 180.052 39.181 180.991 37.9126C182.548 35.8115 183.819 31.8499 182.91 28.5127C181.257 22.4439 170.551 19.7948 166.307 24.0443C166.178 24.0504 162.971 21.0666 161.987 20.1962C161.076 19.39 160.036 18.8316 157.635 19.3792C151.005 22.0314 156.094 32.0499 166.386 30.8348Z" fill="#418DFA"/>
<path d="M51.5716 8.427H31.1627C30.6364 8.427 30.2097 8.95929 30.2097 9.61589V28.3133C30.2097 28.9699 30.6364 29.5022 31.1627 29.5022H51.5716C52.0979 29.5022 52.5246 28.9699 52.5246 28.3133V9.61589C52.5246 8.95929 52.0979 8.427 51.5716 8.427Z" fill="white"/>
<path d="M118.168 9.66663H63.7439C62.3404 9.66663 61.2026 9.76057 61.2026 9.87645V13.176C61.2026 13.2918 62.3404 13.3858 63.7439 13.3858H118.168C119.571 13.3858 120.709 13.2918 120.709 13.176V9.87645C120.709 9.76057 119.571 9.66663 118.168 9.66663Z" fill="white"/>
<path d="M118.168 17.105H63.7439C62.3404 17.105 61.2026 17.1989 61.2026 17.3148V20.6143C61.2026 20.7302 62.3404 20.8241 63.7439 20.8241H118.168C119.571 20.8241 120.709 20.7302 120.709 20.6143V17.3148C120.709 17.1989 119.571 17.105 118.168 17.105Z" fill="white"/>
<path d="M116.981 24.5432H63.691C62.3167 24.5432 61.2026 24.6372 61.2026 24.753V28.0525C61.2026 28.1684 62.3167 28.2624 63.691 28.2624H116.981C118.355 28.2624 119.469 28.1684 119.469 28.0525V24.753C119.469 24.6372 118.355 24.5432 116.981 24.5432Z" fill="white"/>
<path d="M79.8032 50.5852C82.8828 50.5852 85.3793 48.0887 85.3793 45.0091C85.3793 41.9295 82.8828 39.433 79.8032 39.433C76.7236 39.433 74.2271 41.9295 74.2271 45.0091C74.2271 48.0887 76.7236 50.5852 79.8032 50.5852Z" fill="white"/>
<path fill-rule="evenodd" clip-rule="evenodd" d="M84.4796 48.0979L75.4594 48.5899L79.5292 54.3711H80.4413L84.4796 48.0979Z" fill="white"/>
<path d="M80.9654 51.817H78.903C78.8498 51.817 78.8066 52.2571 78.8066 52.8V68.2602C78.8066 68.8031 78.8498 69.2432 78.903 69.2432H80.9654C81.0186 69.2432 81.0617 68.8031 81.0617 68.2602V52.8C81.0617 52.2571 81.0186 51.817 80.9654 51.817Z" fill="white"/>
<path d="M62.0938 44.3788H28.0789C27.2017 44.3788 26.4906 44.4727 26.4906 44.5886V47.8881C26.4906 48.004 27.2017 48.0979 28.0789 48.0979H62.0938C62.971 48.0979 63.6821 48.004 63.6821 47.8881V44.5886C63.6821 44.4727 62.971 44.3788 62.0938 44.3788Z" fill="white"/>
<path d="M62.3056 49.3376H32.8259C32.0657 49.3376 31.4494 49.5568 31.4494 49.8272V57.5261C31.4494 57.7965 32.0657 58.0157 32.8259 58.0157H62.3056C63.0658 58.0157 63.6821 57.7965 63.6821 57.5261V49.8272C63.6821 49.5568 63.0658 49.3376 62.3056 49.3376Z" fill="white"/>
<path d="M124.08 50.5773H90.0647C89.1875 50.5773 88.4764 50.6712 88.4764 50.7871V54.0866C88.4764 54.2025 89.1875 54.2964 90.0647 54.2964H124.08C124.957 54.2964 125.668 54.2025 125.668 54.0866V50.7871C125.668 50.6712 124.957 50.5773 124.08 50.5773Z" fill="white"/>
<path d="M119.333 55.5361H89.8529C89.0927 55.5361 88.4764 55.724 88.4764 55.9557V62.5548C88.4764 62.7866 89.0927 62.9744 89.8529 62.9744H119.333C120.093 62.9744 120.709 62.7866 120.709 62.5548V55.9557C120.709 55.724 120.093 55.5361 119.333 55.5361Z" fill="white"/>
<path d="M124.528 62.8394C128.379 62.9967 133.586 69.9847 133.309 71.8373C133.309 71.8373 131.726 75.8041 127.743 72.038C127.743 72.038 124.82 73.7163 122.076 72.9516C122.076 72.9516 119.991 73.6608 120.327 72.3505C120.327 72.3505 119.719 71.9365 119.954 71.0992C120.19 70.2619 121.963 66.0837 124.136 65.6297C124.136 65.6297 123.824 65.079 122.563 65.2838C121.311 65.4895 118.654 66.6324 117.711 66.3951C117.72 66.396 119.766 62.6414 124.528 62.8394V62.8394Z" fill="#FDBDB4"/>
<path fill-rule="evenodd" clip-rule="evenodd" d="M175.664 32.1854L167.666 30.7274C167.608 31.058 167.576 31.2162 167.668 31.4886C168.037 32.5757 168.595 32.9099 169.227 33.4362C170.043 34.0751 170.521 34.0376 171.215 34.0923C172.958 34.133 174.33 33.7129 174.751 34.0408C175.054 34.2762 175.164 34.3444 175.295 34.6355C175.602 35.3193 175.523 36.6297 174.885 37.1674L172.937 38.8075C172.987 39.8432 172.341 41.5904 173.742 42.2824C174.25 42.1447 174.875 41.9026 175.4 41.7092C177.833 40.8131 180.296 39.9949 181.691 38.2951C183.087 36.5954 183.254 35.6211 183.008 33.0516L175.664 32.1854V32.1854Z" fill="#FF6600"/>
<path d="M159.814 38.2644C159.895 38.2904 159.977 38.2529 160.015 38.1758C160.054 38.0927 160.017 37.9913 159.933 37.952C159.623 37.8078 158.671 37.3562 158.662 36.9069C158.654 36.6306 159.02 36.3842 159.322 36.2195C161.026 35.3181 161.505 32.285 161.512 32.2043C161.516 32.1101 161.445 32.0361 161.35 32.0315C161.256 32.0268 161.182 32.0987 161.178 32.1929C161.178 32.2121 160.695 35.1166 159.167 35.9275C158.592 36.228 158.321 36.5557 158.328 36.9147C158.34 37.4925 159.115 37.9385 159.785 38.2552C159.799 38.2531 159.803 38.2608 159.814 38.2644V38.2644Z" fill="#F59DAB"/>
<path d="M153.905 78.1063C156.009 79.8557 157.873 80.4774 159.076 83.2928" stroke="#3F4FC4" stroke-width="0.0762" stroke-miterlimit="22.9256"/>
<path fill-rule="evenodd" clip-rule="evenodd" d="M162.11 98.0009L159.65 113.581L148.989 116.205C148.115 118.173 147.24 120.141 146.365 122.11C151.34 125.444 148.606 158.3 151.121 174.591C148.453 176.398 142.508 177.286 138.657 176.395L123.241 123.749C119.271 101.649 131.561 96.1157 152.587 94.9976C155.963 97.1981 154.511 96.1695 162.11 98.0009Z" fill="#6699FF"/>
<path fill-rule="evenodd" clip-rule="evenodd" d="M161.394 98.9041C160.991 101.157 159.007 112.317 158.771 112.539C157.251 113.972 145.54 112.244 146.327 124.556L156.176 124.659C158.67 124.476 179.063 124.395 180.112 124.817L179.838 126.114L179.481 126.739L179.198 127.102L178.86 127.413L178.473 127.674L178.142 127.916L178.473 127.674L178.86 127.413L179.198 127.102L179.481 126.739L179.838 126.114L180.112 124.817C183.138 124.418 187.707 124.684 190.902 124.684C192.045 124.684 200.384 125.09 201.124 124.306C201.711 123.683 210.179 76.6359 211.514 69.3817C212.324 64.9765 214.342 56.8968 205.438 55.2596C201.646 54.945 176.937 54.654 173.381 55.8883C170.804 56.7836 169 59.0339 168.469 62.1796L161.394 98.9041V98.9041Z" fill="#250074"/>
<path d="M162.912 31.7925C162.847 31.6812 162.903 31.6156 163.05 31.5903C163.097 31.5807 164.225 31.3502 165.286 31.7799C165.919 32.0423 166.38 32.4805 166.659 33.0837C166.706 33.1929 166.644 33.3034 166.49 33.3255C166.127 33.3432 166.398 31.4666 163.153 31.8321C163.064 31.8556 162.939 31.8321 162.912 31.7925V31.7925Z" fill="#CC6633"/>
<path d="M162.945 34.4089C163.233 34.4089 163.466 34.1456 163.466 33.8208C163.466 33.496 163.233 33.2327 162.945 33.2327C162.658 33.2327 162.425 33.496 162.425 33.8208C162.425 34.1456 162.658 34.4089 162.945 34.4089Z" fill="#070455"/>
<path d="M164.041 39.3926C161.595 39.3477 161.602 38.8982 161.602 38.8982C161.602 38.8982 161.798 41.5125 164.109 41.2975C166.42 41.0736 165.961 39.2349 165.961 39.2349L164.041 39.3926Z" fill="white"/>
<path d="M174.273 35.9501L174.418 35.9936C174.535 35.6083 174.596 34.818 173.99 34.5953L173.938 34.7375C174.567 34.9654 174.279 35.9384 174.273 35.9501V35.9501Z" fill="black"/>
<path fill-rule="evenodd" clip-rule="evenodd" d="M122.414 174.277C119.213 173.827 120.259 173.842 114.792 171.777C113.87 175.122 105.661 180.212 104.549 181.922C103.455 183.606 103.565 189.15 106.407 188.946C113.113 188.464 121.09 184.747 122.672 182.813C124.254 180.879 125.123 178.177 124.029 176.603L122.414 174.277Z" fill="#808080"/>
<path fill-rule="evenodd" clip-rule="evenodd" d="M167.348 45.366C167.181 44.7441 166.962 44.2658 166.569 43.8387C168.243 43.9072 170.246 43.3606 171.92 42.8138C170.396 43.6645 168.872 44.5154 167.348 45.366Z" fill="#F59DAB"/>
</svg>
