<svg width="591" height="499" viewBox="0 0 591 499" fill="none" xmlns="http://www.w3.org/2000/svg">
<path d="M48.3462 86.0479C50.9736 90.6459 60.8265 90.6459 63.4539 97.2145L94.3261 77.5088C98.0044 76.9833 98.0482 74.6624 97.6103 73.5677C104.967 73.5677 105.055 70.0645 104.179 68.3128C109.959 65.6854 105.712 59.3358 102.865 56.4894C105.493 48.6072 97.8293 46.1987 93.6692 45.9798C93.6692 38.0975 85.349 39.6302 81.189 41.3818C76.9851 36.1269 71.993 41.3818 70.0224 44.6661C67.395 39.4112 63.6728 44.6661 62.1402 47.9503C58.4618 41.1191 54.4768 50.5778 52.2873 53.862C44.9305 53.862 45.0619 59.5548 47.0325 63.058C39.6757 67.7874 45.0619 79.2604 48.3462 86.0479Z" fill="#061254" stroke="#D6D6D6" stroke-width="0.2"/>
<path d="M397.136 336.31L374.146 283.761H456.253L481.87 336.31H397.136Z" fill="#152663" stroke="#223D9B"/>
<rect x="259.854" width="331.055" height="285.075" rx="13" fill="#A2B0CD"/>
<rect x="241.462" y="5.25488" width="338.937" height="279.82" rx="13" fill="#2C4AA4"/>
<rect x="250.657" y="17.0782" width="316.604" height="256.173" rx="13" fill="#B8CAF2"/>
<rect x="304.52" y="28.9016" width="222.017" height="23.6468" rx="1" fill="white"/>
<rect x="259.854" y="77.5089" width="80.1363" height="22.3331" rx="1" fill="white"/>
<rect x="441.146" y="77.5089" width="80.1363" height="22.3331" rx="1" fill="white"/>
<rect x="480.557" y="148.449" width="80.1363" height="22.3331" rx="1" fill="white"/>
<rect x="480.557" y="219.39" width="80.1363" height="22.3331" rx="1" fill="white"/>
<rect x="261.167" y="222.017" width="80.1363" height="22.3331" rx="1" fill="white"/>
<rect x="196.795" y="123.489" width="137.94" height="47.2936" rx="1" fill="white"/>
<path d="M393.852 336.967L370.862 284.418H452.969L478.586 336.967H393.852Z" fill="#223D9B" stroke="#223D9B"/>
<path d="M392.981 337.624L351.813 359.957H441.99L477.929 337.624H392.981Z" fill="#6E7DB0" stroke="#6E7DB0"/>
<path d="M351.813 363.898V359.76L442.004 361.139L481.871 336.31V339.069L442.004 363.898H351.813Z" fill="#2C4AA4" stroke="#2C4AA4"/>
<circle cx="274.304" cy="89.3323" r="7.88226" fill="#C4C4C4"/>
<circle cx="452.969" cy="88.0186" r="7.88226" fill="#C4C4C4"/>
<circle cx="493.694" cy="158.959" r="7.88226" fill="#C4C4C4"/>
<circle cx="493.694" cy="231.213" r="7.88226" fill="#C4C4C4"/>
<circle cx="276.932" cy="233.84" r="7.88226" fill="#C4C4C4"/>
<ellipse cx="216.501" cy="144.508" rx="17.0782" ry="15.7645" fill="#C4C4C4"/>
<path d="M359.835 116.263C377.176 115.738 400.342 105.097 409.756 99.842C426.572 110.352 449.606 115.169 459.021 116.263C463.619 161.586 447.197 204.282 409.756 225.958C360.886 200.735 354.8 142.538 359.835 116.263Z" fill="#E5ECFC"/>
<path d="M366.25 121.121C381.753 120.651 402.462 111.118 410.879 106.411C425.913 115.825 446.505 120.141 454.922 121.121C459.032 161.723 444.352 199.971 410.879 219.39C367.189 196.794 361.748 144.659 366.25 121.121Z" fill="#B8CAF2"/>
<path d="M368.802 124.207C383.406 123.764 402.915 114.785 410.844 110.352C425.006 119.219 444.404 123.284 452.333 124.207C456.206 162.449 442.376 198.473 410.844 216.762C369.687 195.48 364.561 146.376 368.802 124.207Z" fill="#7E90BA"/>
<rect x="391.225" y="151.077" width="36.7839" height="34.1565" rx="3" fill="#E5ECFC"/>
<ellipse cx="409.616" cy="168.812" rx="5.25484" ry="4.59799" fill="#7E90BA"/>
<rect x="408.303" y="172.096" width="2.62742" height="6.56855" fill="#7E90BA"/>
<path d="M393.852 149.763H401.734C401.734 136.626 403.107 133.521 408.96 132.685C418.156 131.371 418.156 139.91 418.156 149.763H425.381C426.038 141.443 425.381 124.802 408.96 124.802C393.852 124.802 393.852 141.224 393.852 149.763Z" fill="#E5ECFC"/>
<path fill-rule="evenodd" clip-rule="evenodd" d="M46.64 458.411L62.9604 459.103L63.093 459.608L69.2744 378.448C70.306 363.453 72.1031 348.021 74.2661 333.161C75.2668 326.291 76.3981 320.095 77.7921 313.189C78.0268 312.025 79.3825 305.092 79.5867 304.561C83.1358 295.32 80.5322 302.81 83.1596 296.242L84.2185 292.031C89.7385 286.702 86.5749 290.114 89.6722 282.242C94.5971 269.732 101.136 265.041 106.194 251.383C99.5122 253.328 93.3819 255.872 84.6624 256.362C79.6329 256.645 75.9611 255.882 71.4039 255.77C60.8029 255.505 65.5849 253.144 63.0036 257.549C69.0549 262.78 71.3961 273.644 60.6114 276.438C56.0282 269.617 59.6229 269.721 56.2988 264.015C53.0973 258.516 53.6129 264.14 50.3398 256.653C45.9329 253.251 48.4734 260.884 46.0478 253.688C45.6211 252.419 44.2325 252.878 43.4866 252.22L44.0331 253.129C47.2095 274.445 43.1523 330.706 43.2009 356.851C43.2338 373.306 43.4076 448.344 46.64 458.411Z" fill="#49427A"/>
<path fill-rule="evenodd" clip-rule="evenodd" d="M106.194 251.383C101.136 265.041 94.5971 269.732 89.6722 282.241C86.5749 290.114 89.7385 286.702 84.2185 292.031L85.7809 297.267C85.911 308.162 92.8506 323.065 96.8617 333.758C106.278 358.862 101.238 350.892 103.671 376.611L127.299 378.448C126.216 354.11 123.676 336.427 120.336 312.36C118.57 299.641 110.432 257.77 112.232 248.701L106.194 251.383Z" fill="#322E5A"/>
<path fill-rule="evenodd" clip-rule="evenodd" d="M122.1 448.818L135.985 446.996C138.533 433.887 129.267 413.287 130.83 397.11L127.299 378.448L103.671 376.611L103.722 380.607C107.973 405.402 112.178 429.232 122.1 448.818Z" fill="#322E5A"/>
<path fill-rule="evenodd" clip-rule="evenodd" d="M132.862 473.996C139.889 472.195 143.869 473.026 151.613 473.858C159.61 474.341 164.274 477.339 163.82 470.597C153.492 471.166 151.026 470.477 140.89 467.833C129.862 464.955 131.583 465.113 139.547 462.477L133.531 458.304L122.59 454.624L121.314 469.206L132.862 473.996V473.996Z" fill="#554C79"/>
<path fill-rule="evenodd" clip-rule="evenodd" d="M133.531 458.304L139.547 462.477C131.583 465.113 129.862 464.955 140.89 467.833C151.026 470.477 153.492 471.166 163.82 470.597C160.739 459.225 155.27 459.072 144.911 455.867C141.069 457.932 139.96 458.534 133.531 458.304Z" fill="#8D7095"/>
<path fill-rule="evenodd" clip-rule="evenodd" d="M52.1724 473.96C61.4433 475.657 56.7581 472.814 60.7972 480.009L56.5896 482.236C55.8006 482.538 55.285 482.731 54.4243 483.01C40.5044 487.529 42.7228 483.594 41.0661 481.871C37.8745 485.209 32.2214 491.331 38.7633 494.784C36.1231 487.45 37.5274 493.026 39.7767 490.839C47.0585 496.17 54.9221 492.763 61.6805 490.405L60.4937 463.367L58.9077 465.973C52.2643 476.752 67.4357 475.154 52.1724 473.96Z" fill="#9A74A5"/>
<path d="M94.779 93.1115C92.6057 102.387 79.7456 100.717 79.1612 100.631H79.1462L79.6558 105.041L80.1505 109.243L81.8458 114.95L74.6204 120.861H64.7676L60.5458 116.263L62.5992 104.722C64.8175 88.9833 60.5458 84.0688 60.5458 84.0688C55.195 83.8844 51.6128 77.6432 54.8053 75.3458C57.9979 73.0606 61.8798 77.4712 61.8798 77.4712C61.8798 77.4712 68.8944 71.9549 74.1702 66.9176C79.4311 61.8803 85.1867 65.8733 85.1867 65.8733C92.9806 60.3937 94.1947 75.4933 94.1947 75.4933C94.1947 75.4933 97.0122 83.6144 94.779 93.1115Z" fill="#FBD5C8"/>
<path d="M79.6784 104.768C79.6784 104.768 65.7314 101.11 65.2275 92.945C65.2275 92.945 68.2836 98.3464 79.1258 100.663L79.6784 104.768V104.768Z" fill="#FAB59E"/>
<path d="M78.3013 82.5181C78.8831 82.5181 79.3547 81.9849 79.3547 81.3272C79.3547 80.6695 78.8831 80.1364 78.3013 80.1364C77.7194 80.1364 77.2478 80.6695 77.2478 81.3272C77.2478 81.9849 77.7194 82.5181 78.3013 82.5181Z" fill="#070455"/>
<path d="M89.9301 82.5181C90.4043 82.5181 90.7888 81.9849 90.7888 81.3272C90.7888 80.6695 90.4043 80.1364 89.9301 80.1364C89.4558 80.1364 89.0713 80.6695 89.0713 81.3272C89.0713 81.9849 89.4558 82.5181 89.9301 82.5181Z" fill="#070455"/>
<path d="M73.7802 77.5089C73.6782 77.5089 73.5761 77.4685 73.4869 77.4014C73.2828 77.2267 73.2446 76.9175 73.4104 76.7158C73.4614 76.6485 74.6982 75.0221 76.547 74.8876C77.6564 74.8204 78.7275 75.3043 79.7348 76.3259C79.9132 76.5141 79.9261 76.8233 79.7475 77.025C79.569 77.2131 79.2757 77.2267 79.0844 77.0384C78.281 76.205 77.4522 75.8152 76.6107 75.8689C75.1825 75.9629 74.1625 77.3072 74.1498 77.3206C74.0606 77.4552 73.9204 77.5089 73.7802 77.5089V77.5089Z" fill="black"/>
<path d="M85.6802 77.5089C85.5908 77.5089 85.5163 77.4981 85.4269 77.4656C85.1587 77.3682 85.0544 77.1303 85.1884 76.9355C85.2332 76.8598 86.4849 75.1074 88.4964 74.9018C89.5544 74.7935 90.5827 75.1181 91.5511 75.8753C91.7597 76.0377 91.7448 76.2864 91.5214 76.4379C91.2978 76.5893 90.9552 76.5785 90.7465 76.4163C90.0312 75.8645 89.3308 75.6158 88.6453 75.6807C87.2 75.8322 86.1717 77.271 86.1568 77.2818C86.0676 77.4224 85.8739 77.5089 85.6802 77.5089V77.5089Z" fill="black"/>
<path d="M84.1376 89.3323C83.9726 89.3323 83.8428 89.196 83.8192 89.0054C83.7956 88.801 83.9254 88.6104 84.1022 88.5832C84.7625 88.4879 86.7908 88.1746 87.0738 87.2211C87.2507 86.6354 86.72 85.8589 86.2601 85.3005C83.6422 82.2085 84.6798 77.9587 84.7153 77.7817C84.7625 77.5773 84.9393 77.4684 85.1163 77.5229C85.2932 77.5774 85.3875 77.7817 85.3403 77.986C85.3285 78.027 84.3733 82.0043 86.72 84.7829C87.6045 85.8182 87.9111 86.7035 87.687 87.4662C87.3215 88.6921 85.6234 89.1143 84.1965 89.3323C84.1729 89.3187 84.1612 89.3323 84.1376 89.3323V89.3323Z" fill="#FAB59E"/>
<path d="M83.6897 91.5701C77.8502 91.4546 74.6204 90.646 74.6204 90.646C74.6204 90.646 78.1711 97.7381 83.6897 97.1837C89.2082 96.6062 90.3849 91.339 90.3849 91.339L83.6897 91.5701Z" fill="white"/>
<path d="M192.973 166.348C192.973 166.348 198.039 163.111 199.056 157.44C200.085 151.772 205.633 152.54 207.131 153.705C207.131 153.705 207.404 153.142 206.376 151.746C206.376 151.746 208.068 151.762 206.323 149.617C206.323 149.617 206.994 149.089 205.453 147.845C203.912 146.602 201.442 146.121 201.442 146.121C201.442 146.121 201.798 144.796 202.906 144.729C204.003 144.659 205.234 144.974 205.776 144.196C206.306 143.415 201.268 142.544 201.268 142.544L185.73 159.066C185.731 159.05 186.382 167.415 192.973 166.348V166.348Z" fill="#FBD5C8"/>
<path fill-rule="evenodd" clip-rule="evenodd" d="M45.5474 465.258L46.9207 467.81C47.0818 470.888 47.0739 470.625 46.4076 474.18L52.1726 473.96C67.4359 475.154 52.2645 476.752 58.9079 465.972L60.4939 463.367C64.2369 461.731 60.9535 463.944 62.9603 459.103L46.6399 458.411C46.6448 458.937 46.6733 459.657 46.6374 459.988C46.6016 460.34 46.5147 461.295 46.4714 461.652C46.4179 462.112 45.7821 464.579 45.5474 465.258Z" fill="#F4D2CE"/>
<path fill-rule="evenodd" clip-rule="evenodd" d="M41.0662 481.871C42.7229 483.594 40.5045 487.529 54.4243 483.01C55.2851 482.732 55.8006 482.538 56.5897 482.236L60.7972 480.009C56.7581 472.814 61.4434 475.658 52.1725 473.96L46.4075 474.18C47.0738 470.625 47.0816 470.888 46.9206 467.81L45.5472 465.258L41.0662 481.871Z" fill="#8D7095"/>
<path fill-rule="evenodd" clip-rule="evenodd" d="M122.101 448.818L122.591 454.624L133.532 458.304C139.96 458.534 141.069 457.932 144.911 455.867L138.495 449.75C138.211 449.464 137.464 449.229 137.254 448.405C137.04 447.55 136.414 447.461 135.985 446.996L122.101 448.818V448.818Z" fill="#F4D2CE"/>
<path fill-rule="evenodd" clip-rule="evenodd" d="M38.7634 494.784C41.6584 498.245 47.1097 498.651 52.2546 498.161C59.5845 497.464 61.2416 496.584 61.6806 490.405C54.9222 492.763 47.0586 496.17 39.7768 490.839C37.5275 493.026 36.1232 487.45 38.7634 494.784Z" fill="#4A3159"/>
<path d="M133.081 167.498C119.418 132.291 112.061 116.263 102.865 115.607C109.434 126.116 114.032 156.769 110.747 173.41C126.512 196.531 138.773 202.749 142.933 202.968C158.698 209.274 181.907 181.073 191.541 166.184C187.862 165.133 185.629 161.367 184.972 159.616C180.768 158.039 163.953 172.972 156.07 180.635C143.459 183.788 135.489 173.191 133.081 167.498Z" fill="#7C5984" stroke="#7C5984"/>
<path d="M81.8457 114.95C74.489 123.357 64.7675 119.329 60.8264 116.263C49.7912 116.263 42.6534 120.642 40.4639 122.832C51.499 132.291 45.0619 157.426 40.4639 168.812C53.601 195.086 49.003 234.935 45.0619 251.576C66.6067 264.713 99.1429 255.298 112.718 248.948C107.463 240.54 108.339 195.086 109.434 173.41C118.892 128.744 107.244 115.825 100.238 114.95H81.8457Z" fill="#AA76AE" stroke="#AA76AE"/>
<path fill-rule="evenodd" clip-rule="evenodd" d="M63.0036 257.549C55.9566 253.731 60.854 255.295 52.1728 252.197L50.3398 256.653C53.613 264.14 53.0974 258.516 56.2988 264.015C59.623 269.721 56.0283 269.617 60.6114 276.438C71.3961 273.644 69.0549 262.78 63.0036 257.549Z" fill="#F4D2CE"/>
<path d="M39.1503 169.469C52.2874 141.093 44.6241 126.554 39.1503 122.832C20.7583 121.256 6.08856 174.286 1.05268 200.998C-0.523777 215.186 33.6765 246.54 50.9737 259.458C49.3972 256.305 52.2874 253.327 53.6011 252.232C50.9737 226.615 20.7583 201.655 23.3857 199.027C25.4877 196.925 34.7712 178.446 39.1503 169.469Z" fill="#7C5984" stroke="#7C5984"/>
</svg>
